<svg width="20" height="20" viewBox="0 0 20 20" fill="none" xmlns="http://www.w3.org/2000/svg">
    <path fill-rule="evenodd" clip-rule="evenodd" d="M16.2763 3.42993C16.471 3.34411 16.684 3.31451 16.8933 3.34421C17.1026 3.37392 17.3005 3.46183 17.4664 3.59881C17.6322 3.73579 17.76 3.91682 17.8364 4.12306C17.9127 4.32931 17.935 4.55323 17.9007 4.77151L16.114 16.1222C15.9407 17.2171 14.7937 17.845 13.835 17.2996C13.033 16.8433 11.8419 16.1403 10.7705 15.4068C10.2348 15.0397 8.59389 13.8639 8.79556 13.0273C8.96887 12.312 11.7261 9.62383 13.3016 8.02564C13.92 7.39775 13.638 7.03554 12.9077 7.6131C11.0943 9.0471 8.18267 11.2278 7.22001 11.8417C6.37078 12.3829 5.92805 12.4753 5.39867 12.3829C4.43285 12.2146 3.53715 11.9539 2.8061 11.6362C1.81823 11.2072 1.86628 9.78472 2.80531 9.37053L16.2763 3.42993Z" fill="currentColor"/>
</svg>
