<svg width="180" height="48" viewBox="0 0 180 48" fill="none" xmlns="http://www.w3.org/2000/svg">
    <path d="M38.7003 14.4884C36.1878 9.45644 29.8509 7.56686 24.8607 10.1594L10.0886 17.843L13.398 24.2007L10.0608 25.9337C5.11935 28.5019 3.02098 34.7274 5.62394 39.6514C7.42304 43.0513 10.9168 45 14.522 45C16.081 45 17.6643 44.6346 19.1433 43.869L34.1172 36.0776L30.8183 29.7268L34.3434 27.8929C39.2083 25.363 41.1397 19.3776 38.7003 14.4918V14.4884ZM17.4242 40.5527C13.8295 42.4214 9.24302 40.4866 8.30693 36.2063C8.19209 35.6948 8.15381 35.1658 8.18513 34.6439C8.33477 32.3123 9.62233 30.3601 11.5954 29.3405L15.1205 27.5066L16.5786 30.3114C18.1202 33.2728 21.7741 34.4281 24.739 32.89L27.5089 31.4493L29.0923 34.4942L17.4277 40.5562L17.4242 40.5527ZM22.6684 24.1276C23.8063 24.3434 24.7216 25.2586 24.9408 26.393C25.3271 28.4288 23.5767 30.1792 21.5409 29.7964C20.403 29.5806 19.4878 28.6619 19.2686 27.524C18.8823 25.4883 20.6362 23.7414 22.6684 24.1242V24.1276ZM32.4713 24.6566L29.0958 26.4139L27.6377 23.6126C26.0926 20.6478 22.4387 19.4924 19.4774 21.034L16.7039 22.4747L15.1205 19.4298L26.7851 13.3678C29.8474 11.7775 33.6231 12.9433 35.2587 15.9638C36.9394 19.0714 35.6032 23.028 32.4678 24.6601L32.4713 24.6566Z" fill="#EDFCF7" fill-opacity="0.62"/>
    <path d="M66.9281 23.4871L66.4932 22.1787H71.0344L74.3229 33.5927L77.5836 22.1787H81.8917L76.7101 37.0865L76.5953 37.4067L75.3147 40.9283C74.9667 41.7426 74.5978 42.3725 74.2081 42.8214C73.8009 43.2877 73.3346 43.587 72.8092 43.7227C72.228 43.8793 71.4798 43.9558 70.5681 43.9558L69.5485 43.928L68.7621 43.9002V40.6117L69.4893 40.6708C70.0148 40.6708 70.4498 40.6221 70.7978 40.5247C71.1284 40.4272 71.4172 40.215 71.6712 39.8844C71.7861 39.6895 71.8835 39.4772 71.9635 39.2441C72.061 38.9344 72.148 38.6212 72.2245 38.3115L66.9247 23.4941L66.9281 23.4871Z" fill="#EDFCF7" fill-opacity="0.62"/>
    <path d="M83.9874 22.1786H87.9162V24.451C88.9637 22.6658 90.5366 21.7715 92.6315 21.7715C93.7381 21.7715 94.709 21.9768 95.5441 22.3839C96.3584 22.812 96.9813 23.4036 97.4059 24.1587C97.8339 24.9347 98.0462 25.8673 98.0462 26.953V37.6954H93.9399V28.3206C93.9399 27.3497 93.7833 26.5946 93.4736 26.0483C93.1639 25.5054 92.4262 25.234 91.2604 25.234C90.0946 25.234 89.3499 25.582 88.8454 26.2814C88.3408 26.9983 88.0867 27.8439 88.0867 28.8148V37.6954H83.9805V22.1786H83.9874Z" fill="#EDFCF7" fill-opacity="0.62"/>
    <path d="M101.749 30.1267C102.601 29.3298 103.68 28.8357 104.982 28.6408L108.736 28.0875C109.627 27.9518 110.076 27.5725 110.076 26.953C110.076 25.6898 109.262 25.06 107.63 25.06C106.816 25.06 106.175 25.2061 105.709 25.495C105.281 25.8047 105.02 26.3893 104.922 27.2419H100.994C101.108 25.9787 101.422 24.9521 101.926 24.1552C102.452 23.3409 103.169 22.7493 104.08 22.3805C104.508 22.2065 105.041 22.0603 105.681 21.9455C106.3 21.8306 106.951 21.7715 107.633 21.7715C109.495 21.7715 110.904 22.0325 111.854 22.5579C112.825 23.1008 113.438 23.7133 113.688 24.3918C113.939 25.0321 114.068 25.655 114.068 26.2536V37.6954H110.602C110.581 37.598 110.542 37.4727 110.487 37.3161C110.428 37.1213 110.389 36.996 110.372 36.9368C110.257 36.4914 110.198 36.133 110.198 35.8615C109.77 36.3279 109.325 36.7141 108.858 37.0273C108.375 37.337 107.849 37.6015 107.285 37.8138C106.722 38.0086 106.081 38.1061 105.364 38.1061C104.606 38.1061 103.851 37.9704 103.092 37.6989C102.375 37.4484 101.763 36.9612 101.258 36.2443C100.733 35.5658 100.472 34.7027 100.472 33.6518C100.472 32.0998 100.9 30.9236 101.752 30.1302L101.749 30.1267ZM108.59 30.767L106.638 31.1741C106.036 31.3099 105.542 31.543 105.152 31.8736C104.762 32.2216 104.571 32.747 104.571 33.4465C104.571 34.0102 104.755 34.4383 105.124 34.7271C105.493 35.0368 105.97 35.1934 106.551 35.1934C106.843 35.1934 107.083 35.1656 107.278 35.1064C107.491 35.0681 107.772 34.9811 108.124 34.8454C108.649 34.6331 109.105 34.3026 109.492 33.8536C109.878 33.3699 110.073 32.7958 110.073 32.1346V30.1267C109.725 30.419 109.227 30.6313 108.587 30.767H108.59Z" fill="#EDFCF7" fill-opacity="0.62"/>
    <path d="M134.502 26.8376C134.811 25.8285 135.305 24.9446 135.987 24.1895C136.649 23.4343 137.473 22.8393 138.462 22.4147C139.433 21.9867 140.605 21.7744 141.983 21.7744C143.246 21.7744 144.343 21.9588 145.272 22.3277C146.26 22.7175 147.085 23.2708 147.746 23.9876C148.425 24.7254 148.95 25.5779 149.319 26.5488C149.688 27.5371 149.872 28.675 149.872 29.9556C149.872 31.5459 149.569 32.9448 148.971 34.1489C148.348 35.3912 147.457 36.3517 146.291 37.0302C145.108 37.7471 143.671 38.109 141.983 38.109C140.16 38.109 138.646 37.7123 137.442 36.9154C136.259 36.1394 135.396 35.1302 134.85 33.8879C134.286 32.6456 134.004 31.3371 134.004 29.9591C134.004 28.9291 134.167 27.8921 134.498 26.8446L134.502 26.8376ZM144.896 26.6045C144.332 25.6928 143.361 25.2369 141.983 25.2369C140.605 25.2369 139.568 25.6928 139.043 26.6045C138.5 27.5162 138.228 28.6333 138.228 29.9521C138.228 31.271 138.5 32.3289 139.043 33.2406C139.568 34.1907 140.546 34.6674 141.983 34.6674C143.42 34.6674 144.35 34.1907 144.896 33.2406C145.421 32.308 145.682 31.2119 145.682 29.9521C145.682 28.6924 145.421 27.5371 144.896 26.6045Z" fill="#EDFCF7" fill-opacity="0.62"/>
    <path d="M152.927 25.12H150.832V22.1795H152.927V18.0176H157.033V22.1795H159.539V25.12H157.033V33.5344C157.033 34.0599 157.12 34.3974 157.294 34.554C157.489 34.7106 157.945 34.7871 158.662 34.7871L159.128 34.7593L159.535 34.7315V37.8181L158.603 37.846L157.642 37.8738H157.089C156.003 37.8738 155.137 37.7381 154.496 37.4667C153.856 37.1952 153.438 36.8159 153.244 36.3322C153.031 35.8068 152.923 35.2082 152.923 34.5262V25.1235L152.927 25.12Z" fill="#EDFCF7" fill-opacity="0.62"/>
    <path d="M131.588 26.2533V16.7637H127.541L127.481 24.2176C126.413 22.5855 124.899 21.7712 122.94 21.7712C121.893 21.7712 120.971 21.9835 120.174 22.4115C119.359 22.8396 118.67 23.4311 118.107 24.1863C117.581 24.924 117.184 25.7766 116.913 26.7475C116.642 27.7775 116.506 28.7971 116.506 29.8028C116.506 30.6971 116.582 31.5323 116.739 32.3048C116.875 33.0217 117.097 33.7212 117.407 34.3997C117.971 35.6212 118.747 36.5433 119.735 37.1662C120.685 37.7752 121.771 38.0849 122.982 38.0954C123.796 38.0849 124.158 37.9875 124.687 37.8065C125.251 37.5943 125.773 37.3298 126.26 37.0201C126.723 36.7139 127.165 36.3276 127.589 35.8648C127.589 35.8613 127.596 35.8578 127.596 35.8543C127.596 36.1258 127.655 36.4842 127.77 36.9296C127.791 36.9888 127.829 37.114 127.885 37.3089C127.944 37.4655 127.983 37.5908 128 37.6882H131.581V26.2533H131.588ZM127.339 32.5136C127.067 33.2131 126.66 33.7455 126.117 34.1144C125.574 34.5215 124.896 34.7268 124.078 34.7268C122.895 34.7268 122.039 34.2431 121.517 33.2723C120.991 32.3014 120.73 31.233 120.73 30.0708C120.73 28.6718 121.002 27.527 121.545 26.6361C122.088 25.7453 122.971 25.2964 124.193 25.2964C126.542 25.2964 127.715 26.9667 127.715 30.3039C127.715 31.1391 127.589 31.8768 127.335 32.5171L127.339 32.5136Z" fill="#EDFCF7" fill-opacity="0.62"/>
    <path d="M64.7439 26.2533V16.7637H60.6968L60.6377 24.2176C59.5693 22.5855 58.0556 21.7712 56.0964 21.7712C55.049 21.7712 54.1268 21.9835 53.3299 22.4115C52.5156 22.8396 51.8266 23.4311 51.2629 24.1863C50.7374 24.924 50.3407 25.7766 50.0693 26.7475C49.7978 27.7775 49.6621 28.7971 49.6621 29.8028C49.6621 30.6971 49.7387 31.5323 49.8953 32.3048C50.031 33.0217 50.2537 33.7212 50.5634 34.3997C51.1271 35.6212 51.9032 36.5433 52.8914 37.1662C53.8415 37.7752 54.9272 38.0849 56.1382 38.0954C56.9525 38.0849 57.3144 37.9875 57.8433 37.8065C58.4071 37.5943 58.929 37.3298 59.4162 37.0201C59.8791 36.7139 60.321 36.3276 60.7456 35.8648C60.7456 35.8613 60.7525 35.8578 60.7525 35.8543C60.7525 36.1258 60.8117 36.4842 60.9265 36.9296C60.9474 36.9888 60.9857 37.114 61.0413 37.3089C61.1005 37.4655 61.1388 37.5908 61.1562 37.6882H64.737V26.2533H64.7439ZM60.495 32.5136C60.2236 33.2131 59.8164 33.7455 59.2736 34.1144C58.7307 34.5215 58.0521 34.7268 57.2343 34.7268C56.0512 34.7268 55.1951 34.2431 54.6731 33.2723C54.1477 32.3014 53.8867 31.233 53.8867 30.0708C53.8867 28.6718 54.1581 27.527 54.701 26.6361C55.2438 25.7453 56.1277 25.2964 57.3492 25.2964C59.6981 25.2964 60.8708 26.9667 60.8708 30.3039C60.8708 31.1391 60.7455 31.8768 60.4915 32.5171L60.495 32.5136Z" fill="#EDFCF7" fill-opacity="0.62"/>
</svg>
