<svg width="180" height="48" viewBox="0 0 180 48" fill="none" xmlns="http://www.w3.org/2000/svg">
    <path fill-rule="evenodd" clip-rule="evenodd" d="M29.7927 29.4238H21.0975V14.3381H18.4457V32.0762H29.7927V29.4238Z" fill="#EDFCF7" fill-opacity="0.62"/>
    <path fill-rule="evenodd" clip-rule="evenodd" d="M98.0864 14.3383H95.4343V32.0758H106.782V29.424H98.0864V14.3383Z" fill="#EDFCF7" fill-opacity="0.62"/>
    <path fill-rule="evenodd" clip-rule="evenodd" d="M85.5193 23.8895H92.4071V21.2377H85.5193V16.9906H93.5994V14.3388H82.8676V32.0762H94.2146V29.4238H85.5193V23.8895Z" fill="#EDFCF7" fill-opacity="0.62"/>
    <path fill-rule="evenodd" clip-rule="evenodd" d="M110.681 23.8895H117.569V21.2377H110.681V16.9906H118.761V14.3388H108.03V32.0762H119.376V29.4238H110.681V23.8895Z" fill="#EDFCF7" fill-opacity="0.62"/>
    <path fill-rule="evenodd" clip-rule="evenodd" d="M136.203 14.4176L136.192 14.4083L139.256 31.8798H141.921L140.067 21.1995L151.042 31.829H154.783L136.093 13.7959L136.203 14.4176Z" fill="#EDFCF7" fill-opacity="0.62"/>
    <path fill-rule="evenodd" clip-rule="evenodd" d="M144.082 31.8722H144.7L146.815 31.8605H147.683L143.347 27.6777L143.373 27.8219L143.371 27.82L144.082 31.8722Z" fill="#EDFCF7" fill-opacity="0.62"/>
    <path fill-rule="evenodd" clip-rule="evenodd" d="M166.095 14.3383V32.0758H177.442V29.4234H168.747V23.8891H175.635V21.2379H168.747V16.9908H176.827V14.3383H166.095Z" fill="#EDFCF7" fill-opacity="0.62"/>
    <path fill-rule="evenodd" clip-rule="evenodd" d="M150.722 14.3383V16.9901H156.307V32.0758H158.958V16.9901H164.668V14.3383H150.722Z" fill="#EDFCF7" fill-opacity="0.62"/>
    <path fill-rule="evenodd" clip-rule="evenodd" d="M123.201 22.4779V17.0023H128.19C129.702 17.0023 130.927 18.2282 130.927 19.74C130.927 21.2525 129.702 22.4779 128.19 22.4779H123.201ZM133.691 19.74C133.691 16.7567 131.274 14.3381 128.291 14.3381H120.534V25.1427H120.55V32.0762H123.201V25.1427H126.147L130.853 32.0762H134.158L129.31 25.0455C131.806 24.5686 133.691 22.3752 133.691 19.74Z" fill="#EDFCF7" fill-opacity="0.62"/>
    <path fill-rule="evenodd" clip-rule="evenodd" d="M11.6327 29.4H5.65181V23.9245H11.6327C13.1445 23.9245 14.3705 25.1499 14.3705 26.6623C14.3705 28.1747 13.1445 29.4 11.6327 29.4ZM10.6845 17.1481C11.8066 17.1481 12.7165 18.058 12.7165 19.1808C12.7165 20.3022 11.8066 21.2127 10.6845 21.2127H5.65181V17.1481H10.6845ZM14.4336 21.9828C15.0181 21.2975 15.3708 20.4092 15.3708 19.4387V18.8504C15.3708 16.3588 13.3505 14.3386 10.8583 14.3386H3V32.076H5.65181V32.0642H11.7329C14.7163 32.0642 17.1355 29.6457 17.1355 26.6623C17.1355 24.6625 16.0487 22.9169 14.4336 21.9828Z" fill="#EDFCF7" fill-opacity="0.62"/>
    <path fill-rule="evenodd" clip-rule="evenodd" d="M75.2339 14.3227C70.9212 14.3227 67.3304 17.4056 66.5417 21.4882H69.2542C70.0299 18.9205 72.4132 17.0512 75.2339 17.0512C77.0519 17.0512 78.6886 17.8281 79.8305 19.0684L81.6781 17.1063C80.0636 15.3928 77.7737 14.3227 75.2339 14.3227Z" fill="#EDFCF7" fill-opacity="0.62"/>
    <path fill-rule="evenodd" clip-rule="evenodd" d="M75.2338 29.5428C72.295 29.5428 69.8306 27.5133 69.1651 24.7792H66.5256C67.2803 28.9032 70.8915 32.0288 75.2338 32.0288C77.7569 32.0288 80.034 30.9729 81.6459 29.2793L79.8675 27.4848C78.725 28.7486 77.0722 29.5428 75.2338 29.5428Z" fill="#EDFCF7" fill-opacity="0.62"/>
    <path fill-rule="evenodd" clip-rule="evenodd" d="M58.8346 29.5428C55.8957 29.5428 53.4314 27.5133 52.7657 24.7792H50.1263C50.881 28.9032 54.4928 32.0288 58.8346 32.0288C61.3577 32.0288 63.6346 30.9729 65.2473 29.2793L63.4683 27.4848C62.3257 28.7486 60.6729 29.5428 58.8346 29.5428Z" fill="#EDFCF7" fill-opacity="0.62"/>
    <path fill-rule="evenodd" clip-rule="evenodd" d="M58.8346 17.051C60.6525 17.051 62.2899 17.8279 63.4312 19.0682L65.2788 17.106C63.665 15.3926 61.3744 14.3225 58.8346 14.3225C54.5225 14.3225 50.9311 17.406 50.143 21.488H52.8549C53.6306 18.9203 56.0139 17.051 58.8346 17.051Z" fill="#EDFCF7" fill-opacity="0.62"/>
    <path fill-rule="evenodd" clip-rule="evenodd" d="M35.1846 27.3659C34.5536 26.6316 34.0903 25.7501 33.854 24.779H31.2146C31.553 26.6291 32.4666 28.2782 33.7631 29.5339L35.1846 27.3659Z" fill="#EDFCF7" fill-opacity="0.62"/>
    <path fill-rule="evenodd" clip-rule="evenodd" d="M39.9226 17.051C40.5641 17.051 41.1827 17.1481 41.7653 17.3275L43.2981 14.9893C42.2577 14.56 41.1177 14.3225 39.9226 14.3225C35.6106 14.3225 32.0192 17.406 31.2311 21.488H33.9429C34.7186 18.9203 37.1019 17.051 39.9226 17.051Z" fill="#EDFCF7" fill-opacity="0.62"/>
    <path fill-rule="evenodd" clip-rule="evenodd" d="M46.0526 16.7893L44.5421 19.0941C45.1595 19.7721 45.6296 20.5874 45.9017 21.488H48.6142C48.2609 19.6589 47.3442 18.0302 46.0526 16.7893Z" fill="#EDFCF7" fill-opacity="0.62"/>
    <path fill-rule="evenodd" clip-rule="evenodd" d="M46.5024 29.098C47.5751 27.9067 48.3297 26.4221 48.6303 24.7792H45.9909C45.8059 25.5413 45.48 26.2489 45.0438 26.8724L46.5024 29.098Z" fill="#EDFCF7" fill-opacity="0.62"/>
    <path fill-rule="evenodd" clip-rule="evenodd" d="M39.9226 29.5428C39.218 29.5428 38.5413 29.4259 37.9097 29.2112L36.51 31.3466C37.5603 31.7858 38.7127 32.0288 39.9226 32.0288C41.3441 32.0288 42.6876 31.6936 43.8784 31.0979L42.4965 28.9891C41.7115 29.3448 40.84 29.5428 39.9226 29.5428Z" fill="#EDFCF7" fill-opacity="0.62"/>
    <path fill-rule="evenodd" clip-rule="evenodd" d="M47.7931 34.0638C47.3168 34.0638 46.9308 33.6778 46.9308 33.2015C46.9308 32.7259 47.3168 32.3399 47.7931 32.3399C48.2694 32.3399 48.6554 32.7259 48.6554 33.2015C48.6554 33.6778 48.2694 34.0638 47.7931 34.0638ZM38.9433 25.6958C38.5919 25.556 38.2771 25.3438 38.0184 25.0766C37.5577 24.6003 37.2731 23.9527 37.2731 23.2382C37.2731 21.7778 38.457 20.5944 39.9169 20.5944C40.2107 20.5944 40.4934 20.6427 40.7575 20.7318C40.8021 20.7466 40.8466 20.7627 40.8905 20.78C41.1973 20.9019 41.4769 21.0794 41.7144 21.3002C42.2347 21.7827 42.5606 22.4725 42.5606 23.2382C42.5606 24.6981 41.3767 25.8813 39.9169 25.8813C39.5729 25.8813 39.2451 25.8152 38.9433 25.6958ZM30.9711 37.902C30.4948 37.902 30.1088 37.5166 30.1088 37.0403C30.1088 36.564 30.4948 36.178 30.9711 36.178C31.4468 36.178 31.8328 36.564 31.8328 37.0403C31.8328 37.5166 31.4468 37.902 30.9711 37.902ZM27.8282 24.0683C27.3519 24.0683 26.9659 23.6823 26.9659 23.206C26.9659 22.7304 27.3519 22.3444 27.8282 22.3444C28.3039 22.3444 28.6899 22.7304 28.6899 23.206C28.6899 23.6823 28.3039 24.0683 27.8282 24.0683ZM47.7158 10.1079C48.1921 10.1079 48.5781 10.4938 48.5781 10.9695C48.5781 11.4458 48.1921 11.8318 47.7158 11.8318C47.2395 11.8318 46.8535 11.4458 46.8535 10.9695C46.8535 10.4938 47.2395 10.1079 47.7158 10.1079ZM58.5611 22.3444C59.0374 22.3444 59.4234 22.7304 59.4234 23.206C59.4234 23.6823 59.0374 24.0683 58.5611 24.0683C58.0855 24.0683 57.6995 23.6823 57.6995 23.206C57.6995 22.7304 58.0855 22.3444 58.5611 22.3444ZM75.2811 22.3444C75.7567 22.3444 76.1421 22.7304 76.1421 23.206C76.1421 23.6823 75.7567 24.0683 75.2811 24.0683C74.8042 24.0683 74.4188 23.6823 74.4188 23.206C74.4188 22.7304 74.8042 22.3444 75.2811 22.3444ZM47.7869 31.232C47.5513 31.232 47.3255 31.2734 47.1157 31.3495L42.9553 26.1833C43.5788 25.5399 44 24.7005 44.1188 23.7665H56.6622V23.7256C56.8917 24.5557 57.6518 25.1663 58.555 25.1663C59.4574 25.1663 60.2177 24.557 60.4477 23.7282H73.3814C73.6121 24.557 74.3724 25.1663 75.2749 25.1663C76.3599 25.1663 77.2394 24.2861 77.2394 23.2011C77.2394 22.1161 76.3599 21.2365 75.2749 21.2365C74.3934 21.2365 73.648 21.8167 73.3987 22.6154H60.4311C60.1818 21.8167 59.4364 21.2365 58.555 21.2365C57.6518 21.2365 56.8917 21.8464 56.6622 22.6765V22.6537H56.5087V22.6154H44.1083C43.953 21.534 43.3895 20.5846 42.5798 19.927L47.0613 12.819C47.2642 12.8902 47.4826 12.9292 47.7096 12.9292C48.7952 12.9292 49.6747 12.0495 49.6747 10.9646C49.6747 9.8796 48.7952 9 47.7096 9C46.6246 9 45.745 9.8796 45.745 10.9646C45.745 11.418 45.899 11.8349 46.1564 12.1671L41.6315 19.345C41.1039 19.1092 40.5194 18.9787 39.9045 18.9787C37.7525 18.9787 35.9747 20.5784 35.6939 22.6537H29.7087C29.4717 21.8353 28.7171 21.2365 27.822 21.2365C26.737 21.2365 25.8574 22.1161 25.8574 23.2011C25.8574 24.2861 26.737 25.1663 27.822 25.1663C28.7102 25.1663 29.4612 24.5762 29.7037 23.7665H35.6895C35.8257 24.841 36.3632 25.7898 37.1469 26.4591L31.6423 35.1902C31.4307 35.1128 31.2031 35.0702 30.9649 35.0702C29.88 35.0702 29.0004 35.9498 29.0004 37.0354C29.0004 38.1204 29.88 39 30.9649 39C32.0499 39 32.9295 38.1204 32.9295 37.0354C32.9295 36.5931 32.7835 36.1855 32.5373 35.857L38.0803 27.0653C38.6328 27.3282 39.2513 27.4754 39.9045 27.4754C40.7006 27.4754 41.446 27.2565 42.0831 26.8748L46.2201 32.012C45.9708 32.341 45.8223 32.7518 45.8223 33.1966C45.8223 34.2821 46.7019 35.1611 47.7869 35.1611C48.8725 35.1611 49.7521 34.2821 49.7521 33.1966C49.7521 32.1115 48.8725 31.232 47.7869 31.232Z" fill="#E9FDF3" fill-opacity="0.1"/>
</svg>
