<svg width="180" height="48" viewBox="0 0 180 48" fill="none" xmlns="http://www.w3.org/2000/svg">
    <path d="M175.598 27.7239C175.598 28.2964 175.471 28.7788 175.216 29.1711C174.972 29.5634 174.606 29.8602 174.119 30.0617C173.642 30.2631 173.053 30.3638 172.353 30.3638C171.823 30.3638 171.357 30.3214 170.954 30.2366C170.551 30.1518 170.169 30.0246 169.809 29.8549V28.1374C170.169 28.3282 170.578 28.4925 171.033 28.6304C171.5 28.7682 171.94 28.8371 172.353 28.8371C172.82 28.8371 173.159 28.7523 173.371 28.5827C173.594 28.413 173.705 28.1851 173.705 27.8988C173.705 27.7186 173.663 27.5595 173.578 27.4217C173.493 27.2839 173.329 27.1407 173.085 26.9923C172.841 26.8333 172.475 26.6477 171.988 26.4357C171.511 26.213 171.108 25.9904 170.779 25.7677C170.461 25.5345 170.217 25.2588 170.047 24.9407C169.878 24.6227 169.793 24.2357 169.793 23.7798C169.793 23.027 170.069 22.4439 170.62 22.0304C171.182 21.6169 171.924 21.4102 172.846 21.4102C173.334 21.4102 173.79 21.4632 174.214 21.5692C174.649 21.6752 175.078 21.8396 175.502 22.0622L174.914 23.4935C174.681 23.3769 174.447 23.2762 174.214 23.1914C173.991 23.1065 173.764 23.0429 173.53 23.0005C173.308 22.9475 173.08 22.921 172.846 22.921C172.465 22.921 172.173 22.9899 171.972 23.1277C171.77 23.2656 171.67 23.4564 171.67 23.7003C171.67 23.8699 171.717 24.0236 171.813 24.1615C171.908 24.2887 172.078 24.4212 172.322 24.5591C172.576 24.6969 172.931 24.8718 173.387 25.0839C173.843 25.2959 174.235 25.5133 174.564 25.7359C174.893 25.9586 175.147 26.2289 175.327 26.547C175.508 26.8545 175.598 27.2468 175.598 27.7239Z" fill="#EDFCF7" fill-opacity="0.62"/>
    <path d="M164.717 21.4268C165.448 21.4268 166.068 21.5858 166.577 21.9039C167.086 22.2219 167.473 22.6725 167.738 23.2557C168.014 23.8282 168.152 24.5173 168.152 25.3231V26.3569H163.047C163.057 27.1732 163.243 27.7935 163.603 28.2176C163.974 28.6417 164.499 28.8537 165.178 28.8537C165.655 28.8537 166.09 28.8007 166.482 28.6947C166.885 28.5886 167.304 28.4243 167.738 28.2017V29.7761C167.346 29.9776 166.938 30.126 166.514 30.2214C166.09 30.3168 165.597 30.3645 165.035 30.3645C164.218 30.3645 163.513 30.1949 162.919 29.8556C162.336 29.5164 161.886 29.018 161.568 28.3607C161.26 27.6928 161.106 26.8923 161.106 25.9593C161.106 24.9732 161.25 24.1463 161.536 23.4783C161.833 22.7998 162.252 22.2909 162.792 21.9516C163.344 21.6017 163.985 21.4268 164.717 21.4268ZM164.732 22.874C164.255 22.874 163.868 23.0489 163.572 23.3988C163.285 23.7487 163.121 24.2788 163.078 24.9891H166.323C166.323 24.5757 166.264 24.2099 166.148 23.8918C166.031 23.5737 165.856 23.3246 165.623 23.1443C165.39 22.9641 165.093 22.874 164.732 22.874Z" fill="#EDFCF7" fill-opacity="0.62"/>
    <path d="M159.279 21.4102C159.407 21.4102 159.545 21.4208 159.693 21.442C159.841 21.4526 159.974 21.4738 160.091 21.5056L159.916 23.3822C159.81 23.3504 159.688 23.3292 159.55 23.3186C159.412 23.2974 159.279 23.2868 159.152 23.2868C158.866 23.2868 158.596 23.3398 158.341 23.4458C158.097 23.5518 157.875 23.7109 157.673 23.9229C157.482 24.1244 157.334 24.3788 157.228 24.6863C157.122 24.9938 157.069 25.3489 157.069 25.7518V30.2048H155.145V21.5692H156.624L156.894 23.0482H156.989C157.148 22.7514 157.339 22.481 157.562 22.2371C157.785 21.9827 158.039 21.7812 158.325 21.6328C158.622 21.4844 158.94 21.4102 159.279 21.4102Z" fill="#EDFCF7" fill-opacity="0.62"/>
    <path d="M152.505 21.5703V30.2059H151.01L150.755 29.0768H150.66C150.501 29.3736 150.294 29.6175 150.04 29.8083C149.796 29.9886 149.52 30.1264 149.213 30.2218C148.916 30.3173 148.598 30.365 148.258 30.365C147.665 30.365 147.161 30.2483 146.748 30.0151C146.334 29.7818 146.021 29.432 145.809 28.9655C145.597 28.499 145.491 27.9158 145.491 27.2161V21.5703H147.416V26.7867C147.416 27.444 147.522 27.937 147.734 28.2657C147.946 28.5944 148.285 28.7587 148.751 28.7587C149.229 28.7587 149.6 28.6474 149.865 28.4247C150.13 28.2021 150.315 27.8787 150.421 27.4546C150.538 27.0305 150.596 26.5057 150.596 25.8802V21.5703H152.505Z" fill="#EDFCF7" fill-opacity="0.62"/>
    <path d="M142.467 28.7743C142.679 28.7743 142.885 28.7531 143.087 28.7107C143.288 28.6683 143.484 28.6152 143.675 28.5516V30.0148C143.463 30.1208 143.203 30.2056 142.896 30.2692C142.599 30.3328 142.281 30.3646 141.942 30.3646C141.465 30.3646 141.046 30.2798 140.685 30.1102C140.335 29.9299 140.06 29.6437 139.858 29.2514C139.657 28.8591 139.556 28.329 139.556 27.661V23.0808H138.522V22.1743L139.683 21.5541L140.24 19.6934H141.481V21.57H143.58V23.0808H141.481V27.6133C141.481 27.995 141.565 28.2866 141.735 28.488C141.915 28.6789 142.159 28.7743 142.467 28.7743Z" fill="#EDFCF7" fill-opacity="0.62"/>
    <path d="M134.038 21.4102C134.918 21.4102 135.597 21.6646 136.074 22.1735C136.562 22.6718 136.805 23.4564 136.805 24.5272V30.2048H134.897V24.9566C134.897 24.3099 134.786 23.8275 134.563 23.5094C134.351 23.1807 134.006 23.0164 133.529 23.0164C132.84 23.0164 132.363 23.2603 132.098 23.748C131.844 24.2357 131.716 24.9778 131.716 25.9745V30.2048H129.792V21.5692H131.287L131.541 22.7142H131.653C131.812 22.4174 132.013 22.1735 132.257 21.9827C132.511 21.7918 132.787 21.6487 133.084 21.5533C133.391 21.4579 133.71 21.4102 134.038 21.4102Z" fill="#EDFCF7" fill-opacity="0.62"/>
    <path d="M124.205 21.4268C124.936 21.4268 125.557 21.5858 126.066 21.9039C126.574 22.2219 126.961 22.6725 127.227 23.2557C127.502 23.8282 127.64 24.5173 127.64 25.3231V26.3569H122.535C122.546 27.1732 122.731 27.7935 123.092 28.2176C123.463 28.6417 123.987 28.8537 124.666 28.8537C125.143 28.8537 125.578 28.8007 125.97 28.6947C126.373 28.5886 126.792 28.4243 127.227 28.2017V29.7761C126.834 29.9776 126.426 30.126 126.002 30.2214C125.578 30.3168 125.085 30.3645 124.523 30.3645C123.707 30.3645 123.001 30.1949 122.408 29.8556C121.825 29.5164 121.374 29.018 121.056 28.3607C120.748 27.6928 120.595 26.8923 120.595 25.9593C120.595 24.9732 120.738 24.1463 121.024 23.4783C121.321 22.7998 121.74 22.2909 122.281 21.9516C122.832 21.6017 123.473 21.4268 124.205 21.4268ZM124.221 22.874C123.744 22.874 123.357 23.0489 123.06 23.3988C122.774 23.7487 122.609 24.2788 122.567 24.9891H125.811C125.811 24.5757 125.753 24.2099 125.636 23.8918C125.52 23.5737 125.345 23.3246 125.111 23.1443C124.878 22.9641 124.581 22.874 124.221 22.874Z" fill="#EDFCF7" fill-opacity="0.62"/>
    <path d="M119.823 18.8496L116.308 30.2047H114.13L110.631 18.8496H112.667L114.67 25.7835C114.734 25.985 114.798 26.2342 114.861 26.531C114.935 26.8279 115.004 27.13 115.068 27.4375C115.142 27.745 115.195 28.0153 115.227 28.2486C115.259 28.0153 115.306 27.745 115.37 27.4375C115.434 27.13 115.503 26.8279 115.577 26.531C115.651 26.2342 115.72 25.9797 115.784 25.7676L117.787 18.8496H119.823Z" fill="#EDFCF7" fill-opacity="0.62"/>
    <path d="M107.834 29.1875C107.834 28.7528 107.945 28.44 108.168 28.2492C108.391 28.0583 108.672 27.9629 109.011 27.9629C109.35 27.9629 109.631 28.0583 109.854 28.2492C110.076 28.44 110.188 28.7475 110.188 29.1716C110.188 29.5957 110.076 29.9084 109.854 30.1099C109.631 30.3007 109.35 30.3961 109.011 30.3961C108.672 30.3961 108.391 30.3007 108.168 30.1099C107.945 29.9084 107.834 29.601 107.834 29.1875Z" fill="#EDFCF7" fill-opacity="0.62"/>
    <path d="M106.263 24.384C106.263 25.6563 106.051 26.7272 105.627 27.5966C105.203 28.4553 104.583 29.1074 103.766 29.5527C102.961 29.9874 101.98 30.2047 100.824 30.2047H97.8662V18.8496H101.095C102.165 18.8496 103.083 19.0617 103.846 19.4858C104.62 19.9098 105.214 20.5301 105.627 21.3465C106.051 22.1628 106.263 23.1754 106.263 24.384ZM104.212 24.4636C104.212 23.5624 104.09 22.8202 103.846 22.2371C103.613 21.6539 103.263 21.2245 102.796 20.9489C102.33 20.6626 101.757 20.5195 101.079 20.5195H99.8382V28.5349H100.856C101.991 28.5349 102.833 28.1956 103.385 27.517C103.936 26.8279 104.212 25.8101 104.212 24.4636Z" fill="#EDFCF7" fill-opacity="0.62"/>
    <path d="M88.1208 21.4268C88.8524 21.4268 89.4726 21.5858 89.9816 21.9039C90.4905 22.2219 90.8775 22.6725 91.1425 23.2557C91.4182 23.8282 91.556 24.5173 91.556 25.3231V26.3569H86.451C86.4616 27.1732 86.6471 27.7935 87.0076 28.2176C87.3787 28.6417 87.9035 28.8537 88.582 28.8537C89.0592 28.8537 89.4938 28.8007 89.8861 28.6947C90.289 28.5886 90.7078 28.4243 91.1425 28.2017V29.7761C90.7502 29.9776 90.342 30.126 89.9179 30.2214C89.4938 30.3168 89.0008 30.3645 88.4389 30.3645C87.6225 30.3645 86.9175 30.1949 86.3237 29.8556C85.7406 29.5164 85.29 29.018 84.9719 28.3607C84.6645 27.6928 84.5107 26.8923 84.5107 25.9593C84.5107 24.9732 84.6539 24.1463 84.9401 23.4783C85.237 22.7998 85.6558 22.2909 86.1965 21.9516C86.7478 21.6017 87.3893 21.4268 88.1208 21.4268ZM88.1367 22.874C87.6596 22.874 87.2727 23.0489 86.9758 23.3988C86.6895 23.7487 86.5252 24.2788 86.4828 24.9891H89.7271C89.7271 24.5757 89.6688 24.2099 89.5522 23.8918C89.4355 23.5737 89.2606 23.3246 89.0273 23.1443C88.7941 22.9641 88.4972 22.874 88.1367 22.874Z" fill="#EDFCF7" fill-opacity="0.62"/>
    <path d="M82.8829 27.7239C82.8829 28.2964 82.7557 28.7788 82.5012 29.1711C82.2574 29.5634 81.8916 29.8602 81.4039 30.0617C80.9268 30.2631 80.3384 30.3638 79.6386 30.3638C79.1085 30.3638 78.642 30.3214 78.2391 30.2366C77.8362 30.1518 77.4545 30.0246 77.094 29.8549V28.1374C77.4545 28.3282 77.8627 28.4925 78.3186 28.6304C78.7851 28.7682 79.2251 28.8371 79.6386 28.8371C80.1051 28.8371 80.4444 28.7523 80.6564 28.5827C80.8791 28.413 80.9904 28.1851 80.9904 27.8988C80.9904 27.7186 80.948 27.5595 80.8632 27.4217C80.7783 27.2839 80.614 27.1407 80.3702 26.9923C80.1263 26.8333 79.7605 26.6477 79.2728 26.4357C78.7957 26.213 78.3928 25.9904 78.0641 25.7677C77.7461 25.5345 77.5022 25.2588 77.3326 24.9407C77.1629 24.6227 77.0781 24.2357 77.0781 23.7798C77.0781 23.027 77.3538 22.4439 77.9051 22.0304C78.467 21.6169 79.2092 21.4102 80.1316 21.4102C80.6193 21.4102 81.0752 21.4632 81.4993 21.5692C81.934 21.6752 82.3634 21.8396 82.7875 22.0622L82.1991 23.4935C81.9658 23.3769 81.7326 23.2762 81.4993 23.1914C81.2767 23.1065 81.0487 23.0429 80.8155 23.0005C80.5928 22.9475 80.3649 22.921 80.1316 22.921C79.7499 22.921 79.4584 22.9899 79.2569 23.1277C79.0555 23.2656 78.9547 23.4564 78.9547 23.7003C78.9547 23.8699 79.0025 24.0236 79.0979 24.1615C79.1933 24.2887 79.3629 24.4212 79.6068 24.5591C79.8612 24.6969 80.2164 24.8718 80.6723 25.0839C81.1282 25.2959 81.5205 25.5133 81.8492 25.7359C82.1779 25.9586 82.4323 26.2289 82.6126 26.547C82.7928 26.8545 82.8829 27.2468 82.8829 27.7239Z" fill="#EDFCF7" fill-opacity="0.62"/>
    <path d="M71.9385 21.4102C72.9457 21.4102 73.7038 21.6593 74.2127 22.1576C74.7322 22.6559 74.992 23.4087 74.992 24.4159V30.2048H73.6084L73.2585 29.0279H73.2108C72.9881 29.3248 72.7602 29.574 72.5269 29.7754C72.2937 29.9769 72.0233 30.1253 71.7159 30.2207C71.419 30.3161 71.0585 30.3638 70.6344 30.3638C70.1361 30.3638 69.7014 30.2578 69.3303 30.0458C68.9698 29.8337 68.6889 29.5316 68.4874 29.1393C68.2966 28.7364 68.2012 28.2593 68.2012 27.708C68.2012 26.8068 68.498 26.1335 69.0918 25.6882C69.6855 25.2323 70.5761 24.9832 71.7636 24.9407L73.0836 24.893V24.4636C73.0836 23.9123 72.9669 23.5147 72.7337 23.2709C72.511 23.027 72.1824 22.9051 71.7477 22.9051C71.3872 22.9051 71.0267 22.9634 70.6662 23.08C70.3057 23.1861 69.9453 23.3345 69.5848 23.5253L68.9804 22.1417C69.3939 21.9191 69.8498 21.7441 70.3481 21.6169C70.8571 21.4791 71.3872 21.4102 71.9385 21.4102ZM72.1771 26.1494C71.4455 26.1812 70.926 26.3296 70.6185 26.5947C70.311 26.8492 70.1573 27.2149 70.1573 27.6921C70.1573 28.1055 70.2633 28.4077 70.4754 28.5986C70.6874 28.7894 70.9631 28.8848 71.3024 28.8848C71.8113 28.8848 72.2354 28.7152 72.5746 28.3759C72.9139 28.026 73.0836 27.5277 73.0836 26.881V26.1176L72.1771 26.1494Z" fill="#EDFCF7" fill-opacity="0.62"/>
    <path d="M61.2017 21.0931C61.2017 21.3794 61.1911 21.6656 61.1699 21.9519C61.1593 22.2276 61.1434 22.4767 61.1222 22.6994H61.2017C61.4349 22.3177 61.7371 22.0102 62.1082 21.777C62.4793 21.5437 62.9405 21.4271 63.4918 21.4271C64.4248 21.4271 65.167 21.8088 65.7183 22.5721C66.2696 23.3249 66.5453 24.4275 66.5453 25.8801C66.5453 26.8449 66.418 27.6613 66.1636 28.3292C65.9091 28.9972 65.5539 29.5061 65.098 29.8559C64.6421 30.1952 64.0961 30.3649 63.46 30.3649C62.9087 30.3649 62.4527 30.2588 62.0923 30.0468C61.7424 29.8347 61.4455 29.5538 61.2017 29.2039H61.0744L60.7564 30.2058H59.2773V18.1191H61.2017V21.0931ZM62.9352 23.0174C62.5005 23.0174 62.1559 23.1182 61.9014 23.3196C61.647 23.521 61.4667 23.8232 61.3607 24.2261C61.2547 24.6184 61.2017 25.1061 61.2017 25.6892V25.9437C61.2017 26.8767 61.3289 27.5817 61.5834 28.0588C61.8484 28.536 62.3096 28.7745 62.967 28.7745C63.4865 28.7745 63.8841 28.5307 64.1597 28.0429C64.446 27.5446 64.5891 26.8184 64.5891 25.8642C64.5891 24.9206 64.446 24.2102 64.1597 23.7331C63.8841 23.256 63.4759 23.0174 62.9352 23.0174Z" fill="#EDFCF7" fill-opacity="0.62"/>
    <path d="M53.6902 21.4268C54.4217 21.4268 55.042 21.5858 55.5509 21.9039C56.0598 22.2219 56.4468 22.6725 56.7119 23.2557C56.9875 23.8282 57.1253 24.5173 57.1253 25.3231V26.3569H52.0203C52.0309 27.1732 52.2165 27.7935 52.5769 28.2176C52.948 28.6417 53.4728 28.8537 54.1514 28.8537C54.6285 28.8537 55.0632 28.8007 55.4555 28.6947C55.8584 28.5886 56.2772 28.4243 56.7119 28.2017V29.7761C56.3196 29.9776 55.9114 30.126 55.4873 30.2214C55.0632 30.3168 54.5702 30.3645 54.0082 30.3645C53.1919 30.3645 52.4868 30.1949 51.8931 29.8556C51.31 29.5164 50.8594 29.018 50.5413 28.3607C50.2338 27.6928 50.0801 26.8923 50.0801 25.9593C50.0801 24.9732 50.2232 24.1463 50.5095 23.4783C50.8063 22.7998 51.2251 22.2909 51.7659 21.9516C52.3172 21.6017 52.9586 21.4268 53.6902 21.4268ZM53.7061 22.874C53.229 22.874 52.842 23.0489 52.5451 23.3988C52.2589 23.7487 52.0945 24.2788 52.0521 24.9891H55.2964C55.2964 24.5757 55.2381 24.2099 55.1215 23.8918C55.0049 23.5737 54.8299 23.3246 54.5967 23.1443C54.3634 22.9641 54.0666 22.874 53.7061 22.874Z" fill="#EDFCF7" fill-opacity="0.62"/>
    <path d="M43.9285 18.8496C44.8615 18.8496 45.6302 18.9715 46.2345 19.2154C46.8388 19.4592 47.2894 19.825 47.5863 20.3127C47.8832 20.8004 48.0316 21.4154 48.0316 22.1575C48.0316 22.6771 47.9415 23.133 47.7612 23.5252C47.5916 23.9175 47.353 24.2515 47.0456 24.5272C46.7487 24.7922 46.4147 25.0149 46.0437 25.1951L48.954 30.2047H46.7434L44.3102 25.6881H42.9584V30.2047H40.9863V18.8496H43.9285ZM43.8331 20.5195H42.9584V24.0819H43.9126C44.3897 24.0819 44.782 24.013 45.0894 23.8751C45.4075 23.7373 45.6408 23.5305 45.7892 23.2549C45.9376 22.9792 46.0118 22.64 46.0118 22.2371C46.0118 21.8236 45.9323 21.4949 45.7733 21.251C45.6249 20.9966 45.3863 20.811 45.0576 20.6944C44.7396 20.5778 44.3314 20.5195 43.8331 20.5195Z" fill="#EDFCF7" fill-opacity="0.62"/>
    <path d="M9.07427 20.2446H3V36.3494C3 37.8209 4.19862 39.0107 5.67008 38.9999L24.2697 38.8632C29.1238 38.8275 33.04 34.8824 33.04 30.0281V17.9547C33.04 13.1068 29.1338 9.16443 24.2861 9.11975L11.3034 9.0001C10.0756 8.98878 9.07427 9.98097 9.07427 11.2088V14.9434H22.769C25.2088 14.9434 27.1866 16.9212 27.1866 19.361V28.4172C27.1866 30.857 25.2088 32.8349 22.769 32.8349H9.9578C9.46984 32.8349 9.07427 32.4393 9.07427 31.9513V20.2446Z" fill="#EDFCF7" fill-opacity="0.62"/>
    <path d="M17.565 18.4775C14.5256 18.4775 12.0562 20.9425 12.0562 23.9863C12.0562 27.0301 14.5212 29.4951 17.565 29.4951C20.6087 29.4951 23.0738 27.0301 23.0738 23.9863C23.0738 20.9425 20.6087 18.4775 17.565 18.4775ZM19.8931 24.4502C18.8638 24.4502 18.0333 23.6152 18.0333 22.5903C18.0333 21.5654 18.8682 20.7305 19.8931 20.7305C20.918 20.7305 21.7529 21.5654 21.7529 22.5903C21.7529 23.6152 20.9224 24.4502 19.8931 24.4502Z" fill="#EDFCF7" fill-opacity="0.62"/>
</svg>
