<svg width="180" height="48" viewBox="0 0 180 48" fill="none" xmlns="http://www.w3.org/2000/svg">
    <path d="M66.1782 6C70.5296 6 73.4183 8.79959 74.6981 11.3413L71.1512 13.441C69.7982 11.415 68.3356 10.2731 66.1782 10.2731C64.1305 10.2731 62.6678 11.4887 62.6678 13.1463C62.6678 14.7303 63.6185 15.6512 65.8125 16.4616L67.5677 17.1247C73.0161 19.0771 75.3929 21.4715 75.3929 25.1551C75.3929 30.1649 70.6759 32.7803 66.3244 32.7803C61.7536 32.7803 58.1701 30.0544 57 26.4444L60.6932 24.4921C61.6074 26.5549 63.326 28.3968 66.3244 28.3968C68.5916 28.3968 70.4199 27.2917 70.4199 25.2288C70.4199 23.1291 69.1035 22.2082 66.2513 21.1399L64.6058 20.5505C60.8029 19.1507 57.9142 17.2352 57.9142 12.9622C57.9142 8.91011 61.6074 6 66.1782 6ZM95.87 6.44204H100.66V32.2278H97.0037L83.6569 15.246V32.2278H78.8667V6.44204H82.5599L95.87 23.4606V6.44204ZM124.282 6.44204L111.777 28.0653H124.428V32.2278H104.134L116.64 10.5678H104.829V6.44204H124.282Z" fill="#EDFCF7" fill-opacity="0.62"/>
    <path d="M60.9026 41.0827C60.9676 41.0631 61.0261 41.0435 61.0716 41.0304L61.26 41.6586C61.2145 41.6717 61.1625 41.6848 61.104 41.7044C60.8442 41.7895 60.4544 41.9203 60.0386 41.9727C59.9087 41.9924 59.7853 41.9989 59.6683 41.9989C59.285 41.9989 58.9732 41.9139 58.7329 41.7372C58.3626 41.4688 58.1807 41.0173 58.1807 40.4021V39.2437C58.1807 38.6285 58.3626 38.177 58.7329 37.9087C59.0512 37.6796 59.4864 37.5946 60.0386 37.6731C60.4544 37.7254 60.8442 37.8563 61.104 37.9414C61.1625 37.961 61.2145 37.9741 61.26 37.9872L61.0716 38.6155C61.0261 38.6024 60.9676 38.5827 60.9026 38.5631C60.6688 38.4846 60.3115 38.3668 59.9542 38.321C59.5774 38.2686 59.2915 38.3079 59.1161 38.4388C58.9277 38.5762 58.8303 38.8511 58.8303 39.2437V40.4021C58.8303 40.7948 58.9277 41.0696 59.1161 41.2071C59.2915 41.338 59.5774 41.3772 59.9542 41.3249C60.3115 41.2791 60.6688 41.1612 60.9026 41.0827ZM65.0798 38.2948C65.3787 38.6678 65.5346 39.1848 65.5346 39.8328C65.5346 40.4806 65.3787 40.9977 65.0798 41.3707C64.9174 41.5736 64.7095 41.7241 64.4692 41.8288C64.2288 41.9336 63.956 41.986 63.6506 41.986C63.3453 41.986 63.0724 41.9336 62.8321 41.8288C62.5917 41.7241 62.3838 41.5736 62.2214 41.3707C61.9226 40.9977 61.7667 40.4806 61.7667 39.8328C61.7667 39.1848 61.9226 38.6678 62.2214 38.2948C62.3838 38.0919 62.5917 37.9349 62.8321 37.8301C63.0724 37.7254 63.3453 37.6731 63.6506 37.6731C63.956 37.6731 64.2288 37.7254 64.4692 37.8301C64.7095 37.9349 64.9174 38.0919 65.0798 38.2948ZM64.5796 40.9584C64.781 40.7097 64.8849 40.317 64.8849 39.8328C64.8849 39.3419 64.781 38.9558 64.5796 38.7071C64.3782 38.4584 64.0664 38.3275 63.6506 38.3275C63.2414 38.3275 62.9295 38.4584 62.7282 38.7071C62.5268 38.9558 62.4163 39.3419 62.4163 39.8328C62.4163 40.317 62.5268 40.7097 62.7282 40.9584C62.9295 41.2071 63.2414 41.3314 63.6506 41.3314C64.0664 41.3314 64.3782 41.2071 64.5796 40.9584ZM68.6853 37.7385H69.335V41.9268H68.6074L66.8273 38.8969V41.9268H66.1777V37.7385H66.535H66.5415H66.9053L68.6853 40.7751V37.7385ZM72.6806 37.7385H73.3302V41.9268H72.6027L70.8226 38.8969V41.9268H70.173V37.7385H70.5303H70.5368H70.9006L72.6806 40.7751V37.7385ZM74.8764 41.266H76.6369V41.9203H74.2268V37.7385H76.4875V38.393H74.8764V39.3615H76.3705V40.016H74.8764V41.266ZM79.9825 41.0827C80.0475 41.0631 80.106 41.0435 80.1515 41.0304L80.3398 41.6586C80.2943 41.6717 80.2424 41.6848 80.1839 41.7044C79.9241 41.7895 79.5343 41.9203 79.1185 41.9727C78.9886 41.9924 78.8651 41.9989 78.7482 41.9989C78.3649 41.9989 78.0531 41.9139 77.8127 41.7372C77.4424 41.4688 77.2606 41.0173 77.2606 40.4021V39.2437C77.2606 38.6285 77.4424 38.177 77.8127 37.9087C78.1311 37.6796 78.5663 37.5946 79.1185 37.6731C79.5343 37.7254 79.9241 37.8563 80.1839 37.9414C80.2424 37.961 80.2943 37.9741 80.3398 37.9872L80.1515 38.6155C80.106 38.6024 80.0475 38.5827 79.9825 38.5631C79.7487 38.4846 79.3914 38.3668 79.0341 38.321C78.6573 38.2686 78.3714 38.3079 78.196 38.4388C78.0076 38.5762 77.9102 38.8511 77.9102 39.2437V40.4021C77.9102 40.7948 78.0076 41.0696 78.196 41.2071C78.3714 41.338 78.6573 41.3772 79.0341 41.3249C79.3914 41.2791 79.7487 41.1612 79.9825 41.0827ZM83.5101 37.7385V38.393H82.4966V41.9268H81.847V38.393H80.84V37.7385H83.5101ZM88.5448 37.7385V38.393H87.5313V41.9268H86.8817V38.393H85.8748V37.7385H88.5448ZM92.2867 38.2948C92.5855 38.6678 92.7414 39.1848 92.7414 39.8328C92.7414 40.4806 92.5855 40.9977 92.2867 41.3707C92.1243 41.5736 91.9164 41.7241 91.676 41.8288C91.4357 41.9336 91.1628 41.986 90.8575 41.986C90.5522 41.986 90.2793 41.9336 90.0389 41.8288C89.7986 41.7241 89.5907 41.5736 89.4283 41.3707C89.1294 40.9977 88.9735 40.4806 88.9735 39.8328C88.9735 39.1848 89.1294 38.6678 89.4283 38.2948C89.5907 38.0919 89.7986 37.9349 90.0389 37.8301C90.2793 37.7254 90.5522 37.6731 90.8575 37.6731C91.1628 37.6731 91.4357 37.7254 91.676 37.8301C91.9164 37.9349 92.1243 38.0919 92.2867 38.2948ZM91.7865 40.9584C91.9878 40.7097 92.0918 40.317 92.0918 39.8328C92.0918 39.3419 91.9878 38.9558 91.7865 38.7071C91.5851 38.4584 91.2732 38.3275 90.8575 38.3275C90.4482 38.3275 90.1364 38.4584 89.935 38.7071C89.7336 38.9558 89.6232 39.3419 89.6232 39.8328C89.6232 40.317 89.7336 40.7097 89.935 40.9584C90.1364 41.2071 90.4482 41.3314 90.8575 41.3314C91.2732 41.3314 91.5851 41.2071 91.7865 40.9584ZM96.0349 41.266H97.7956V41.9203H95.3854V37.7385H97.6461V38.393H96.0349V39.3615H97.5291V40.016H96.0349V41.266ZM98.9649 41.9268H98.3089L98.7375 37.7385H99.8031L100.602 40.9649L101.401 37.7385H102.466L102.895 41.9268H102.239L101.888 38.4519L100.979 41.9268H100.225L99.3224 38.4519L98.9649 41.9268ZM106.3 38.1181C106.579 38.3733 106.735 38.7398 106.735 39.1325C106.735 39.5317 106.579 39.8916 106.3 40.1534C106.169 40.2712 106.02 40.3694 105.851 40.4348C105.689 40.4937 105.513 40.5264 105.338 40.5264H104.207V41.9268H103.558V37.7385H105.338C105.513 37.7385 105.689 37.7712 105.851 37.8367C106.02 37.9021 106.169 37.9938 106.3 38.1181ZM105.338 39.872C105.695 39.872 106.085 39.6168 106.085 39.1325C106.085 38.6482 105.695 38.393 105.338 38.393H104.207V39.872H105.338ZM110.496 38.2948C110.795 38.6678 110.951 39.1848 110.951 39.8328C110.951 40.4806 110.795 40.9977 110.496 41.3707C110.334 41.5736 110.126 41.7241 109.885 41.8288C109.645 41.9336 109.372 41.986 109.067 41.986C108.761 41.986 108.489 41.9336 108.248 41.8288C108.008 41.7241 107.8 41.5736 107.638 41.3707C107.339 40.9977 107.183 40.4806 107.183 39.8328C107.183 39.1848 107.339 38.6678 107.638 38.2948C107.8 38.0919 108.008 37.9349 108.248 37.8301C108.489 37.7254 108.761 37.6731 109.067 37.6731C109.372 37.6731 109.645 37.7254 109.885 37.8301C110.126 37.9349 110.334 38.0919 110.496 38.2948ZM109.996 40.9584C110.197 40.7097 110.301 40.317 110.301 39.8328C110.301 39.3419 110.197 38.9558 109.996 38.7071C109.794 38.4584 109.483 38.3275 109.067 38.3275C108.658 38.3275 108.346 38.4584 108.144 38.7071C107.943 38.9558 107.832 39.3419 107.832 39.8328C107.832 40.317 107.943 40.7097 108.144 40.9584C108.346 41.2071 108.658 41.3314 109.067 41.3314C109.483 41.3314 109.794 41.2071 109.996 40.9584ZM115.96 37.7451H116.616C116.648 38.2686 116.596 38.7922 116.466 39.3354C116.31 39.9571 116.077 40.4937 115.869 40.9649C115.713 41.3314 115.57 41.6521 115.505 41.9268H114.628C114.569 41.6652 114.472 41.3576 114.362 41.0042C114.251 40.6508 114.134 40.2647 114.024 39.8458C113.913 40.2908 113.783 40.6901 113.666 41.0565C113.562 41.3903 113.465 41.6782 113.406 41.9268H112.549C112.477 41.6521 112.341 41.3314 112.179 40.9649C111.971 40.4937 111.737 39.9571 111.588 39.3354C111.451 38.7922 111.399 38.2686 111.432 37.7451H112.088C112.003 38.9361 112.425 39.9047 112.776 40.7032C112.841 40.8536 112.9 40.9911 112.958 41.1351C112.984 41.0435 113.017 40.9518 113.049 40.8536C113.322 40.0029 113.653 38.9623 113.692 37.7451H114.349C114.387 38.8969 114.719 39.9505 114.985 40.8078C115.017 40.9257 115.057 41.0369 115.089 41.1416C115.147 40.9977 115.206 40.8536 115.278 40.7032C115.622 39.9047 116.05 38.9361 115.96 37.7451ZM117.993 41.266H119.753V41.9203H117.343V37.7385H119.604V38.393H117.993V39.3615H119.487V40.016H117.993V41.266ZM122.885 41.9268C122.859 41.3379 122.488 40.9715 121.956 40.5264H121.059V41.9268H120.41V37.7451H120.858H121.059H122.19C122.372 37.7451 122.54 37.7778 122.709 37.8367C122.872 37.9021 123.027 38.0003 123.151 38.1181C123.43 38.3799 123.586 38.7398 123.586 39.1325C123.586 39.5317 123.43 39.8916 123.151 40.1469C123.047 40.2516 122.923 40.3301 122.794 40.3956C122.904 40.5068 123.008 40.6181 123.106 40.749C123.378 41.1023 123.515 41.4819 123.534 41.9006V41.9268H122.885ZM121.059 39.872H122.19C122.553 39.872 122.937 39.6102 122.937 39.1325C122.937 38.6547 122.553 38.3995 122.19 38.3995H121.059V39.872Z" fill="#EDFCF7" fill-opacity="0.62"/>
</svg>
