<svg width="180" height="48" viewBox="0 0 180 48" fill="none" xmlns="http://www.w3.org/2000/svg">
    <path fill-rule="evenodd" clip-rule="evenodd" d="M4.5 24C4.5 34.7697 13.2303 43.5 24 43.5C34.7696 43.5 43.5006 34.7697 43.5006 24C43.5006 13.2303 34.7696 4.5 24 4.5C13.2303 4.5 4.5 13.2303 4.5 24Z" fill="#EDFCF7" fill-opacity="0.2"/>
    <path fill-rule="evenodd" clip-rule="evenodd" d="M15.3981 19.4056L15.8795 17.9184C15.9773 17.616 16.216 17.3806 16.5196 17.2878L18.014 16.8282C18.2209 16.765 18.2226 16.4732 18.0173 16.4067L16.5297 15.9254C16.2277 15.8275 15.9924 15.5888 15.8991 15.2852L15.44 13.7907C15.3769 13.5844 15.085 13.5821 15.0184 13.788L14.5371 15.2751C14.4393 15.577 14.2005 15.8123 13.8969 15.9058L12.4025 16.3648C12.1956 16.4285 12.1934 16.7198 12.3991 16.7863L13.8869 17.2676C14.1888 17.3655 14.4242 17.6048 14.5175 17.9084L14.9765 19.4022C15.0397 19.6091 15.3315 19.6113 15.3981 19.4056Z" fill="#EDFCF7" fill-opacity="0.62"/>
    <path fill-rule="evenodd" clip-rule="evenodd" d="M39.0199 18.54C38.358 16.8698 37.1276 15.464 35.4761 14.4266C33.8346 13.4006 31.5546 12.877 29.2955 13.3234C28.1794 13.5392 27.0981 13.9548 26.1491 14.5082C25.2046 15.0595 24.3581 15.7229 23.6254 16.4349C23.2595 16.7919 22.9274 17.1645 22.5976 17.5392L21.7425 18.6292L20.422 20.3839C18.7385 22.6416 16.9255 25.2875 13.9505 26.0715C11.0298 26.8412 9.76304 26.1595 7.98047 25.878C8.3064 26.7195 8.71015 27.5366 9.25749 28.2556C9.79464 28.9891 10.4291 29.678 11.2179 30.2685C11.6165 30.5521 12.0374 30.832 12.5048 31.0694C12.9701 31.2989 13.4719 31.5007 14.0075 31.6527C15.0728 31.9447 16.2722 32.047 17.4335 31.8899C18.5954 31.7349 19.706 31.3667 20.6767 30.8777C21.6545 30.3933 22.5063 29.8034 23.2669 29.1808C24.779 27.9252 25.9551 26.5377 26.9485 25.1353C27.4482 24.4342 27.9018 23.7197 28.3213 23.0051L28.8151 22.1544C28.966 21.9057 29.1187 21.6555 29.2738 21.4225C29.8994 20.4862 30.5113 19.7355 31.2545 19.172C31.9875 18.5939 33.0081 18.1669 34.3719 18.0676C35.7301 17.9673 37.298 18.1527 39.0199 18.54Z" fill="#EDFCF7" fill-opacity="0.62"/>
    <path d="M7.9805 25.8788C8.3064 26.7201 8.71009 27.5371 9.25732 28.2559C9.79446 28.9894 10.4289 29.6783 11.2177 30.2688C11.6163 30.5524 12.0372 30.8323 12.5046 31.0697C12.9699 31.2991 13.4717 31.501 14.0073 31.653C15.0727 31.945 16.272 32.0473 17.4333 31.8902C18.5952 31.7352 19.7058 31.367 20.6765 30.8779C21.6543 30.3936 22.5062 29.8037 23.2668 29.181C24.7788 27.9254 25.9549 26.538 26.9484 25.1356C27.448 24.4345 27.9016 23.72 28.3212 23.0054L28.8149 22.1547C28.9658 21.906 29.1185 21.6558 29.2736 21.4228C29.8992 20.4865 30.5111 19.7357 31.2544 19.1723C31.9874 18.5942 33.0079 18.1672 34.3717 18.0679C35.7297 17.9676 37.2974 18.153 39.019 18.5401C39.0192 18.5403 39.0189 18.5399 39.019 18.5401C38.5799 18.6721 38.2238 18.8433 37.8861 19.0613C37.5534 19.2634 37.253 19.4878 36.9749 19.7171C36.4175 20.1867 35.9455 20.6755 35.4977 21.1865C34.6538 22.1421 33.9216 23.1751 33.1858 24.2132C33.1458 24.2695 33.1058 24.3259 33.0659 24.3823C32.8688 24.6423 32.6796 24.9217 32.4899 25.2018C32.2984 25.4847 32.1064 25.7682 31.9053 26.0333L31.3296 26.8863C31.1212 27.1835 30.9689 27.3964 30.681 27.7767C29.6381 29.1532 28.4011 30.4774 26.8721 31.6398C25.347 32.7904 23.4602 33.7854 21.3101 34.1991C19.1657 34.6304 16.8723 34.3446 15.0474 33.5483C13.1957 32.7693 11.7543 31.5848 10.5999 30.2852C9.45896 28.9627 8.57064 27.516 7.9805 25.8788C7.98062 25.8788 7.98038 25.8788 7.9805 25.8788Z" fill="#EDFCF7" fill-opacity="0.4"/>
    <path fill-rule="evenodd" clip-rule="evenodd" d="M31.6709 32.4159C31.6709 33.6425 32.6658 34.6374 33.8924 34.6374C35.1191 34.6374 36.1128 33.6425 36.1128 32.4159C36.1128 31.1892 35.1191 30.1943 33.8924 30.1943C32.6658 30.1943 31.6709 31.1892 31.6709 32.4159Z" fill="#EDFCF7" fill-opacity="0.4"/>
    <path d="M54.656 31.0545C55.3052 31.8334 56.1245 32.4327 57.1089 32.8523C58.1019 33.2721 59.2115 33.48 60.4347 33.48C61.3303 33.48 62.173 33.3641 62.9617 33.1308C63.7503 32.9055 64.4464 32.5741 65.0478 32.1354L65.0492 32.1343C65.654 31.6849 66.1255 31.1277 66.4613 30.4644C66.8073 29.7969 66.9776 29.0391 66.9776 28.196C66.9776 27.3571 66.8246 26.6462 66.5052 26.0745C66.1944 25.5103 65.7987 25.0551 65.3169 24.7144C64.8489 24.3755 64.3627 24.1118 63.8584 23.9247C63.3766 23.7431 62.9475 23.6 62.5719 23.496L59.3482 22.5666C58.9412 22.4513 58.5215 22.3052 58.0894 22.1277C57.6818 21.9496 57.3409 21.7141 57.0635 21.4224C56.8066 21.1447 56.6709 20.7773 56.6709 20.3011C56.6709 19.8216 56.8199 19.4042 57.1192 19.0408L57.1204 19.0393C57.4254 18.6616 57.8392 18.3627 58.3694 18.1462C58.8981 17.9302 59.4945 17.8241 60.1619 17.8317C60.8579 17.8393 61.4928 17.9752 62.0692 18.2372L62.0711 18.238C62.6463 18.492 63.1219 18.8566 63.501 19.3324L63.5032 19.3351C63.8867 19.7997 64.136 20.3586 64.2483 21.0174C64.2573 21.0702 64.287 21.1172 64.3307 21.148C64.3744 21.1789 64.4287 21.1911 64.4814 21.1819L66.7051 20.7936C66.7584 20.7843 66.8058 20.7538 66.8365 20.7092C66.8671 20.6644 66.8784 20.6093 66.8679 20.5561C66.6583 19.5002 66.2458 18.5871 65.6272 17.8219C65.0178 17.0584 64.2462 16.4742 63.3161 16.0696C62.393 15.6568 61.3493 15.4487 60.189 15.4407C59.0442 15.4327 58.0087 15.6209 57.0856 16.0094C56.1612 16.3986 55.4209 16.9656 54.8719 17.7113C54.3252 18.4567 54.0563 19.355 54.0563 20.3953C54.0563 21.0442 54.1618 21.6182 54.3793 22.1119C54.5935 22.5896 54.8839 23.0053 55.2487 23.3535L55.2499 23.3546C55.6097 23.6899 56.0179 23.9713 56.4737 24.1992L56.4751 24.1999C56.924 24.4163 57.39 24.5972 57.8707 24.7414L62.1919 26.0248C62.4872 26.1081 62.771 26.214 63.043 26.3425C63.309 26.4681 63.5436 26.6224 63.7479 26.8048L63.7537 26.8098C63.9571 26.9782 64.1152 27.1849 64.2284 27.4325L64.2314 27.4388C64.3475 27.6713 64.4101 27.9604 64.4101 28.3136C64.4101 28.8826 64.2436 29.3667 63.9136 29.7756C63.5781 30.1913 63.1186 30.5174 62.5265 30.7497C61.9413 30.9748 61.2803 31.089 60.5406 31.089C59.4001 31.089 58.4175 30.8008 57.5843 30.2306C56.7632 29.6556 56.2217 28.8621 55.9586 27.8399C55.9327 27.7394 55.8348 27.6751 55.7323 27.6913L53.5675 28.0324C53.5139 28.0409 53.466 28.0705 53.4347 28.1148C53.4033 28.159 53.391 28.2139 53.4007 28.2673C53.5946 29.3335 54.0123 30.2642 54.6551 31.0533L54.656 31.0545Z" fill="#EDFCF7" fill-opacity="0.62"/>
    <path fill-rule="evenodd" clip-rule="evenodd" d="M99.6214 16.0155C99.5325 16.0155 99.4604 16.0876 99.4604 16.1765V32.9072C99.4604 32.9962 99.5325 33.0682 99.6215 33.0682H101.921V26.9169H105.281C105.659 27.3694 106.028 27.8429 106.386 28.3373L106.388 28.3392L106.389 28.341C106.977 29.1121 107.52 29.9162 108.019 30.7539C108.471 31.4951 108.867 32.229 109.203 32.952L109.258 33.0683H111.979C112.096 33.0683 112.173 32.9482 112.125 32.842C111.812 32.1562 111.473 31.4846 111.097 30.8304C110.584 29.916 110.023 29.0109 109.412 28.1147C109.063 27.6027 108.706 27.1051 108.341 26.6223C109.357 26.312 110.16 25.7508 110.741 24.9362C111.438 23.9504 111.784 22.7904 111.784 21.4661C111.784 20.5561 111.626 19.7235 111.306 18.9712C110.984 18.2079 110.501 17.5749 109.856 17.0755C109.217 16.5734 108.429 16.254 107.5 16.1106C107.283 16.0708 107.06 16.0469 106.829 16.0388C106.605 16.0233 106.408 16.0154 106.241 16.0154L104.122 16.0152C102.622 16.0151 101.122 16.015 99.6214 16.0155ZM109.277 21.4661C109.277 21.9056 109.204 22.3382 109.057 22.7644C108.914 23.1738 108.683 23.5327 108.367 23.8428C108.066 24.1364 107.669 24.3447 107.167 24.4612C107.008 24.4974 106.837 24.523 106.653 24.5378C106.472 24.5529 106.311 24.5602 106.172 24.5602H101.921V18.3721H106.172C106.311 18.3721 106.471 18.3795 106.652 18.3945L106.656 18.3949L106.66 18.3951C106.84 18.4022 107.005 18.4271 107.16 18.4691L107.164 18.4704L107.169 18.4715C107.669 18.5803 108.065 18.7878 108.365 19.0878L108.367 19.0895C108.683 19.399 108.913 19.7615 109.057 20.1789C109.204 20.597 109.277 21.0265 109.277 21.4661Z" fill="#EDFCF7" fill-opacity="0.62"/>
    <path d="M127.663 16.4118L127.601 16.4791C127.108 17.0199 126.552 17.624 125.932 18.2915L125.93 18.2932C125.31 18.9453 124.658 19.6211 123.974 20.3206C123.307 21.0043 122.639 21.68 121.972 22.3478C121.368 22.9504 120.798 23.5144 120.26 24.0396C120.892 24.4955 121.556 25.0423 122.251 25.6789C123.018 26.382 123.769 27.1327 124.503 27.931C125.237 28.7291 125.924 29.5435 126.563 30.3742C127.219 31.2059 127.764 32.0001 128.199 32.7566L128.233 32.8168C128.296 32.9243 128.218 33.0581 128.094 33.0581H125.198L125.139 32.9651C124.667 32.2262 124.124 31.4862 123.509 30.7454L123.507 30.7439C122.893 29.9873 122.239 29.2702 121.546 28.5924L121.544 28.5909L121.542 28.5892C120.864 27.8951 120.17 27.2568 119.461 26.6738L119.459 26.6725C118.874 26.1803 118.302 25.751 117.741 25.3841V33.0581H115.188C115.099 33.0581 115.027 32.986 115.027 32.8971V16.3032C115.027 16.2143 115.099 16.1423 115.188 16.1423H117.741V23.1673C118.202 22.7285 118.7 22.249 119.233 21.7286C119.9 21.0623 120.558 20.3959 121.208 19.7296C121.859 19.063 122.47 18.4283 123.041 17.8253C123.627 17.2073 124.118 16.6697 124.513 16.2121L124.572 16.1423H127.544C127.683 16.1423 127.757 16.3084 127.663 16.4118Z" fill="#EDFCF7" fill-opacity="0.62"/>
    <path d="M142.226 32.9597L142.285 33.0581H144.369C144.459 33.0581 144.53 32.986 144.53 32.8971V16.3032C144.53 16.2143 144.459 16.1423 144.369 16.1423H141.865V27.8574C141.43 27.1649 140.925 26.4027 140.35 25.5707C139.617 24.4881 138.83 23.3897 137.986 22.2758C137.158 21.146 136.315 20.0558 135.455 19.0054C134.611 17.938 133.813 17.0047 133.062 16.2056L133.003 16.1423H131.04C130.952 16.1423 130.879 16.2143 130.879 16.3032V32.8971C130.879 32.986 130.952 33.0581 131.04 33.0581H133.546V20.5081C133.888 20.9127 134.253 21.361 134.64 21.8532C135.163 22.5183 135.701 23.2312 136.255 23.992C136.81 24.7364 137.366 25.5144 137.921 26.3225L137.922 26.3247C138.493 27.1332 139.039 27.9337 139.563 28.7262L139.564 28.7278C140.086 29.5039 140.569 30.2558 141.013 30.9837L141.014 30.9864C141.474 31.716 141.878 32.3738 142.226 32.9597Z" fill="#EDFCF7" fill-opacity="0.62"/>
    <path d="M148.303 16.3032C148.303 16.2143 148.375 16.1423 148.463 16.1423H158.624C158.713 16.1423 158.785 16.2143 158.785 16.3032V18.5226H151.017V23.0287H157.927V25.3615H151.017V30.6778H159.381V32.8971C159.381 32.986 159.308 33.0581 159.22 33.0581H148.463C148.375 33.0581 148.303 32.986 148.303 32.8971V16.3032Z" fill="#EDFCF7" fill-opacity="0.62"/>
    <path d="M174.925 16.3032V18.5464H169.73V33.0581H167.016V18.5464H161.821V16.3032C161.821 16.2143 161.893 16.1423 161.983 16.1423H174.764C174.853 16.1423 174.925 16.2143 174.925 16.3032Z" fill="#EDFCF7" fill-opacity="0.62"/>
    <path fill-rule="evenodd" clip-rule="evenodd" d="M93.423 30.8249C93.1851 30.127 92.9392 29.4211 92.6854 28.7073L92.1154 27.0787C91.8205 27.2282 91.5211 27.3895 91.217 27.5625L91.2151 27.5636C90.3706 28.032 89.5314 28.5607 88.6976 29.1498L88.6957 29.1511L88.6938 29.1525C87.8473 29.7218 87.0341 30.3394 86.2541 31.0055L86.2525 31.0068C85.4755 31.6565 84.7729 32.3189 84.1442 32.9939L84.0844 33.0579L84.0334 33.0581H81.4272C81.3154 33.0581 81.2377 32.9471 81.2759 32.8421C81.8706 31.2082 82.4709 29.5763 83.0833 27.949C83.6396 26.4548 84.1801 25.04 84.7048 23.7045L84.7056 23.7026C85.2462 22.3669 85.779 21.0946 86.3039 19.8858C86.8307 18.6566 87.3849 17.4397 87.9624 16.2336C87.9892 16.1778 88.0456 16.1423 88.1075 16.1423H90.279C90.3409 16.1423 90.3973 16.1778 90.4241 16.2336C91.0015 17.4397 91.5558 18.6566 92.0826 19.8857C92.6077 21.095 93.1326 22.3676 93.6575 23.7036C94.1983 25.0395 94.7468 26.4547 95.3032 27.9491C95.9156 29.5764 96.5159 31.2082 97.1106 32.8421C97.1488 32.9471 97.071 33.0581 96.9593 33.0581H94.2369L94.1877 32.928C93.9171 32.2115 93.6618 31.5097 93.423 30.8249ZM90.4943 22.8008C90.0584 21.648 89.604 20.5391 89.131 19.4742C88.6437 20.5396 88.175 21.6489 87.725 22.8022C87.2355 24.081 86.7461 25.4071 86.2565 26.7804L85.8866 27.8371C86.7604 27.1839 87.6412 26.579 88.5291 26.022C89.4566 25.4404 90.3239 24.9652 91.1308 24.5978L91.1524 24.588L91.1833 24.5743C90.954 23.9742 90.7246 23.3841 90.4953 22.8036L90.4943 22.8008Z" fill="#EDFCF7" fill-opacity="0.62"/>
    <path d="M81.9399 18.5464V16.3032C81.9399 16.2143 81.8677 16.1423 81.7788 16.1423H68.9976C68.9087 16.1423 68.8365 16.2143 68.8365 16.3032V18.5464H74.0312V32.8971C74.0312 32.986 74.1033 33.0581 74.1922 33.0581H76.5842C76.6731 33.0581 76.7452 32.986 76.7452 32.8971V18.5464H81.9399Z" fill="#EDFCF7" fill-opacity="0.62"/>
</svg>
