<svg width="180" height="48" viewBox="0 0 180 48" fill="none" xmlns="http://www.w3.org/2000/svg">
    <path d="M115.18 33.775C113.76 33.8079 112.349 33.5511 111.031 33.0202C109.714 32.4893 108.519 31.6954 107.519 30.687C106.519 29.6787 105.734 28.477 105.214 27.1554C104.694 25.8339 104.449 24.4201 104.493 23.0006C104.457 21.5902 104.707 20.1871 105.229 18.8764C105.751 17.5657 106.534 16.3748 107.531 15.376C108.524 14.3603 109.716 13.5607 111.032 13.0273C112.348 12.4939 113.761 12.2382 115.18 12.2761C116.602 12.2411 118.014 12.5249 119.311 13.1067C120.609 13.6886 121.76 14.5536 122.68 15.6385L120.843 17.4759C120.169 16.6239 119.307 15.9392 118.325 15.4752C117.343 15.0112 116.266 14.7805 115.18 14.801C114.122 14.7752 113.069 14.9658 112.087 15.3613C111.105 15.7568 110.213 16.3487 109.468 17.1009C108.707 17.8772 108.112 18.8011 107.721 19.8156C107.33 20.8302 107.15 21.914 107.193 23.0006C107.147 24.0912 107.325 25.1798 107.716 26.1989C108.107 27.2181 108.704 28.146 109.468 28.9252C110.212 29.6798 111.102 30.2733 112.085 30.669C113.068 31.0646 114.121 31.2539 115.18 31.2251C116.382 31.2193 117.567 30.9446 118.648 30.4212C119.729 29.8977 120.68 29.1389 121.43 28.2003L123.355 30.0752C122.381 31.2399 121.154 32.1675 119.768 32.7875C118.329 33.4477 116.763 33.7848 115.18 33.775ZM128.142 12.7386V33.325H125.492V12.7386H128.142ZM130.417 26.2754C130.388 25.2887 130.554 24.306 130.906 23.3837C131.258 22.4614 131.788 21.6176 132.467 20.9007C133.138 20.2048 133.948 19.6564 134.843 19.2906C135.738 18.9247 136.7 18.7494 137.667 18.7758C138.63 18.7483 139.588 18.9232 140.479 19.2892C141.371 19.6552 142.175 20.2042 142.841 20.9007C143.527 21.6133 144.062 22.4561 144.417 23.3792C144.771 24.3024 144.936 25.2871 144.904 26.2754C144.94 27.264 144.776 28.2498 144.422 29.1734C144.067 30.0971 143.53 30.9395 142.841 31.6501C142.177 32.3491 141.373 32.8998 140.481 33.266C139.589 33.6322 138.63 33.8056 137.667 33.775C136.699 33.8045 135.737 33.6306 134.841 33.2645C133.945 32.8985 133.137 32.3485 132.467 31.6501C131.788 30.9332 131.258 30.0894 130.906 29.1671C130.554 28.2448 130.388 27.2621 130.417 26.2754ZM133.067 26.2754C133.006 27.6272 133.482 28.9482 134.392 29.9502C134.812 30.3966 135.32 30.7523 135.883 30.9954C136.446 31.2385 137.053 31.3639 137.667 31.3639C138.28 31.3639 138.887 31.2385 139.45 30.9954C140.013 30.7523 140.521 30.3966 140.941 29.9502C141.851 28.9482 142.327 27.6272 142.266 26.2754C142.325 24.9315 141.848 23.6192 140.941 22.6256C140.525 22.1725 140.018 21.8109 139.455 21.5635C138.891 21.3162 138.282 21.1884 137.667 21.1884C137.051 21.1884 136.442 21.3162 135.878 21.5635C135.315 21.8109 134.809 22.1725 134.392 22.6256C133.485 23.6192 133.009 24.9315 133.067 26.2754ZM159.528 33.325H157.028V31.3626H156.903C156.456 32.0962 155.816 32.6929 155.053 33.0875C154.26 33.5369 153.365 33.7737 152.453 33.775C151.722 33.8223 150.99 33.7155 150.303 33.4614C149.616 33.2073 148.99 32.8116 148.466 32.3C147.476 31.1285 146.978 29.6185 147.079 28.0878V19.2508H149.716V27.9253C149.661 28.3949 149.713 28.8709 149.87 29.3172C150.026 29.7634 150.282 30.1682 150.618 30.5007C150.954 30.8332 151.362 31.0848 151.81 31.2363C152.258 31.3878 152.734 31.4353 153.203 31.3751C153.709 31.3839 154.211 31.2757 154.668 31.0589C155.126 30.8421 155.527 30.5225 155.841 30.1252C156.554 29.2665 156.931 28.1785 156.903 27.0628V19.2508H159.553L159.528 33.325ZM168.477 33.775C167.578 33.7748 166.689 33.5803 165.871 33.205C165.054 32.8296 164.327 32.2822 163.74 31.6001C162.427 30.1402 161.713 28.2387 161.74 26.2754C161.697 24.3222 162.394 22.4248 163.69 20.9632C164.272 20.2749 164.998 19.7224 165.816 19.3445C166.635 18.9666 167.526 18.7725 168.427 18.7758C169.413 18.7591 170.388 18.9867 171.265 19.4383C172.068 19.8342 172.75 20.4385 173.24 21.1882H173.352L173.29 19.2508V12.7386H175.927V33.325H173.427V31.3626H173.315C172.825 32.1122 172.143 32.7166 171.34 33.1125C170.456 33.5681 169.472 33.7958 168.477 33.775ZM168.915 31.3626C169.518 31.3821 170.118 31.2652 170.67 31.0207C171.222 30.7761 171.711 30.4102 172.102 29.9502C172.976 28.9318 173.424 27.6155 173.352 26.2754C173.413 24.9444 172.966 23.6401 172.102 22.6256C171.713 22.1624 171.224 21.7927 170.672 21.5439C170.121 21.2951 169.52 21.1735 168.915 21.1882C168.311 21.1788 167.712 21.3028 167.161 21.5512C166.61 21.7997 166.121 22.1665 165.728 22.6256C164.864 23.6401 164.417 24.9444 164.478 26.2754C164.408 27.6076 164.856 28.9152 165.728 29.9252C166.121 30.3842 166.61 30.7511 167.161 30.9995C167.712 31.2479 168.311 31.3719 168.915 31.3626Z" fill="#E9FDF3" fill-opacity="0.44"/>
    <path d="M14.8618 33.7753C11.7516 33.7855 8.76249 32.5699 6.54222 30.3917C4.32195 28.2136 3.0493 25.2483 3 22.1384C3.0493 19.0285 4.32195 16.0632 6.54222 13.8851C8.76249 11.7069 11.7516 10.4913 14.8618 10.5015C16.3439 10.4769 17.816 10.7483 19.1918 11.2999C20.5676 11.8515 21.8194 12.6722 22.8739 13.7139L20.6115 15.9512C19.069 14.4659 17.0031 13.6486 14.8618 13.6764C13.7532 13.673 12.6549 13.8901 11.6309 14.3151C10.6069 14.7401 9.6776 15.3644 8.89713 16.1519C8.11667 16.9393 7.50059 17.8741 7.08473 18.9019C6.66887 19.9296 6.46155 21.0298 6.47481 22.1384C6.46155 23.247 6.66887 24.3472 7.08473 25.3749C7.50059 26.4027 8.11667 27.3375 8.89713 28.1249C9.6776 28.9124 10.6069 29.5367 11.6309 29.9617C12.6549 30.3867 13.7532 30.6038 14.8618 30.6004C15.954 30.6453 17.0435 30.4604 18.0597 30.0578C19.076 29.6552 19.9964 29.0437 20.7615 28.2631C21.7814 27.163 22.3945 25.7473 22.4989 24.2508H14.8618V21.0885H25.6113C25.7285 21.7442 25.7829 22.4097 25.7737 23.0759C25.8584 25.8189 24.8618 28.4853 22.9989 30.5004C21.9505 31.5896 20.6834 32.4445 19.2809 33.0089C17.8785 33.5733 16.3724 33.8345 14.8618 33.7753Z" fill="#EDFCF7" fill-opacity="0.62"/>
    <path d="M42.3976 26.2751C42.4387 27.2749 42.2772 28.2727 41.9229 29.2085C41.5686 30.1443 41.0288 30.9989 40.3359 31.7208C39.643 32.4427 38.8113 33.0172 37.8908 33.4096C36.9703 33.8019 35.9799 34.0042 34.9793 34.0042C33.9786 34.0042 32.9883 33.8019 32.0678 33.4096C31.1473 33.0172 30.3156 32.4427 29.6227 31.7208C28.9298 30.9989 28.39 30.1443 28.0357 29.2085C27.6814 28.2727 27.5199 27.2749 27.5609 26.2751C27.5199 25.2752 27.6814 24.2775 28.0357 23.3416C28.39 22.4058 28.9298 21.5513 29.6227 20.8293C30.3156 20.1074 31.1473 19.533 32.0678 19.1406C32.9883 18.7482 33.9786 18.5459 34.9793 18.5459C35.9799 18.5459 36.9703 18.7482 37.8908 19.1406C38.8113 19.533 39.643 20.1074 40.3359 20.8293C41.0288 21.5513 41.5686 22.4058 41.9229 23.3416C42.2772 24.2775 42.4387 25.2752 42.3976 26.2751ZM39.1478 26.2751C39.2029 25.6944 39.1362 25.1087 38.9517 24.5553C38.7673 24.002 38.4693 23.4933 38.0769 23.0618C37.6845 22.6303 37.2062 22.2856 36.6728 22.0497C36.1394 21.8138 35.5625 21.692 34.9793 21.692C34.396 21.692 33.8192 21.8138 33.2858 22.0497C32.7524 22.2856 32.2741 22.6303 31.8817 23.0618C31.4892 23.4933 31.1912 24.002 31.0068 24.5553C30.8224 25.1087 30.7556 25.6944 30.8108 26.2751C30.7556 26.8557 30.8224 27.4415 31.0068 27.9948C31.1912 28.5481 31.4892 29.0568 31.8817 29.4883C32.2741 29.9198 32.7524 30.2645 33.2858 30.5004C33.8192 30.7363 34.396 30.8581 34.9793 30.8581C35.5625 30.8581 36.1394 30.7363 36.6728 30.5004C37.2062 30.2645 37.6845 29.9198 38.0769 29.4883C38.4693 29.0568 38.7673 28.5481 38.9517 27.9948C39.1362 27.4415 39.2029 26.8557 39.1478 26.2751Z" fill="#EDFCF7" fill-opacity="0.62"/>
    <path d="M59.0343 26.2751C59.0754 27.2749 58.9139 28.2727 58.5596 29.2085C58.2053 30.1443 57.6655 30.9989 56.9726 31.7208C56.2797 32.4427 55.448 33.0172 54.5275 33.4096C53.607 33.8019 52.6167 34.0042 51.616 34.0042C50.6153 34.0042 49.625 33.8019 48.7045 33.4096C47.784 33.0172 46.9523 32.4427 46.2594 31.7208C45.5665 30.9989 45.0267 30.1443 44.6724 29.2085C44.3181 28.2727 44.1566 27.2749 44.1977 26.2751C44.1566 25.2752 44.3181 24.2775 44.6724 23.3416C45.0267 22.4058 45.5665 21.5513 46.2594 20.8293C46.9523 20.1074 47.784 19.533 48.7045 19.1406C49.625 18.7482 50.6153 18.5459 51.616 18.5459C52.6167 18.5459 53.607 18.7482 54.5275 19.1406C55.448 19.533 56.2797 20.1074 56.9726 20.8293C57.6655 21.5513 58.2053 22.4058 58.5596 23.3416C58.9139 24.2775 59.0754 25.2752 59.0343 26.2751ZM55.7845 26.2751C55.8291 25.6997 55.7542 25.1213 55.5646 24.5762C55.375 24.0311 55.0748 23.5311 54.6828 23.1075C54.2908 22.684 53.8154 22.346 53.2866 22.1149C52.7578 21.8838 52.1869 21.7645 51.6097 21.7645C51.0326 21.7645 50.4617 21.8838 49.9329 22.1149C49.4041 22.346 48.9287 22.684 48.5367 23.1075C48.1447 23.5311 47.8445 24.0311 47.6549 24.5762C47.4653 25.1213 47.3904 25.6997 47.435 26.2751C47.3904 26.8505 47.4653 27.4289 47.6549 27.9739C47.8445 28.519 48.1447 29.0191 48.5367 29.4426C48.9287 29.8662 49.4041 30.2041 49.9329 30.4352C50.4617 30.6663 51.0326 30.7856 51.6097 30.7856C52.1869 30.7856 52.7578 30.6663 53.2866 30.4352C53.8154 30.2041 54.2908 29.8662 54.6828 29.4426C55.0748 29.0191 55.375 28.519 55.5646 27.9739C55.7542 27.4289 55.8291 26.8505 55.7845 26.2751Z" fill="#EDFCF7" fill-opacity="0.62"/>
    <path d="M75.2453 19.2503V32.6995C75.2453 38.2242 71.958 40.4991 68.0832 40.4991C66.6572 40.507 65.2611 40.0904 64.0725 39.3025C62.8839 38.5146 61.9566 37.3909 61.4085 36.0744L64.2959 34.8244C64.5868 35.5908 65.0982 36.2538 65.7656 36.7299C66.4329 37.2059 67.2263 37.4736 68.0457 37.4993C70.5455 37.4993 72.0705 35.9619 72.0705 33.0995V32.0246H71.9955C71.4955 32.5888 70.8788 33.0375 70.1881 33.3397C69.4975 33.6418 68.7494 33.7902 67.9957 33.7745C66.0067 33.7745 64.0991 32.9844 62.6927 31.5779C61.2862 30.1715 60.4961 28.2639 60.4961 26.2749C60.4961 24.2859 61.2862 22.3783 62.6927 20.9719C64.0991 19.5654 66.0067 18.7753 67.9957 18.7753C68.7468 18.7614 69.4921 18.9081 70.1819 19.2056C70.8717 19.5031 71.49 19.9445 71.9955 20.5002H72.108V19.2503H75.2453ZM72.3329 26.3249C72.3789 25.7582 72.3102 25.1881 72.1312 24.6485C71.9522 24.1088 71.6664 23.6108 71.2908 23.1839C70.9153 22.757 70.4577 22.4101 69.9453 22.1638C69.4328 21.9175 68.8761 21.7768 68.3082 21.7502C67.7313 21.7709 67.1644 21.9063 66.6404 22.1484C66.1164 22.3905 65.6458 22.7344 65.2561 23.1602C64.8663 23.586 64.5652 24.0851 64.3704 24.6285C64.1755 25.1718 64.0907 25.7485 64.1209 26.3249C64.0941 26.8974 64.1817 27.4695 64.3786 28.0078C64.5754 28.5461 64.8776 29.0397 65.2675 29.4598C65.6574 29.88 66.1271 30.2182 66.6492 30.4546C67.1712 30.6911 67.7352 30.8212 68.3082 30.8372C68.8738 30.8171 69.4296 30.6825 69.9417 30.4416C70.4539 30.2006 70.912 29.8584 71.2882 29.4355C71.6644 29.0125 71.9509 28.5177 72.1305 27.981C72.31 27.4442 72.3789 26.8766 72.3329 26.3124V26.3249Z" fill="#EDFCF7" fill-opacity="0.62"/>
    <path d="M81.0332 11.3008V33.3246H77.7334V11.3008H81.0332Z" fill="#EDFCF7" fill-opacity="0.62"/>
    <path d="M94.0324 28.7504L96.6073 30.5003C95.9198 31.5262 94.9897 32.3664 93.8994 32.9465C92.8092 33.5265 91.5925 33.8283 90.3576 33.8251C89.3752 33.8391 88.4002 33.6537 87.4916 33.28C86.583 32.9063 85.7596 32.3522 85.0713 31.6511C84.3831 30.95 83.8442 30.1165 83.4874 29.2011C83.1306 28.2857 82.9633 27.3074 82.9955 26.3255C82.8492 24.6374 83.3292 22.9545 84.344 21.5975C85.3588 20.2406 86.8375 19.3045 88.4981 18.9677C90.1587 18.631 91.8852 18.9171 93.3485 19.7715C94.8117 20.6259 95.9094 21.9889 96.4323 23.6006L96.7697 24.4631L86.7703 28.6004C87.0819 29.3007 87.596 29.8917 88.2466 30.2972C88.8971 30.7026 89.6541 30.904 90.4201 30.8752C91.1535 30.8586 91.8704 30.6546 92.5027 30.2827C93.1349 29.9108 93.6616 29.3833 94.0324 28.7504ZM86.1453 26.0505L92.87 23.2757C92.6008 22.7779 92.193 22.3688 91.6961 22.0982C91.1991 21.8275 90.6343 21.7068 90.0701 21.7507C89.5299 21.7748 88.9997 21.9052 88.51 22.1344C88.0202 22.3636 87.5805 22.6872 87.2159 23.0866C86.8513 23.486 86.5691 23.9533 86.3854 24.4619C86.2017 24.9705 86.1201 25.5103 86.1453 26.0505Z" fill="#EDFCF7" fill-opacity="0.62"/>
</svg>
