<svg width="81" height="80" viewBox="0 0 81 80" fill="none" xmlns="http://www.w3.org/2000/svg">
    <path d="M0.5 16C0.5 7.16344 7.66344 0 16.5 0H64.5C73.3366 0 80.5 7.16344 80.5 16V64C80.5 72.8366 73.3366 80 64.5 80H16.5C7.66344 80 0.5 72.8366 0.5 64V16Z" fill="white" fill-opacity="0.069"/>
    <path d="M0.5 16C0.5 7.16344 7.66344 0 16.5 0H64.5C73.3366 0 80.5 7.16344 80.5 16V64C80.5 72.8366 73.3366 80 64.5 80H16.5C7.66344 80 0.5 72.8366 0.5 64V16Z" fill="url(#paint0_linear_181_5613)"/>
    <path d="M24.4752 37.0825C24.4752 35.724 25.5805 34.6186 26.939 34.6186H28.6988V39.5464H26.939C25.5805 39.5464 24.4752 38.441 24.4752 37.0825ZM40.7069 20.2502H33.2741C30.7473 20.2502 28.6988 22.2987 28.6988 24.8255V30.6434H26.939C23.3884 30.6434 20.5 33.5318 20.5 37.0825C20.5 40.6327 23.3884 43.5215 26.939 43.5215H29.4755C31.0887 47.4714 35.0392 50.2282 39.6005 50.0559C45.2808 49.8412 49.6925 44.9934 49.6925 39.309V33.1279C49.6925 32.0301 48.8026 31.1403 47.7049 31.1403C46.6071 31.1403 45.7174 32.0301 45.7174 33.1279V39.5669C45.7174 43.2717 42.612 46.2649 38.8672 46.0803C35.3639 45.9076 32.6739 42.885 32.6739 39.3775V24.8259C32.6739 24.4942 32.9427 24.2253 33.2744 24.2253H40.7069C49.5881 24.2253 56.7831 31.5825 56.5176 40.5219C56.2622 49.1251 48.9774 55.8608 40.3703 55.8608H30.6863C29.5885 55.8608 28.6988 56.7505 28.6988 57.8484C28.6988 58.946 29.5885 59.8359 30.6863 59.8359H40.3356C51.144 59.8359 60.2385 51.3256 60.4944 40.5202C60.7578 29.3894 51.7795 20.2502 40.7069 20.2502Z" fill="white"/>
    <path d="M34.8496 36.198V39.2654C34.8496 41.7976 36.7066 43.8754 39.0774 43.9956C40.3568 44.0575 41.5546 43.5796 42.4502 42.6605C43.2926 41.7956 43.7564 40.6483 43.7564 39.4294V37.2966C41.2406 37.6605 37.6161 35.2772 34.8496 36.198Z" fill="#FF9D35"/>
    <defs>
        <linearGradient id="paint0_linear_181_5613" x1="88.4167" y1="-7.80345e-06" x2="11.75" y2="80" gradientUnits="userSpaceOnUse">
            <stop stop-color="#5EB0EF"/>
            <stop offset="1" stop-color="#3A5CCC"/>
        </linearGradient>
    </defs>
</svg>
