<svg width="80" height="80" viewBox="0 0 80 80" fill="none" xmlns="http://www.w3.org/2000/svg">
    <g filter="url(#filter0_dddd_272_2306)">
        <path d="M0 16C0 7.16344 7.16344 0 16 0H64C72.8366 0 80 7.16344 80 16V64C80 72.8366 72.8366 80 64 80H16C7.16344 80 0 72.8366 0 64V16Z" fill="black"/>
        <path d="M0 16C0 7.16344 7.16344 0 16 0H64C72.8366 0 80 7.16344 80 16V64C80 72.8366 72.8366 80 64 80H16C7.16344 80 0 72.8366 0 64V16Z" fill="url(#paint0_linear_272_2306)" fill-opacity="0.2"/>

        <path d="M18.5723 56V24H39.1437V56H18.5723ZM36.3217 34.7894H38.1679V31.5611H30.5459V34.7894H33.025V42.492H32.9195L24.269 31.5611H19.6008V34.7894H21.7371V46.7398H19.8909V49.9681H27.4074V46.7398H25.0338V38.3009H25.1393L34.3437 49.9965L36.3217 49.9681V34.7894Z" fill="#1CD17D"/>
    <path d="M43.1426 56V24H61.4283V56H43.1426ZM54.978 39.9717V47.1929H53.2027V49.9681H60.5702V47.1929H58.7949V37.1965H49.8592V35.1858C49.8592 34.6383 50.017 34.1286 50.3326 33.6566C50.6679 33.1847 51.4175 32.9487 52.5813 32.9487C53.1534 32.9487 53.6366 33.0053 54.0312 33.1186C54.4454 33.213 54.7216 33.2791 54.8596 33.3168L55.4218 35.1292L58.3807 34.8177L57.7889 31.3628C56.921 30.9286 56.0235 30.6265 55.0964 30.4566C54.1692 30.2867 53.3309 30.2018 52.5813 30.2018C50.4312 30.2018 48.8039 30.7115 47.6992 31.731C46.5946 32.7504 46.0423 33.9209 46.0423 35.2425V37.1965H44.4149V39.9717H46.0423V47.1929H44.2669V49.9681H52.0783V47.1929H49.8592V39.9717H54.978Z" fill="#1CD17D"/>
    </g>
    <defs>
        <filter id="filter0_dddd_272_2306" x="-19" y="-3" width="118" height="149" filterUnits="userSpaceOnUse" color-interpolation-filters="sRGB">
            <feFlood flood-opacity="0" result="BackgroundImageFix"/>
            <feColorMatrix in="SourceAlpha" type="matrix" values="0 0 0 0 0 0 0 0 0 0 0 0 0 0 0 0 0 0 127 0" result="hardAlpha"/>
            <feOffset dy="3"/>
            <feGaussianBlur stdDeviation="3"/>
            <feColorMatrix type="matrix" values="0 0 0 0 0.00392157 0 0 0 0 0.00392157 0 0 0 0 0.00392157 0 0 0 0.15 0"/>
            <feBlend mode="normal" in2="BackgroundImageFix" result="effect1_dropShadow_272_2306"/>
            <feColorMatrix in="SourceAlpha" type="matrix" values="0 0 0 0 0 0 0 0 0 0 0 0 0 0 0 0 0 0 127 0" result="hardAlpha"/>
            <feOffset dy="12"/>
            <feGaussianBlur stdDeviation="6"/>
            <feColorMatrix type="matrix" values="0 0 0 0 0.00392157 0 0 0 0 0.00392157 0 0 0 0 0.00392157 0 0 0 0.13 0"/>
            <feBlend mode="normal" in2="effect1_dropShadow_272_2306" result="effect2_dropShadow_272_2306"/>
            <feColorMatrix in="SourceAlpha" type="matrix" values="0 0 0 0 0 0 0 0 0 0 0 0 0 0 0 0 0 0 127 0" result="hardAlpha"/>
            <feOffset dy="26"/>
            <feGaussianBlur stdDeviation="8"/>
            <feColorMatrix type="matrix" values="0 0 0 0 0.00392157 0 0 0 0 0.00392157 0 0 0 0 0.00392157 0 0 0 0.08 0"/>
            <feBlend mode="normal" in2="effect2_dropShadow_272_2306" result="effect3_dropShadow_272_2306"/>
            <feColorMatrix in="SourceAlpha" type="matrix" values="0 0 0 0 0 0 0 0 0 0 0 0 0 0 0 0 0 0 127 0" result="hardAlpha"/>
            <feOffset dy="47"/>
            <feGaussianBlur stdDeviation="9.5"/>
            <feColorMatrix type="matrix" values="0 0 0 0 0.00392157 0 0 0 0 0.00392157 0 0 0 0 0.00392157 0 0 0 0.02 0"/>
            <feBlend mode="normal" in2="effect3_dropShadow_272_2306" result="effect4_dropShadow_272_2306"/>
            <feBlend mode="normal" in="SourceGraphic" in2="effect4_dropShadow_272_2306" result="shape"/>
        </filter>
        <linearGradient id="paint0_linear_272_2306" x1="27.9167" y1="58.3333" x2="90" y2="-11.6667" gradientUnits="userSpaceOnUse">
            <stop stop-color="white" stop-opacity="0"/>
            <stop offset="1" stop-color="white"/>
        </linearGradient>
    </defs>
</svg>
