<svg width="118" height="149" viewBox="0 0 118 149" fill="none" xmlns="http://www.w3.org/2000/svg">
    <g filter="url(#filter0_dddd_267_2306)">
        <path d="M19 19C19 10.1634 26.1634 3 35 3H83C91.8366 3 99 10.1634 99 19V67C99 75.8366 91.8366 83 83 83H35C26.1634 83 19 75.8366 19 67V19Z" fill="black"/>
        <path d="M19 19C19 10.1634 26.1634 3 35 3H83C91.8366 3 99 10.1634 99 19V67C99 75.8366 91.8366 83 83 83H35C26.1634 83 19 75.8366 19 67V19Z" fill="url(#paint0_linear_267_2306)" fill-opacity="0.2"/>
        <path d="M22.6125 54.26V31.66H38.2125V54.26H22.6125ZM36.0725 39.28H37.4725V37H31.6925V39.28H33.5725V44.72H33.4925L26.9325 37H23.3925V39.28H25.0125V47.72H23.6125V50H29.3125V47.72H27.5125V41.76H27.5925L34.5725 50.02L36.0725 50V39.28ZM39.8078 54.26V31.66H50.3478V54.26H39.8078ZM41.3678 41.62L40.9678 43.96L43.0278 44.18L43.3678 42.9C43.5811 42.7933 43.7945 42.7267 44.0078 42.7C44.2345 42.66 44.4811 42.64 44.7478 42.64C45.4811 42.64 45.9078 42.86 46.0278 43.3C46.1611 43.74 46.2278 44.1933 46.2278 44.66V44.96C45.8145 44.9067 45.3211 44.88 44.7478 44.88C43.7211 44.88 42.7611 45.06 41.8678 45.42C40.9878 45.78 40.5478 46.5133 40.5478 47.62C40.5478 48.5667 40.8478 49.2333 41.4478 49.62C42.0478 50.0067 42.6745 50.2 43.3278 50.2C44.0611 50.2 44.6611 50.0133 45.1278 49.64C45.6078 49.2667 45.9745 48.8533 46.2278 48.4V48.42C46.3611 49.6067 47.0211 50.2 48.2078 50.2C48.7678 50.2 49.3078 50.06 49.8278 49.78L49.8078 48.42C49.6745 48.46 49.5478 48.48 49.4278 48.48C49.0145 48.48 48.8078 48.2467 48.8078 47.78V43.86C48.8078 42.8333 48.4545 42.0667 47.7478 41.56C47.0411 41.0533 46.2011 40.8 45.2278 40.8C44.4945 40.8 43.8611 40.86 43.3278 40.98C42.8078 41.0867 42.1545 41.3 41.3678 41.62ZM46.2278 46.32C46.1611 47.0267 45.9278 47.5467 45.5278 47.88C45.1411 48.2 44.7211 48.36 44.2678 48.36C43.8811 48.36 43.6078 48.26 43.4478 48.06C43.2878 47.86 43.2078 47.6133 43.2078 47.32C43.2078 46.8267 43.3811 46.5 43.7278 46.34C44.0745 46.1667 44.4745 46.08 44.9278 46.08C45.1411 46.08 45.3545 46.0933 45.5678 46.12C45.7945 46.1467 46.0145 46.1733 46.2278 46.2V46.32ZM51.925 54.26V31.66H69.865V54.26H51.925ZM65.625 50H69.405V48.06H68.205V43.92C68.205 42.8533 67.8917 42.0667 67.265 41.56C66.6383 41.0533 65.9183 40.8 65.105 40.8C63.6783 40.8 62.6983 41.4467 62.165 42.74C61.9517 42.0867 61.5717 41.6 61.025 41.28C60.4783 40.96 59.8783 40.8 59.225 40.8C57.9717 40.8 57.0583 41.3133 56.485 42.34V40.98H52.725V42.94H53.905V48.06H52.705V50H58.205V48.06H56.485V44.9C56.485 44.2733 56.6183 43.76 56.885 43.36C57.1517 42.96 57.5983 42.76 58.225 42.76C58.7317 42.76 59.1117 42.9267 59.365 43.26C59.6317 43.5933 59.765 44.1467 59.765 44.92V50H63.545V48.06H62.345V44.9C62.345 44.2733 62.4783 43.76 62.745 43.36C63.025 42.96 63.4717 42.76 64.085 42.76C64.5917 42.76 64.9717 42.9267 65.225 43.26C65.4917 43.5933 65.625 44.1467 65.625 44.92V50ZM71.4445 54.26V31.66H81.4845V54.26H71.4445ZM80.9045 47.16L78.7445 46.76C78.6912 47.0267 78.5379 47.3267 78.2845 47.66C78.0445 47.9933 77.5779 48.16 76.8845 48.16C75.6179 48.16 74.9112 47.4467 74.7645 46.02H80.6845C80.7779 45.5933 80.8245 45.16 80.8245 44.72C80.8112 43.5467 80.4112 42.6 79.6245 41.88C78.8512 41.16 77.8379 40.8 76.5845 40.8C75.1579 40.8 74.0445 41.2667 73.2445 42.2C72.4579 43.12 72.0645 44.2733 72.0645 45.66C72.0645 47.1667 72.4979 48.3 73.3645 49.06C74.2445 49.82 75.3579 50.2 76.7045 50.2C77.9979 50.2 79.0045 49.8933 79.7245 49.28C80.4445 48.6667 80.8379 47.96 80.9045 47.16ZM78.1645 44.52H74.7845C74.8645 43.96 75.0512 43.5067 75.3445 43.16C75.6379 42.8133 76.0512 42.64 76.5845 42.64C77.1979 42.64 77.6245 42.84 77.8645 43.24C78.1179 43.64 78.2179 44.0667 78.1645 44.52ZM83.0539 54.26V31.66H95.4139V54.26H83.0539ZM91.0539 42.94V48.04H89.8539V50H94.8339V48.04H93.6339V40.98H87.5939V39.56C87.5939 39.1733 87.7006 38.8133 87.9139 38.48C88.1406 38.1467 88.6472 37.98 89.4339 37.98C89.8206 37.98 90.1472 38.02 90.4139 38.1C90.6939 38.1667 90.8806 38.2133 90.9739 38.24L91.3539 39.52L93.3539 39.3L92.9539 36.86C92.3672 36.5533 91.7606 36.34 91.1339 36.22C90.5072 36.1 89.9406 36.04 89.4339 36.04C87.9806 36.04 86.8806 36.4 86.1339 37.12C85.3872 37.84 85.0139 38.6667 85.0139 39.6V40.98H83.9139V42.94H85.0139V48.04H83.8139V50H89.0939V48.04H87.5939V42.94H91.0539Z" fill="#48E59B"/>
    </g>
    <defs>
        <filter id="filter0_dddd_267_2306" x="0" y="0" width="118" height="149" filterUnits="userSpaceOnUse" color-interpolation-filters="sRGB">
            <feFlood flood-opacity="0" result="BackgroundImageFix"/>
            <feColorMatrix in="SourceAlpha" type="matrix" values="0 0 0 0 0 0 0 0 0 0 0 0 0 0 0 0 0 0 127 0" result="hardAlpha"/>
            <feOffset dy="3"/>
            <feGaussianBlur stdDeviation="3"/>
            <feColorMatrix type="matrix" values="0 0 0 0 0.00392157 0 0 0 0 0.00392157 0 0 0 0 0.00392157 0 0 0 0.15 0"/>
            <feBlend mode="normal" in2="BackgroundImageFix" result="effect1_dropShadow_267_2306"/>
            <feColorMatrix in="SourceAlpha" type="matrix" values="0 0 0 0 0 0 0 0 0 0 0 0 0 0 0 0 0 0 127 0" result="hardAlpha"/>
            <feOffset dy="12"/>
            <feGaussianBlur stdDeviation="6"/>
            <feColorMatrix type="matrix" values="0 0 0 0 0.00392157 0 0 0 0 0.00392157 0 0 0 0 0.00392157 0 0 0 0.13 0"/>
            <feBlend mode="normal" in2="effect1_dropShadow_267_2306" result="effect2_dropShadow_267_2306"/>
            <feColorMatrix in="SourceAlpha" type="matrix" values="0 0 0 0 0 0 0 0 0 0 0 0 0 0 0 0 0 0 127 0" result="hardAlpha"/>
            <feOffset dy="26"/>
            <feGaussianBlur stdDeviation="8"/>
            <feColorMatrix type="matrix" values="0 0 0 0 0.00392157 0 0 0 0 0.00392157 0 0 0 0 0.00392157 0 0 0 0.08 0"/>
            <feBlend mode="normal" in2="effect2_dropShadow_267_2306" result="effect3_dropShadow_267_2306"/>
            <feColorMatrix in="SourceAlpha" type="matrix" values="0 0 0 0 0 0 0 0 0 0 0 0 0 0 0 0 0 0 127 0" result="hardAlpha"/>
            <feOffset dy="47"/>
            <feGaussianBlur stdDeviation="9.5"/>
            <feColorMatrix type="matrix" values="0 0 0 0 0.00392157 0 0 0 0 0.00392157 0 0 0 0 0.00392157 0 0 0 0.02 0"/>
            <feBlend mode="normal" in2="effect3_dropShadow_267_2306" result="effect4_dropShadow_267_2306"/>
            <feBlend mode="normal" in="SourceGraphic" in2="effect4_dropShadow_267_2306" result="shape"/>
        </filter>
        <linearGradient id="paint0_linear_267_2306" x1="46.9167" y1="61.3333" x2="109" y2="-8.66667" gradientUnits="userSpaceOnUse">
            <stop stop-color="white" stop-opacity="0"/>
            <stop offset="1" stop-color="white"/>
        </linearGradient>
    </defs>
</svg>
