
<svg width="80" height="80" viewBox="0 0 80 80" fill="none" xmlns="http://www.w3.org/2000/svg">
    <g filter="url(#filter0_dddd_272_2306)">
        <path d="M0 16C0 7.16344 7.16344 0 16 0H64C72.8366 0 80 7.16344 80 16V64C80 72.8366 72.8366 80 64 80H16C7.16344 80 0 72.8366 0 64V16Z" fill="black"/>
        <path d="M0 16C0 7.16344 7.16344 0 16 0H64C72.8366 0 80 7.16344 80 16V64C80 72.8366 72.8366 80 64 80H16C7.16344 80 0 72.8366 0 64V16Z" fill="url(#paint0_linear_272_2306)" fill-opacity="0.2"/>
        <path d="M3.6125 51.26V28.66H19.2125V51.26H3.6125ZM17.0725 36.28H18.4725V34H12.6925V36.28H14.5725V41.72H14.4925L7.9325 34H4.3925V36.28H6.0125V44.72H4.6125V47H10.3125V44.72H8.5125V38.76H8.5925L15.5725 47.02L17.0725 47V36.28ZM20.8078 51.26V28.66H31.3478V51.26H20.8078ZM22.3678 38.62L21.9678 40.96L24.0278 41.18L24.3678 39.9C24.5811 39.7933 24.7945 39.7267 25.0078 39.7C25.2345 39.66 25.4811 39.64 25.7478 39.64C26.4811 39.64 26.9078 39.86 27.0278 40.3C27.1611 40.74 27.2278 41.1933 27.2278 41.66V41.96C26.8145 41.9067 26.3211 41.88 25.7478 41.88C24.7211 41.88 23.7611 42.06 22.8678 42.42C21.9878 42.78 21.5478 43.5133 21.5478 44.62C21.5478 45.5667 21.8478 46.2333 22.4478 46.62C23.0478 47.0067 23.6745 47.2 24.3278 47.2C25.0611 47.2 25.6611 47.0133 26.1278 46.64C26.6078 46.2667 26.9745 45.8533 27.2278 45.4V45.42C27.3611 46.6067 28.0211 47.2 29.2078 47.2C29.7678 47.2 30.3078 47.06 30.8278 46.78L30.8078 45.42C30.6745 45.46 30.5478 45.48 30.4278 45.48C30.0145 45.48 29.8078 45.2467 29.8078 44.78V40.86C29.8078 39.8333 29.4545 39.0667 28.7478 38.56C28.0411 38.0533 27.2011 37.8 26.2278 37.8C25.4945 37.8 24.8611 37.86 24.3278 37.98C23.8078 38.0867 23.1545 38.3 22.3678 38.62ZM27.2278 43.32C27.1611 44.0267 26.9278 44.5467 26.5278 44.88C26.1411 45.2 25.7211 45.36 25.2678 45.36C24.8811 45.36 24.6078 45.26 24.4478 45.06C24.2878 44.86 24.2078 44.6133 24.2078 44.32C24.2078 43.8267 24.3811 43.5 24.7278 43.34C25.0745 43.1667 25.4745 43.08 25.9278 43.08C26.1411 43.08 26.3545 43.0933 26.5678 43.12C26.7945 43.1467 27.0145 43.1733 27.2278 43.2V43.32ZM32.925 51.26V28.66H50.865V51.26H32.925ZM46.625 47H50.405V45.06H49.205V40.92C49.205 39.8533 48.8917 39.0667 48.265 38.56C47.6383 38.0533 46.9183 37.8 46.105 37.8C44.6783 37.8 43.6983 38.4467 43.165 39.74C42.9517 39.0867 42.5717 38.6 42.025 38.28C41.4783 37.96 40.8783 37.8 40.225 37.8C38.9717 37.8 38.0583 38.3133 37.485 39.34V37.98H33.725V39.94H34.905V45.06H33.705V47H39.205V45.06H37.485V41.9C37.485 41.2733 37.6183 40.76 37.885 40.36C38.1517 39.96 38.5983 39.76 39.225 39.76C39.7317 39.76 40.1117 39.9267 40.365 40.26C40.6317 40.5933 40.765 41.1467 40.765 41.92V47H44.545V45.06H43.345V41.9C43.345 41.2733 43.4783 40.76 43.745 40.36C44.025 39.96 44.4717 39.76 45.085 39.76C45.5917 39.76 45.9717 39.9267 46.225 40.26C46.4917 40.5933 46.625 41.1467 46.625 41.92V47ZM52.4445 51.26V28.66H62.4845V51.26H52.4445ZM61.9045 44.16L59.7445 43.76C59.6912 44.0267 59.5379 44.3267 59.2845 44.66C59.0445 44.9933 58.5779 45.16 57.8845 45.16C56.6179 45.16 55.9112 44.4467 55.7645 43.02H61.6845C61.7779 42.5933 61.8245 42.16 61.8245 41.72C61.8112 40.5467 61.4112 39.6 60.6245 38.88C59.8512 38.16 58.8379 37.8 57.5845 37.8C56.1579 37.8 55.0445 38.2667 54.2445 39.2C53.4579 40.12 53.0645 41.2733 53.0645 42.66C53.0645 44.1667 53.4979 45.3 54.3645 46.06C55.2445 46.82 56.3579 47.2 57.7045 47.2C58.9979 47.2 60.0045 46.8933 60.7245 46.28C61.4445 45.6667 61.8379 44.96 61.9045 44.16ZM59.1645 41.52H55.7845C55.8645 40.96 56.0512 40.5067 56.3445 40.16C56.6379 39.8133 57.0512 39.64 57.5845 39.64C58.1979 39.64 58.6245 39.84 58.8645 40.24C59.1179 40.64 59.2179 41.0667 59.1645 41.52ZM64.0539 51.26V28.66H76.4139V51.26H64.0539ZM72.0539 39.94V45.04H70.8539V47H75.8339V45.04H74.6339V37.98H68.5939V36.56C68.5939 36.1733 68.7006 35.8133 68.9139 35.48C69.1406 35.1467 69.6472 34.98 70.4339 34.98C70.8206 34.98 71.1472 35.02 71.4139 35.1C71.6939 35.1667 71.8806 35.2133 71.9739 35.24L72.3539 36.52L74.3539 36.3L73.9539 33.86C73.3672 33.5533 72.7606 33.34 72.1339 33.22C71.5072 33.1 70.9406 33.04 70.4339 33.04C68.9806 33.04 67.8806 33.4 67.1339 34.12C66.3872 34.84 66.0139 35.6667 66.0139 36.6V37.98H64.9139V39.94H66.0139V45.04H64.8139V47H70.0939V45.04H68.5939V39.94H72.0539Z" fill="#48E59B"/>
    </g>
    <defs>
        <filter id="filter0_dddd_272_2306" x="-19" y="-3" width="118" height="149" filterUnits="userSpaceOnUse" color-interpolation-filters="sRGB">
            <feFlood flood-opacity="0" result="BackgroundImageFix"/>
            <feColorMatrix in="SourceAlpha" type="matrix" values="0 0 0 0 0 0 0 0 0 0 0 0 0 0 0 0 0 0 127 0" result="hardAlpha"/>
            <feOffset dy="3"/>
            <feGaussianBlur stdDeviation="3"/>
            <feColorMatrix type="matrix" values="0 0 0 0 0.00392157 0 0 0 0 0.00392157 0 0 0 0 0.00392157 0 0 0 0.15 0"/>
            <feBlend mode="normal" in2="BackgroundImageFix" result="effect1_dropShadow_272_2306"/>
            <feColorMatrix in="SourceAlpha" type="matrix" values="0 0 0 0 0 0 0 0 0 0 0 0 0 0 0 0 0 0 127 0" result="hardAlpha"/>
            <feOffset dy="12"/>
            <feGaussianBlur stdDeviation="6"/>
            <feColorMatrix type="matrix" values="0 0 0 0 0.00392157 0 0 0 0 0.00392157 0 0 0 0 0.00392157 0 0 0 0.13 0"/>
            <feBlend mode="normal" in2="effect1_dropShadow_272_2306" result="effect2_dropShadow_272_2306"/>
            <feColorMatrix in="SourceAlpha" type="matrix" values="0 0 0 0 0 0 0 0 0 0 0 0 0 0 0 0 0 0 127 0" result="hardAlpha"/>
            <feOffset dy="26"/>
            <feGaussianBlur stdDeviation="8"/>
            <feColorMatrix type="matrix" values="0 0 0 0 0.00392157 0 0 0 0 0.00392157 0 0 0 0 0.00392157 0 0 0 0.08 0"/>
            <feBlend mode="normal" in2="effect2_dropShadow_272_2306" result="effect3_dropShadow_272_2306"/>
            <feColorMatrix in="SourceAlpha" type="matrix" values="0 0 0 0 0 0 0 0 0 0 0 0 0 0 0 0 0 0 127 0" result="hardAlpha"/>
            <feOffset dy="47"/>
            <feGaussianBlur stdDeviation="9.5"/>
            <feColorMatrix type="matrix" values="0 0 0 0 0.00392157 0 0 0 0 0.00392157 0 0 0 0 0.00392157 0 0 0 0.02 0"/>
            <feBlend mode="normal" in2="effect3_dropShadow_272_2306" result="effect4_dropShadow_272_2306"/>
            <feBlend mode="normal" in="SourceGraphic" in2="effect4_dropShadow_272_2306" result="shape"/>
        </filter>
        <linearGradient id="paint0_linear_272_2306" x1="27.9167" y1="58.3333" x2="90" y2="-11.6667" gradientUnits="userSpaceOnUse">
            <stop stop-color="white" stop-opacity="0"/>
            <stop offset="1" stop-color="white"/>
        </linearGradient>
    </defs>
</svg>
