<svg width="120" height="32" viewBox="0 0 120 32" fill="none" xmlns="http://www.w3.org/2000/svg">
<rect width="2.78319" height="8.71261" transform="matrix(0.866025 0.5 -2.20305e-08 1 2.00632 10.6286)" fill="#EDFCF7" fill-opacity="0.62"/>
<rect width="2.78319" height="8.71261" transform="matrix(0.866025 0.5 -2.20305e-08 1 7.69376 13.8958)" fill="#EDFCF7" fill-opacity="0.62"/>
<rect width="2.78319" height="8.62185" transform="matrix(-0.866025 0.5 2.20305e-08 1 18.161 10.6891)" fill="#E9FDF3" fill-opacity="0.44"/>
<rect width="2.78319" height="8.62185" transform="matrix(-0.866025 0.5 2.20305e-08 1 12.5038 13.9563)" fill="#E9FDF3" fill-opacity="0.44"/>
<rect width="2.66218" height="8.62185" transform="matrix(-0.866025 0.5 2.20305e-08 1 9.98303 6.0303)" fill="#E9FDF3" fill-opacity="0.44"/>
<rect width="2.78319" height="9.31765" transform="matrix(0.866025 0.5 -0.866025 0.5 15.7408 9.29741)" fill="#EDFCF7" fill-opacity="0.62"/>
<rect width="2.78319" height="9.31765" transform="matrix(0.866025 0.5 -0.866025 0.5 15.8013 17.8891)" fill="#E9FDF3" fill-opacity="0.44"/>
<rect width="2.78319" height="9.31765" transform="matrix(0.866025 0.5 -0.866025 0.5 10.0837 6)" fill="#E9FDF3" fill-opacity="0.44"/>
<rect width="2.66218" height="9.31765" transform="matrix(0.866025 0.5 -0.866025 0.5 10.1139 14.6218)" fill="#E9FDF3" fill-opacity="0.44"/>
<rect width="9.31765" height="2.66218" transform="matrix(0.866025 0.5 -0.866025 0.5 4.30551 9.29741)" fill="#E9FDF3" fill-opacity="0.44"/>
<rect width="9.31765" height="2.66218" transform="matrix(0.866025 0.5 -0.866025 0.5 10.0534 6)" fill="#E9FDF3" fill-opacity="0.44"/>
<rect width="9.19664" height="2.78319" transform="matrix(0.866025 0.5 -0.866025 0.5 10.2349 14.6824)" fill="#E9FDF3" fill-opacity="0.44"/>
<rect width="9.31765" height="2.54118" transform="matrix(0.866025 0.5 -2.20305e-08 1 2.00632 16.8)" fill="#EDFCF7" fill-opacity="0.62"/>
<path d="M113.606 17.2538V12.9346H114.646V16.4059H116.353V17.2538H113.606Z" fill="#EDFCF7" fill-opacity="0.62"/>
<path d="M111.788 17.2538L111.525 16.332H110.033L109.767 17.2538H108.635L110.104 12.9169H111.436L112.916 17.2538H111.788ZM111.294 15.4723L111.043 14.6126C111.023 14.5398 110.996 14.4423 110.96 14.3202C110.927 14.1961 110.892 14.069 110.857 13.9391C110.824 13.8071 110.797 13.6968 110.777 13.6082C110.758 13.6968 110.731 13.8071 110.697 13.9391C110.664 14.071 110.631 14.199 110.597 14.3231C110.566 14.4472 110.54 14.5437 110.52 14.6126L110.269 15.4723H111.294Z" fill="#EDFCF7" fill-opacity="0.62"/>
<path d="M107.204 17.2538H106.164V13.7913H105.05V12.9346H108.318V13.7913H107.204V17.2538Z" fill="#EDFCF7" fill-opacity="0.62"/>
<path d="M103.182 17.2538V12.9346H104.225V17.2538H103.182Z" fill="#EDFCF7" fill-opacity="0.62"/>
<path d="M100.625 12.9346C101.179 12.9346 101.587 13.0547 101.851 13.295C102.115 13.5333 102.247 13.8662 102.247 14.2936C102.247 14.4866 102.219 14.6717 102.162 14.849C102.106 15.0262 102.015 15.1838 101.887 15.3217C101.759 15.4595 101.588 15.5688 101.376 15.6496C101.163 15.7284 100.901 15.7678 100.59 15.7678H100.229V17.2538H99.1895V12.9346H100.625ZM100.59 13.7795H100.229V14.9199H100.495C100.633 14.9199 100.755 14.9002 100.862 14.8608C100.968 14.8194 101.052 14.7554 101.113 14.6687C101.174 14.5821 101.204 14.4679 101.204 14.326C101.204 14.1508 101.154 14.0158 101.054 13.9213C100.953 13.8268 100.799 13.7795 100.59 13.7795Z" fill="#EDFCF7" fill-opacity="0.62"/>
<path d="M97.3713 17.2538L97.1084 16.332H95.6164L95.3506 17.2538H94.2191L95.6873 12.9169H97.0197L98.4998 17.2538H97.3713ZM96.8779 15.4723L96.6268 14.6126C96.6071 14.5398 96.5795 14.4423 96.5441 14.3202C96.5106 14.1961 96.4761 14.069 96.4407 13.9391C96.4072 13.8071 96.3806 13.6968 96.3609 13.6082C96.3412 13.6968 96.3146 13.8071 96.2812 13.9391C96.2477 14.071 96.2142 14.199 96.1807 14.3231C96.1492 14.4472 96.1236 14.5437 96.1039 14.6126L95.8528 15.4723H96.8779Z" fill="#EDFCF7" fill-opacity="0.62"/>
<path d="M92.5279 13.7293C92.3703 13.7293 92.2305 13.7609 92.1084 13.8239C91.9863 13.8869 91.8829 13.9785 91.7982 14.0986C91.7154 14.2188 91.6514 14.3635 91.6061 14.5329C91.5628 14.7023 91.5411 14.8943 91.5411 15.109C91.5411 15.3985 91.5776 15.6437 91.6505 15.8446C91.7233 16.0435 91.8346 16.1952 91.9843 16.2996C92.1359 16.404 92.328 16.4562 92.5604 16.4562C92.7435 16.4562 92.9238 16.4335 93.101 16.3882C93.2783 16.3409 93.4644 16.2809 93.6594 16.208V17.0825C93.4683 17.1652 93.2763 17.2243 93.0833 17.2597C92.8903 17.2952 92.6805 17.3129 92.454 17.3129C91.9971 17.3129 91.6219 17.2203 91.3284 17.0352C91.0369 16.8501 90.8213 16.5921 90.6814 16.2612C90.5436 15.9303 90.4746 15.5443 90.4746 15.1031C90.4746 14.7761 90.519 14.4768 90.6076 14.205C90.6982 13.9332 90.8301 13.6978 91.0035 13.4989C91.1787 13.298 91.3944 13.1434 91.6505 13.0351C91.9065 12.9268 92.2009 12.8726 92.5338 12.8726C92.7445 12.8726 92.9612 12.8982 93.1837 12.9494C93.4083 13.0006 93.6249 13.0764 93.8337 13.1769L93.5087 14.007C93.3492 13.9302 93.1877 13.8652 93.0242 13.8121C92.8627 13.7569 92.6973 13.7293 92.5279 13.7293Z" fill="#EDFCF7" fill-opacity="0.62"/>
<path d="M87.7039 17.2538H86.3597L84.6285 14.0956H84.6019C84.6117 14.2098 84.6196 14.3349 84.6255 14.4708C84.6314 14.6047 84.6373 14.7397 84.6432 14.8755C84.6491 15.0114 84.6541 15.1405 84.658 15.2626V17.2538H83.7333V12.9346H85.0716L86.7969 16.0543H86.8176C86.8117 15.9401 86.8058 15.819 86.7999 15.6909C86.794 15.5629 86.7881 15.4339 86.7822 15.3039C86.7782 15.172 86.7753 15.0489 86.7733 14.9346V12.9346H87.7039V17.2538Z" fill="#EDFCF7" fill-opacity="0.62"/>
<path d="M81.4955 17.2538V12.9346H82.5384V17.2538H81.4955Z" fill="#EDFCF7" fill-opacity="0.62"/>
<path d="M79.6774 17.2538L79.4145 16.332H77.9226L77.6567 17.2538H76.5252L77.9935 12.9169H79.3259L80.806 17.2538H79.6774ZM79.1841 15.4723L78.9329 14.6126C78.9132 14.5398 78.8857 14.4423 78.8502 14.3202C78.8167 14.1961 78.7823 14.069 78.7468 13.9391C78.7133 13.8071 78.6867 13.6968 78.667 13.6082C78.6474 13.6968 78.6208 13.8071 78.5873 13.9391C78.5538 14.071 78.5203 14.199 78.4868 14.3231C78.4553 14.4472 78.4297 14.5437 78.41 14.6126L78.1589 15.4723H79.1841Z" fill="#EDFCF7" fill-opacity="0.62"/>
<path d="M75.8354 17.2538H74.7955V15.4398H73.2593V17.2538H72.2164V12.9346H73.2593V14.5831H74.7955V12.9346H75.8354V17.2538Z" fill="#EDFCF7" fill-opacity="0.62"/>
<path d="M70.0201 13.7293C69.8626 13.7293 69.7227 13.7609 69.6006 13.8239C69.4785 13.8869 69.3751 13.9785 69.2904 14.0986C69.2077 14.2188 69.1437 14.3635 69.0984 14.5329C69.0551 14.7023 69.0334 14.8943 69.0334 15.109C69.0334 15.3985 69.0698 15.6437 69.1427 15.8446C69.2156 16.0435 69.3269 16.1952 69.4765 16.2996C69.6282 16.404 69.8202 16.4562 70.0526 16.4562C70.2358 16.4562 70.416 16.4335 70.5933 16.3882C70.7705 16.3409 70.9566 16.2809 71.1516 16.208V17.0825C70.9606 17.1652 70.7686 17.2243 70.5755 17.2597C70.3825 17.2952 70.1728 17.3129 69.9463 17.3129C69.4893 17.3129 69.1141 17.2203 68.8207 17.0352C68.5292 16.8501 68.3135 16.5921 68.1737 16.2612C68.0358 15.9303 67.9669 15.5443 67.9669 15.1031C67.9669 14.7761 68.0112 14.4768 68.0998 14.205C68.1904 13.9332 68.3224 13.6978 68.4957 13.4989C68.671 13.298 68.8867 13.1434 69.1427 13.0351C69.3987 12.9268 69.6932 12.8726 70.026 12.8726C70.2368 12.8726 70.4534 12.8982 70.676 12.9494C70.9005 13.0006 71.1172 13.0764 71.3259 13.1769L71.001 14.007C70.8414 13.9302 70.6799 13.8652 70.5165 13.8121C70.355 13.7569 70.1895 13.7293 70.0201 13.7293Z" fill="#EDFCF7" fill-opacity="0.62"/>
<path d="M67.4515 17.2538H66.2757L65.2801 15.5166L64.9137 15.7589V17.2538H63.8708V12.9346H64.9137V14.8608C64.9689 14.7721 65.027 14.6835 65.088 14.5949C65.1491 14.5043 65.2101 14.4166 65.2712 14.332L66.3141 12.9346H67.4574L66.0216 14.8578L67.4515 17.2538Z" fill="#EDFCF7" fill-opacity="0.62"/>
<path d="M61.6746 13.7293C61.517 13.7293 61.3772 13.7609 61.255 13.8239C61.1329 13.8869 61.0295 13.9785 60.9448 14.0986C60.8621 14.2188 60.7981 14.3635 60.7528 14.5329C60.7095 14.7023 60.6878 14.8943 60.6878 15.109C60.6878 15.3985 60.7242 15.6437 60.7971 15.8446C60.87 16.0435 60.9813 16.1952 61.131 16.2996C61.2826 16.404 61.4746 16.4562 61.707 16.4562C61.8902 16.4562 62.0704 16.4335 62.2477 16.3882C62.4249 16.3409 62.6111 16.2809 62.8061 16.208V17.0825C62.615 17.1652 62.423 17.2243 62.23 17.2597C62.0369 17.2952 61.8272 17.3129 61.6007 17.3129C61.1438 17.3129 60.7686 17.2203 60.4751 17.0352C60.1836 16.8501 59.9679 16.5921 59.8281 16.2612C59.6902 15.9303 59.6213 15.5443 59.6213 15.1031C59.6213 14.7761 59.6656 14.4768 59.7543 14.205C59.8448 13.9332 59.9768 13.6978 60.1501 13.4989C60.3254 13.298 60.5411 13.1434 60.7971 13.0351C61.0532 12.9268 61.3476 12.8726 61.6805 12.8726C61.8912 12.8726 62.1078 12.8982 62.3304 12.9494C62.5549 13.0006 62.7716 13.0764 62.9804 13.1769L62.6554 14.007C62.4958 13.9302 62.3343 13.8652 62.1709 13.8121C62.0094 13.7569 61.8439 13.7293 61.6746 13.7293Z" fill="#EDFCF7" fill-opacity="0.62"/>
<path d="M58.7721 15.0882C58.7721 15.4211 58.7317 15.7244 58.651 15.9981C58.5702 16.2699 58.4452 16.5043 58.2758 16.7013C58.1064 16.8982 57.8907 17.0499 57.6288 17.1562C57.3668 17.2606 57.0557 17.3128 56.6952 17.3128C56.3387 17.3128 56.0295 17.2606 55.7676 17.1562C55.5056 17.0499 55.29 16.8982 55.1206 16.7013C54.9512 16.5043 54.8251 16.269 54.7424 15.9952C54.6597 15.7214 54.6183 15.4171 54.6183 15.0823C54.6183 14.6352 54.6922 14.2462 54.8399 13.9154C54.9876 13.5825 55.2151 13.3245 55.5224 13.1413C55.8316 12.9582 56.2245 12.8666 56.7011 12.8666C57.1817 12.8666 57.5746 12.9582 57.8799 13.1413C58.1852 13.3245 58.4097 13.5825 58.5535 13.9154C58.6992 14.2482 58.7721 14.6392 58.7721 15.0882ZM55.7085 15.0882C55.7085 15.3699 55.742 15.6121 55.8089 15.815C55.8779 16.0178 55.9842 16.1734 56.128 16.2818C56.2737 16.3901 56.4628 16.4442 56.6952 16.4442C56.9335 16.4442 57.1246 16.3901 57.2684 16.2818C57.4141 16.1734 57.5195 16.0178 57.5845 15.815C57.6495 15.6121 57.682 15.3699 57.682 15.0882C57.682 14.6667 57.6061 14.3339 57.4545 14.0897C57.3048 13.8454 57.0537 13.7233 56.7011 13.7233C56.4668 13.7233 56.2757 13.7785 56.128 13.8888C55.9823 13.9991 55.8759 14.1566 55.8089 14.3615C55.742 14.5643 55.7085 14.8066 55.7085 15.0882Z" fill="#EDFCF7" fill-opacity="0.62"/>
<path d="M51.1428 17.2538V12.9346H52.1827V16.4059H53.8903V17.2538H51.1428Z" fill="#EDFCF7" fill-opacity="0.62"/>
<path d="M46.8902 12.9346H48.3142C48.9129 12.9346 49.3531 13.0212 49.6348 13.1945C49.9164 13.3679 50.0572 13.6426 50.0572 14.0188C50.0572 14.1941 50.0267 14.3477 49.9657 14.4797C49.9066 14.6116 49.8258 14.719 49.7234 14.8017C49.623 14.8824 49.5107 14.9356 49.3866 14.9612V14.9908C49.5166 15.0203 49.6397 15.0705 49.7559 15.1414C49.8741 15.2104 49.9696 15.3128 50.0425 15.4487C50.1173 15.5846 50.1547 15.7668 50.1547 15.9952C50.1547 16.2572 50.0888 16.4827 49.9568 16.6718C49.8268 16.8589 49.6407 17.0027 49.3984 17.1031C49.1582 17.2035 48.8716 17.2538 48.5387 17.2538H46.8902V12.9346ZM47.9301 14.6185H48.3733C48.6037 14.6185 48.7642 14.5781 48.8548 14.4974C48.9454 14.4147 48.9907 14.3034 48.9907 14.1636C48.9907 14.0218 48.9376 13.9174 48.8312 13.8504C48.7268 13.7834 48.5614 13.75 48.3349 13.75H47.9301V14.6185ZM47.9301 15.4073V16.4266H48.4353C48.6756 16.4266 48.843 16.3783 48.9376 16.2818C49.0321 16.1833 49.0794 16.0563 49.0794 15.9007C49.0794 15.8081 49.0587 15.7254 49.0173 15.6525C48.9779 15.5777 48.909 15.5186 48.8105 15.4753C48.714 15.43 48.5801 15.4073 48.4087 15.4073H47.9301Z" fill="#EDFCF7" fill-opacity="0.62"/>
<path d="M43.2007 17.2538H42.1607V13.7913H41.047V12.9346H44.3144V13.7913H43.2007V17.2538Z" fill="#EDFCF7" fill-opacity="0.62"/>
<path d="M40.2244 17.2538H38.8802L37.1489 14.0956H37.1224C37.1322 14.2098 37.1401 14.3349 37.146 14.4708C37.1519 14.6047 37.1578 14.7397 37.1637 14.8755C37.1696 15.0114 37.1745 15.1405 37.1785 15.2626V17.2538H36.2538V12.9346H37.5921L39.3174 16.0543H39.3381C39.3322 15.9401 39.3263 15.819 39.3204 15.6909C39.3144 15.5629 39.3085 15.4339 39.3026 15.3039C39.2987 15.172 39.2957 15.0489 39.2938 14.9346V12.9346H40.2244V17.2538Z" fill="#EDFCF7" fill-opacity="0.62"/>
<path d="M34.4355 17.2538L34.1726 16.332H32.6807L32.4148 17.2538H31.2833L32.7516 12.9169H34.084L35.5641 17.2538H34.4355ZM33.9422 15.4723L33.6911 14.6126C33.6714 14.5398 33.6438 14.4423 33.6083 14.3202C33.5749 14.1961 33.5404 14.069 33.5049 13.9391C33.4715 13.8071 33.4449 13.6968 33.4252 13.6082C33.4055 13.6968 33.3789 13.8071 33.3454 13.9391C33.3119 14.071 33.2784 14.199 33.245 14.3231C33.2134 14.4472 33.1878 14.5437 33.1681 14.6126L32.917 15.4723H33.9422Z" fill="#EDFCF7" fill-opacity="0.62"/>
<path d="M31.0989 12.9346L29.6572 17.2538H28.4755L27.0367 12.9346H28.1505L28.8536 15.3187C28.8713 15.3817 28.895 15.4753 28.9245 15.5994C28.9541 15.7215 28.9836 15.8485 29.0131 15.9805C29.0427 16.1104 29.0614 16.2178 29.0693 16.3025C29.0791 16.2178 29.0968 16.1114 29.1225 15.9834C29.15 15.8534 29.1776 15.7274 29.2052 15.6053C29.2347 15.4812 29.2584 15.3876 29.2761 15.3246L29.9881 12.9346H31.0989Z" fill="#EDFCF7" fill-opacity="0.62"/>
<path d="M25.7237 17.2538L25.4608 16.332H23.9688L23.7029 17.2538H22.5714L24.0397 12.9169H25.3721L26.8522 17.2538H25.7237ZM25.2303 15.4723L24.9792 14.6126C24.9595 14.5398 24.9319 14.4423 24.8965 14.3202C24.863 14.1961 24.8285 14.069 24.7931 13.9391C24.7596 13.8071 24.733 13.6968 24.7133 13.6082C24.6936 13.6968 24.667 13.8071 24.6335 13.9391C24.6001 14.071 24.5666 14.199 24.5331 14.3231C24.5016 14.4472 24.476 14.5437 24.4563 14.6126L24.2052 15.4723H25.2303Z" fill="#EDFCF7" fill-opacity="0.62"/>
</svg>
