<svg width="120" height="32" viewBox="0 0 120 32" fill="none" xmlns="http://www.w3.org/2000/svg">
<path d="M25.8002 9.6589C24.1252 6.30429 19.9006 5.04457 16.5738 6.77292L6.72576 11.8953L8.932 16.1338L6.7072 17.2891C3.4129 19.0012 2.01399 23.1516 3.74929 26.4343C4.94869 28.7008 7.2779 30 9.68134 30C10.7207 30 11.7762 29.7564 12.7622 29.246L22.7448 24.0517L20.5455 19.8179L22.8956 18.5953C26.1389 16.9087 27.4264 12.9184 25.8002 9.66122V9.6589ZM11.6162 27.0351C9.21967 28.2809 6.16201 26.9911 5.53795 24.1376C5.4614 23.7965 5.43588 23.4439 5.45676 23.0959C5.55651 21.5416 6.41489 20.2401 7.73028 19.5603L10.0804 18.3377L11.0524 20.2076C12.0801 22.1819 14.5161 22.9521 16.4926 21.9267L18.3393 20.9662L19.3949 22.9961L11.6185 27.0375L11.6162 27.0351ZM15.1123 16.0851C15.8709 16.2289 16.481 16.8391 16.6272 17.5954C16.8847 18.9525 15.7178 20.1194 14.3606 19.8643C13.602 19.7204 12.9919 19.108 12.8457 18.3493C12.5882 16.9922 13.7574 15.8276 15.1123 16.0828V16.0851ZM21.6475 16.4377L19.3972 17.6093L18.4251 15.7417C17.3951 13.7652 14.9592 12.995 12.9849 14.0227L11.1359 14.9831L10.0804 12.9532L17.8568 8.91189C19.8983 7.85168 22.4154 8.62886 23.5058 10.6426C24.6263 12.7142 23.7354 15.352 21.6452 16.44L21.6475 16.4377Z" fill="#EDFCF7" fill-opacity="0.62"/>
<path d="M44.6194 15.6583L44.3294 14.786H47.3569L49.5492 22.3953L51.723 14.786H54.5951L51.1407 24.7246L51.0641 24.938L50.2104 27.2857C49.9784 27.8286 49.7325 28.2485 49.4727 28.5478C49.2013 28.8587 48.8904 29.0582 48.5401 29.1486C48.1526 29.253 47.6539 29.3041 47.046 29.3041L46.3663 29.2855L45.842 29.267V27.0746L46.3269 27.1141C46.6772 27.1141 46.9672 27.0816 47.1992 27.0166C47.4195 26.9517 47.6121 26.8102 47.7815 26.5898C47.858 26.4599 47.923 26.3183 47.9763 26.1629C48.0413 25.9564 48.0993 25.7476 48.1503 25.5412L44.6171 15.6629L44.6194 15.6583Z" fill="#EDFCF7" fill-opacity="0.62"/>
<path d="M55.9917 14.786H58.6109V16.3009C59.3092 15.1108 60.3578 14.5145 61.7544 14.5145C62.4921 14.5145 63.1394 14.6514 63.6961 14.9228C64.239 15.2082 64.6543 15.6026 64.9373 16.106C65.2227 16.6234 65.3642 17.2451 65.3642 17.9689V25.1305H62.6267V18.8806C62.6267 18.2334 62.5223 17.73 62.3158 17.3657C62.1093 17.0038 61.6175 16.8229 60.8403 16.8229C60.0631 16.8229 59.5667 17.0549 59.2303 17.5212C58.8939 17.9991 58.7245 18.5628 58.7245 19.2101V25.1305H55.987V14.786H55.9917Z" fill="#EDFCF7" fill-opacity="0.62"/>
<path d="M67.8325 20.0847C68.4009 19.5534 69.1201 19.224 69.9878 19.0941L72.491 18.7252C73.0849 18.6347 73.3841 18.3819 73.3841 17.9689C73.3841 17.1268 72.8413 16.7069 71.7532 16.7069C71.2104 16.7069 70.7835 16.8043 70.4726 16.9969C70.1873 17.2033 70.0133 17.5931 69.9483 18.1615H67.3291C67.4057 17.3193 67.6145 16.635 67.9509 16.1037C68.3012 15.5608 68.7791 15.1664 69.3869 14.9205C69.6723 14.8045 70.0272 14.7071 70.4541 14.6305C70.867 14.554 71.3008 14.5145 71.7555 14.5145C72.9967 14.5145 73.9363 14.6885 74.5696 15.0388C75.2169 15.4008 75.6252 15.8091 75.7922 16.2614C75.9592 16.6883 76.0451 17.1036 76.0451 17.5026V25.1305H73.7344C73.7205 25.0656 73.695 24.982 73.6579 24.8776C73.6184 24.7477 73.5929 24.6642 73.5813 24.6248C73.5048 24.3278 73.4653 24.0889 73.4653 23.9079C73.18 24.2188 72.883 24.4763 72.5722 24.6851C72.2497 24.8916 71.8994 25.0679 71.5235 25.2094C71.1477 25.3393 70.7209 25.4043 70.243 25.4043C69.7372 25.4043 69.2338 25.3138 68.728 25.1328C68.2501 24.9658 67.8418 24.641 67.5054 24.1631C67.1551 23.7107 66.9811 23.1354 66.9811 22.4348C66.9811 21.4001 67.2665 20.6159 67.8349 20.087L67.8325 20.0847ZM72.3935 20.5115L71.092 20.783C70.6907 20.8735 70.3613 21.0289 70.1014 21.2493C69.8416 21.4813 69.714 21.8316 69.714 22.2979C69.714 22.6737 69.837 22.9591 70.0829 23.1516C70.3288 23.3581 70.6466 23.4625 71.034 23.4625C71.2289 23.4625 71.389 23.4439 71.5189 23.4045C71.6604 23.379 71.8483 23.321 72.0827 23.2305C72.433 23.089 72.7369 22.8686 72.9944 22.5693C73.2519 22.2468 73.3818 21.8641 73.3818 21.4233V20.0847C73.1498 20.2796 72.8181 20.4211 72.3912 20.5115H72.3935Z" fill="#EDFCF7" fill-opacity="0.62"/>
<path d="M89.6677 17.8923C89.8742 17.2195 90.2036 16.6303 90.6583 16.1268C91.0991 15.6234 91.6489 15.2267 92.3078 14.9437C92.955 14.6583 93.7369 14.5168 94.6556 14.5168C95.4977 14.5168 96.2285 14.6398 96.8479 14.8857C97.5067 15.1455 98.0566 15.5144 98.4974 15.9923C98.9497 16.4841 99.3 17.0525 99.546 17.6997C99.7919 18.3586 99.9148 19.1172 99.9148 19.9709C99.9148 21.0311 99.713 21.9638 99.314 22.7665C98.8987 23.5947 98.3048 24.235 97.5276 24.6874C96.7388 25.1653 95.7807 25.4065 94.6556 25.4065C93.4399 25.4065 92.4307 25.1421 91.6281 24.6108C90.8393 24.0934 90.2639 23.4207 89.8997 22.5925C89.5239 21.7642 89.336 20.892 89.336 19.9733C89.336 19.2866 89.445 18.5952 89.6654 17.8969L89.6677 17.8923ZM96.5973 17.7369C96.2215 17.129 95.5742 16.8251 94.6556 16.8251C93.7369 16.8251 93.0455 17.129 92.6952 17.7369C92.3333 18.3447 92.1524 19.0894 92.1524 19.9686C92.1524 20.8479 92.3333 21.5531 92.6952 22.161C93.0455 22.7943 93.6974 23.1121 94.6556 23.1121C95.6137 23.1121 96.2331 22.7943 96.5973 22.161C96.9476 21.5392 97.1216 20.8084 97.1216 19.9686C97.1216 19.1288 96.9476 18.3586 96.5973 17.7369Z" fill="#EDFCF7" fill-opacity="0.62"/>
<path d="M101.952 16.7462H100.555V14.7859H101.952V12.0112H104.689V14.7859H106.36V16.7462H104.689V22.3558C104.689 22.7061 104.747 22.9311 104.863 23.0355C104.993 23.1399 105.297 23.191 105.775 23.191L106.086 23.1724L106.357 23.1538V25.2116L105.736 25.2302L105.095 25.2487H104.726C104.003 25.2487 103.425 25.1583 102.998 24.9773C102.571 24.7963 102.293 24.5435 102.163 24.221C102.021 23.8707 101.949 23.4717 101.949 23.017V16.7485L101.952 16.7462Z" fill="#EDFCF7" fill-opacity="0.62"/>
<path d="M87.7259 17.5026V11.1762H85.0278L84.9884 16.1454C84.2762 15.0574 83.267 14.5145 81.9609 14.5145C81.2626 14.5145 80.6478 14.656 80.1166 14.9414C79.5737 15.2268 79.1144 15.6211 78.7385 16.1246C78.3882 16.6164 78.1237 17.1848 77.9428 17.832C77.7618 18.5187 77.6714 19.1985 77.6714 19.8689C77.6714 20.4651 77.7224 21.0219 77.8268 21.5369C77.9173 22.0149 78.0657 22.4812 78.2722 22.9335C78.648 23.7478 79.1654 24.3626 79.8242 24.7779C80.4576 25.1839 81.1814 25.3903 81.9887 25.3973C82.5316 25.3903 82.7729 25.3254 83.1255 25.2047C83.5013 25.0632 83.8493 24.8869 84.1741 24.6804C84.4827 24.4763 84.7773 24.2188 85.0603 23.9102C85.0603 23.9079 85.065 23.9056 85.065 23.9033C85.065 24.0842 85.1044 24.3232 85.181 24.6201C85.1949 24.6596 85.2204 24.7431 85.2575 24.873C85.297 24.9774 85.3225 25.0609 85.3341 25.1259H87.7213V17.5026H87.7259ZM84.8933 21.6761C84.7123 22.1424 84.4409 22.4974 84.079 22.7433C83.7171 23.0147 83.2647 23.1516 82.7195 23.1516C81.9307 23.1516 81.36 22.8291 81.012 22.1819C80.6617 21.5346 80.4877 20.8224 80.4877 20.0476C80.4877 19.1149 80.6687 18.3517 81.0306 17.7578C81.3925 17.1639 81.9818 16.8646 82.7961 16.8646C84.362 16.8646 85.1438 17.9782 85.1438 20.203C85.1438 20.7598 85.0603 21.2516 84.891 21.6785L84.8933 21.6761Z" fill="#EDFCF7" fill-opacity="0.62"/>
<path d="M43.1625 17.5026V11.1762H40.4644L40.425 16.1454C39.7128 15.0574 38.7036 14.5145 37.3975 14.5145C36.6992 14.5145 36.0844 14.656 35.5531 14.9414C35.0103 15.2268 34.5509 15.6211 34.1751 16.1246C33.8248 16.6164 33.5603 17.1848 33.3794 17.832C33.1984 18.5187 33.1079 19.1985 33.1079 19.8689C33.1079 20.4651 33.159 21.0219 33.2634 21.5369C33.3539 22.0149 33.5023 22.4812 33.7088 22.9335C34.0846 23.7478 34.602 24.3626 35.2608 24.7779C35.8942 25.1839 36.618 25.3903 37.4253 25.3973C37.9682 25.3903 38.2095 25.3254 38.5621 25.2047C38.9379 25.0632 39.2859 24.8869 39.6107 24.6804C39.9192 24.4763 40.2139 24.2188 40.4969 23.9102C40.4969 23.9079 40.5015 23.9056 40.5015 23.9033C40.5015 24.0842 40.541 24.3232 40.6175 24.6201C40.6315 24.6596 40.657 24.7431 40.6941 24.873C40.7335 24.9774 40.7591 25.0609 40.7707 25.1259H43.1579V17.5026H43.1625ZM40.3299 21.6761C40.1489 22.1424 39.8775 22.4974 39.5156 22.7433C39.1537 23.0147 38.7013 23.1516 38.1561 23.1516C37.3673 23.1516 36.7966 22.8291 36.4486 22.1819C36.0983 21.5346 35.9243 20.8224 35.9243 20.0476C35.9243 19.1149 36.1053 18.3517 36.4672 17.7578C36.8291 17.1639 37.4184 16.8646 38.2327 16.8646C39.7986 16.8646 40.5804 17.9782 40.5804 20.203C40.5804 20.7598 40.4969 21.2516 40.3275 21.6785L40.3299 21.6761Z" fill="#EDFCF7" fill-opacity="0.62"/>
</svg>
