<svg width="120" height="32" viewBox="0 0 120 32" fill="none" xmlns="http://www.w3.org/2000/svg">
<path d="M58.6453 8.24291H60.6422L60.6265 7.6976H58.6297V6.40298C58.6067 6.2462 58.6191 6.08628 58.666 5.93491C58.7128 5.78354 58.7929 5.64456 58.9003 5.52812C59.1321 5.37549 59.4084 5.30504 59.685 5.32805H60.6422V4.7435H59.5869C59.0795 4.71482 58.5745 4.83189 58.1314 5.08089C57.7705 5.31628 57.59 5.79489 57.59 6.52459V7.70152H56.2954V8.24291H57.59V14.461H58.6453V8.24291Z" fill="#EDFCF7" fill-opacity="0.62"/>
<path fill-rule="evenodd" clip-rule="evenodd" d="M62.7798 14.3473C63.2021 14.5181 63.6542 14.6034 64.1097 14.5984C64.5633 14.6009 65.0127 14.5128 65.4318 14.3394C65.8324 14.1787 66.1946 13.9354 66.495 13.6254C66.8029 13.3031 67.0442 12.9231 67.2051 12.5074C67.3857 12.0382 67.4749 11.5388 67.4679 11.0362C67.4729 10.5472 67.3864 10.0615 67.2129 9.60426C67.0538 9.19527 66.8151 8.82192 66.5107 8.50579C66.2059 8.20033 65.8431 7.9589 65.4436 7.79571C64.5855 7.45557 63.63 7.45557 62.772 7.79571C62.3678 7.95728 62.0019 8.20167 61.6979 8.51315C61.3938 8.82463 61.1583 9.1963 61.0066 9.60426C60.8295 10.0606 60.7416 10.5467 60.7476 11.0362C60.7413 11.5384 60.8291 12.0374 61.0066 12.5074C61.1624 12.927 61.4028 13.3102 61.7127 13.6333C62.0138 13.9442 62.3776 14.1875 62.7798 14.3473ZM65.0484 13.8693C64.7598 14.0222 64.4361 14.0964 64.1097 14.0844C63.7828 14.0967 63.4584 14.0226 63.1692 13.8698C62.8799 13.7169 62.6361 13.4905 62.462 13.2135C62.2732 12.9172 62.1402 12.5888 62.0697 12.2445C61.9809 11.8479 61.9375 11.4426 61.9403 11.0362C61.9376 10.6402 61.981 10.2452 62.0697 9.85926C62.1401 9.5223 62.2732 9.20157 62.462 8.91379C62.6375 8.65418 62.8713 8.43922 63.1446 8.2861C63.4437 8.13659 63.7734 8.05875 64.1078 8.05875C64.4421 8.05875 64.7718 8.13659 65.0709 8.2861C65.3443 8.43922 65.578 8.65418 65.7535 8.91379C65.9406 9.20251 66.0736 9.52289 66.1458 9.85926C66.2311 10.2457 66.2732 10.6404 66.2714 11.0362C66.2735 11.4423 66.2314 11.8475 66.1458 12.2445C66.0735 12.5882 65.9407 12.9163 65.7535 13.2135C65.5801 13.4902 65.3369 13.7164 65.0484 13.8693Z" fill="#EDFCF7" fill-opacity="0.62"/>
<path fill-rule="evenodd" clip-rule="evenodd" d="M71.8934 14.5984C71.4379 14.6034 70.9858 14.5181 70.5635 14.3473C70.1604 14.187 69.7955 13.9437 69.4925 13.6333C69.1839 13.3092 68.9437 12.9263 68.7863 12.5074C68.6102 12.0372 68.5238 11.5382 68.5313 11.0362C68.5241 10.547 68.6106 10.0609 68.7863 9.60426C68.9392 9.1969 69.175 8.82577 69.4789 8.51443C69.7829 8.20308 70.1482 7.95833 70.5517 7.79571C71.4098 7.45557 72.3653 7.45557 73.2234 7.79571C73.6233 7.95795 73.9863 8.1995 74.2904 8.50579C74.5961 8.82093 74.835 9.19455 74.9927 9.60426C75.1662 10.0615 75.2527 10.5472 75.2477 11.0362C75.2547 11.5388 75.1654 12.0382 74.9848 12.5074C74.8239 12.9222 74.5841 13.3018 74.2787 13.6254C73.976 13.9344 73.6127 14.1775 73.2116 14.3394C72.7937 14.5123 72.3456 14.6003 71.8934 14.5984ZM71.8934 14.0844C72.2293 14.0925 72.5616 14.0141 72.8585 13.8569C73.1348 13.7022 73.368 13.4811 73.5372 13.2135C73.7244 12.9163 73.8572 12.5882 73.9295 12.2445C74.0184 11.8479 74.0618 11.4426 74.059 11.0362C74.0617 10.6402 74.0182 10.2452 73.9295 9.85926C73.8573 9.52289 73.7243 9.20251 73.5372 8.91379C73.2496 8.51403 72.8281 8.23078 72.3493 8.11559C71.8705 8.00039 71.3663 8.06089 70.9284 8.2861C70.655 8.43922 70.4212 8.65418 70.2457 8.91379C70.0586 9.20247 69.9256 9.52287 69.8534 9.85926C69.7647 10.2452 69.7213 10.6402 69.724 11.0362C69.7212 11.4426 69.7646 11.8479 69.8534 12.2445C69.9256 12.5882 70.0585 12.9164 70.2457 13.2135C70.4198 13.4905 70.6636 13.7169 70.9529 13.8698C71.2421 14.0226 71.5665 14.0967 71.8934 14.0844Z" fill="#EDFCF7" fill-opacity="0.62"/>
<path d="M77.4442 14.1668C77.8058 14.4014 78.2346 14.5103 78.6643 14.4767H79.4058L79.9393 14.4571V13.9432H79.0056C78.7506 13.9729 78.4941 13.9011 78.2916 13.7431C78.1411 13.5108 78.0746 13.2339 78.1033 12.9585V8.25079H79.9393V7.7094H78.1033V5.74785H78.0641L77.0519 6.46186V7.70156H75.824V8.24294H77.0519V12.9232C77.0519 13.547 77.1774 13.9589 77.4442 14.1668Z" fill="#EDFCF7" fill-opacity="0.62"/>
<path d="M82.3094 11.3186V14.4571H81.262V4.74353H82.3133V8.80786C82.3194 8.89406 82.3194 8.98058 82.3133 9.06678C82.4806 8.63009 82.7726 8.25219 83.1529 7.98009C83.5534 7.6924 84.037 7.5436 84.5299 7.55639C85.1567 7.54012 85.7679 7.7536 86.2482 8.15663C86.719 8.54894 86.9583 9.26294 86.9583 10.279V14.461H85.903V10.2006C85.903 9.4434 85.7578 8.90986 85.4636 8.59209C85.3207 8.43742 85.1462 8.31532 84.9519 8.23409C84.7576 8.15286 84.5481 8.1144 84.3377 8.12132C84.0511 8.12775 83.7706 8.20577 83.5219 8.3483C83.2732 8.49082 83.0641 8.69331 82.9136 8.93732C82.4723 9.65017 82.2614 10.4817 82.3094 11.3186Z" fill="#EDFCF7" fill-opacity="0.62"/>
<path d="M88.9199 4.95147V6.15193H90.0969V4.95147H88.9199Z" fill="#EDFCF7" fill-opacity="0.62"/>
<path d="M88.9748 7.70156V14.4611H90.0262V7.70156H88.9748Z" fill="#EDFCF7" fill-opacity="0.62"/>
<path d="M92.1995 14.461V4.74353H93.2508V14.461H92.1995Z" fill="#EDFCF7" fill-opacity="0.62"/>
<path d="M95.4243 4.74353V14.461H96.4757V4.74353H95.4243Z" fill="#EDFCF7" fill-opacity="0.62"/>
<path d="M62.396 18.8902L59.846 25.6497H59.0339L56.2014 18.8902H57.3313L59.638 24.5317L61.7173 18.8902H62.396Z" fill="#EDFCF7" fill-opacity="0.62"/>
<path fill-rule="evenodd" clip-rule="evenodd" d="M67.9468 25.1829C68.4572 24.8023 68.8026 24.2408 68.9119 23.6137L68.2764 23.6058C68.1887 24.0736 67.9317 24.4926 67.5545 24.7827C67.1454 25.0916 66.6428 25.2509 66.1304 25.2339C65.8045 25.2491 65.4801 25.1794 65.1892 25.0316C64.8983 24.8837 64.6508 24.6628 64.471 24.3904C64.0703 23.7413 63.8735 22.987 63.906 22.2249V22.1974H68.959V21.9816C68.969 21.5015 68.8836 21.0241 68.7079 20.5772C68.5465 20.1962 68.3042 19.8549 67.9978 19.5768C67.7082 19.3085 67.3682 19.1004 66.9975 18.9648C66.6208 18.8256 66.2221 18.7552 65.8205 18.7569C65.43 18.7573 65.0434 18.8346 64.6828 18.9844C64.3088 19.1389 63.9689 19.3655 63.6824 19.6513C63.3812 19.958 63.1427 20.3205 62.9802 20.7184C62.7991 21.1942 62.7099 21.7001 62.7173 22.2092C62.7108 22.7197 62.7959 23.2273 62.9684 23.7078C63.1193 24.1249 63.3559 24.5057 63.6628 24.8259C63.9594 25.132 64.3179 25.3714 64.7142 25.5281C65.1316 25.6916 65.5763 25.7742 66.0245 25.7714C66.713 25.7952 67.3897 25.588 67.9468 25.1829ZM65.0886 19.4038C65.3183 19.3005 65.5687 19.251 65.8205 19.259C66.0859 19.2401 66.3519 19.2863 66.5953 19.3936C66.8387 19.501 67.0522 19.6662 67.2171 19.8749C67.5631 20.4043 67.7358 21.0281 67.7115 21.66H63.9178C63.9102 21.0119 64.1125 20.3788 64.4945 19.8553C64.6556 19.6616 64.8588 19.5072 65.0886 19.4038Z" fill="#EDFCF7" fill-opacity="0.62"/>
<path d="M71.5681 22.5073V25.6458H70.5167V18.8902H71.5446V20.2829C71.7117 19.843 72.0018 19.4603 72.3802 19.1805C72.7817 18.8848 73.2705 18.7316 73.769 18.7451C74.3959 18.7281 75.0073 18.9416 75.4873 19.3453C75.9633 19.7455 76.2 20.4529 76.1974 21.4677V25.6497H75.146V21.3892C75.2007 20.8174 75.0444 20.2453 74.7066 19.7808C74.5635 19.6263 74.389 19.5043 74.1947 19.4231C74.0005 19.3419 73.7911 19.3033 73.5807 19.31C73.2941 19.3164 73.0136 19.3944 72.7649 19.537C72.5162 19.6795 72.307 19.882 72.1566 20.126C71.7189 20.8398 71.5133 21.6718 71.5681 22.5073Z" fill="#EDFCF7" fill-opacity="0.62"/>
<path d="M78.8336 25.3555C79.1963 25.5909 79.6266 25.6998 80.0576 25.6654H80.7952L81.3287 25.6458V25.1318H80.3989C80.1426 25.1622 79.8847 25.0903 79.681 24.9318C79.5305 24.6994 79.464 24.4225 79.4927 24.1471V19.4394H81.3287V18.898H79.4927V16.9365H79.4535L78.4413 17.6505V18.8902H77.2134V19.4316H78.4413V24.1118C78.4413 24.7356 78.5708 25.1475 78.8336 25.3555Z" fill="#EDFCF7" fill-opacity="0.62"/>
<path d="M87.0723 25.6497V24.4218C86.9119 24.816 86.639 25.1544 86.2877 25.3947C85.8979 25.6646 85.4317 25.8021 84.9578 25.787C84.6531 25.7865 84.3503 25.7402 84.0594 25.6497C83.7692 25.5635 83.5014 25.4149 83.2748 25.2143C83.0338 24.9959 82.8425 24.7283 82.7138 24.4296C82.5593 24.0461 82.4858 23.6347 82.498 23.2213V18.9059H83.5494V23.2919C83.5252 23.5556 83.5559 23.8214 83.6396 24.0726C83.7233 24.3238 83.8583 24.5549 84.0359 24.7513C84.3328 25.0381 84.7294 25.1985 85.1422 25.1986C85.4041 25.1966 85.6619 25.1327 85.8945 25.012C86.127 24.8913 86.3276 24.7173 86.48 24.5042C86.8955 23.8839 87.0903 23.1419 87.0331 22.3975V18.8667H88.0845V25.6497H87.0723Z" fill="#EDFCF7" fill-opacity="0.62"/>
<path d="M91.3086 25.6615V21.7384C91.2988 21.4038 91.3438 21.0698 91.442 20.7497C91.514 20.5217 91.636 20.3127 91.799 20.1377C91.9364 19.9953 92.1059 19.8877 92.2933 19.8239C92.4724 19.7679 92.6588 19.7388 92.8464 19.7376C92.9657 19.7379 93.0849 19.7445 93.2035 19.7572L93.5055 19.7925V18.8863L93.3329 18.8667H93.1446C92.7896 18.8596 92.4398 18.9526 92.1352 19.1351C91.8307 19.3176 91.5836 19.5821 91.4224 19.8984C91.3647 20.0075 91.3174 20.1218 91.2811 20.2397V18.8902H90.2572V25.6615H91.3086Z" fill="#EDFCF7" fill-opacity="0.62"/>
<path fill-rule="evenodd" clip-rule="evenodd" d="M100.12 23.6136C100.008 24.2397 99.6629 24.8002 99.1548 25.1829C98.5974 25.5874 97.9209 25.7945 97.2325 25.7713C96.7842 25.7748 96.3394 25.6922 95.9222 25.5281C95.5253 25.3723 95.1667 25.1328 94.8708 24.8259C94.5639 24.5057 94.3273 24.1249 94.1764 23.7078C94.0019 23.2278 93.9168 22.7198 93.9254 22.2092C93.916 21.6999 94.0052 21.1937 94.1882 20.7184C94.3493 20.3197 94.588 19.9569 94.8904 19.6513C95.1748 19.3647 95.5136 19.138 95.8869 18.9844C96.2489 18.8346 96.6368 18.7572 97.0285 18.7568C97.4301 18.7558 97.8286 18.8262 98.2055 18.9648C98.5755 19.0996 98.9144 19.3077 99.2019 19.5768C99.4996 19.8612 99.7324 20.2064 99.8845 20.5889C100.057 21.0367 100.141 21.5137 100.132 21.9934V22.2092H95.1141V22.2366C95.0815 22.9987 95.2783 23.7531 95.679 24.4022C95.86 24.6744 96.1092 24.8944 96.4018 25.0403C96.6943 25.1862 97.0199 25.253 97.3463 25.2339C97.8585 25.2502 98.361 25.091 98.7704 24.7827C99.1457 24.4909 99.4022 24.0726 99.4922 23.6058L100.12 23.6136ZM97.0285 19.259C96.7761 19.2509 96.5252 19.3004 96.2948 19.4037C96.0643 19.5071 95.8605 19.6615 95.6986 19.8553C95.318 20.3793 95.117 21.0123 95.1258 21.6599H98.9155C98.9399 21.0281 98.7672 20.4043 98.4212 19.8749C98.2564 19.667 98.0435 19.5023 97.8009 19.395C97.5583 19.2877 97.2932 19.241 97.0285 19.259Z" fill="#EDFCF7" fill-opacity="0.62"/>
<path d="M101.799 25.1672C102.384 25.6224 103.115 25.8472 103.855 25.7988C104.187 25.7958 104.517 25.747 104.835 25.6536C105.141 25.5718 105.43 25.4392 105.691 25.2613C105.939 25.0905 106.148 24.8684 106.303 24.6101C106.463 24.3408 106.545 24.0327 106.542 23.7196C106.561 23.4665 106.516 23.2129 106.411 22.9819C106.306 22.7509 106.145 22.5499 105.942 22.3975C105.442 22.0658 104.88 21.8389 104.29 21.7305L103.533 21.5697C103.181 21.5168 102.847 21.3825 102.556 21.1774C102.451 21.0918 102.367 20.9825 102.312 20.8584C102.257 20.7343 102.231 20.599 102.238 20.4634C102.241 20.291 102.285 20.1217 102.367 19.97C102.449 19.8183 102.566 19.6888 102.709 19.5925C103.051 19.347 103.465 19.2215 103.886 19.2355C104.3 19.2171 104.706 19.3574 105.02 19.6278C105.307 19.8989 105.477 20.2724 105.491 20.6674H106.475C106.461 20.3883 106.382 20.1164 106.246 19.8722C106.11 19.6281 105.92 19.4184 105.691 19.259C105.161 18.8902 104.527 18.703 103.882 18.7254C103.551 18.7239 103.222 18.7715 102.905 18.8667C102.613 18.9495 102.337 19.0822 102.089 19.259C101.858 19.4324 101.671 19.6565 101.54 19.9141C101.399 20.1752 101.327 20.4685 101.332 20.7655C101.318 20.9887 101.358 21.2121 101.448 21.4169C101.538 21.6216 101.676 21.8018 101.85 21.9424C102.291 22.2427 102.789 22.4484 103.313 22.5465L104.016 22.7113C104.434 22.7931 104.833 22.9528 105.193 23.1821C105.327 23.2721 105.437 23.3949 105.511 23.5391C105.585 23.6832 105.621 23.8439 105.616 24.0059C105.625 24.1966 105.583 24.3863 105.493 24.5548C105.403 24.7233 105.27 24.8644 105.106 24.9632C104.731 25.188 104.3 25.3009 103.863 25.2888C103.616 25.3035 103.37 25.2664 103.138 25.1799C102.907 25.0934 102.697 24.9595 102.521 24.7866C102.196 24.444 102.011 23.9918 102.003 23.5195H101.014C101.027 23.833 101.103 24.1407 101.237 24.4239C101.372 24.7072 101.563 24.96 101.799 25.1672Z" fill="#EDFCF7" fill-opacity="0.62"/>
<path d="M37.7942 28.145L31.6232 17.4584L28.01 23.7354C27.8026 24.0903 27.5058 24.3846 27.1493 24.5892C26.7928 24.7938 26.3889 24.9014 25.9778 24.9014C25.5668 24.9014 25.1629 24.7938 24.8064 24.5892C24.4498 24.3846 24.1531 24.0903 23.9457 23.7354L19.489 15.9951H51.2112L44.1967 28.1567C43.8714 28.7183 43.404 29.1843 42.8414 29.5079C42.2789 29.8315 41.641 30.0012 40.992 30C40.3431 29.9988 39.7058 29.8267 39.1445 29.5011C38.5831 29.1755 38.1174 28.7077 37.7942 28.145Z" fill="#EDFCF7" fill-opacity="0.62"/>
<path opacity="0.5" d="M13 15.9951L17.4566 8.27442C17.6641 7.91955 17.9608 7.62518 18.3173 7.42061C18.6739 7.21604 19.0778 7.1084 19.4888 7.1084C19.8999 7.1084 20.3037 7.21604 20.6603 7.42061C21.0168 7.62518 21.3135 7.91955 21.521 8.27442L23.2707 11.3031L27.5861 3.84917C27.9103 3.28699 28.3769 2.82012 28.9389 2.49551C29.5008 2.1709 30.1384 2 30.7873 2C31.4363 2 32.0738 2.1709 32.6358 2.49551C33.1978 2.82012 33.6643 3.28699 33.9886 3.84917L41.0031 16.0108H13V15.9951Z" fill="#EDFCF7" fill-opacity="0.62"/>
</svg>
