<svg width="120" height="32" viewBox="0 0 120 32" fill="none" xmlns="http://www.w3.org/2000/svg">
<path d="M76.7876 22.5169C75.841 22.5389 74.8998 22.3677 74.0217 22.0137C73.1435 21.6598 72.3466 21.1305 71.6799 20.4583C71.0131 19.786 70.4903 18.9849 70.1436 18.1039C69.7968 17.2228 69.6332 16.2803 69.6629 15.3339C69.6385 14.3937 69.8053 13.4583 70.1534 12.5845C70.5015 11.7107 71.0235 10.9168 71.6878 10.2509C72.3497 9.5738 73.1444 9.04074 74.0219 8.68513C74.8995 8.32952 75.841 8.15903 76.7876 8.18434C77.7354 8.16098 78.6765 8.35019 79.5416 8.73807C80.4068 9.12596 81.1741 9.70268 81.7873 10.4259L80.5623 11.6508C80.1131 11.0828 79.5386 10.6264 78.8838 10.3171C78.229 10.0077 77.5116 9.8539 76.7876 9.86758C76.0818 9.85035 75.3801 9.97746 74.7252 10.2411C74.0704 10.5048 73.4763 10.8994 72.9794 11.4008C72.4718 11.9184 72.0755 12.5343 71.8147 13.2107C71.5539 13.887 71.4341 14.6096 71.4628 15.3339C71.4318 16.0611 71.5504 16.7868 71.8113 17.4662C72.0722 18.1456 72.4698 18.7642 72.9794 19.2837C73.4751 19.7868 74.069 20.1825 74.7241 20.4462C75.3792 20.71 76.0816 20.8362 76.7876 20.817C77.5885 20.8131 78.3784 20.63 79.0994 20.281C79.8203 19.9321 80.454 19.4262 80.954 18.8004L82.2373 20.0504C81.5877 20.8269 80.7699 21.4453 79.8457 21.8586C78.8866 22.2987 77.8428 22.5234 76.7876 22.5169ZM85.4287 8.49266V22.2169H83.6622V8.49266H85.4287ZM86.9453 17.5172C86.9261 16.8594 87.0369 16.2042 87.2714 15.5894C87.5059 14.9745 87.8595 14.4119 88.3119 13.934C88.7596 13.4701 89.2991 13.1045 89.896 12.8606C90.4928 12.6167 91.1339 12.4998 91.7784 12.5174C92.4205 12.4991 93.0594 12.6157 93.6536 12.8597C94.2478 13.1037 94.7843 13.4697 95.2282 13.934C95.6852 14.4091 96.0423 14.971 96.2784 15.5864C96.5146 16.2018 96.625 16.8583 96.6031 17.5172C96.6274 18.1763 96.518 18.8334 96.2818 19.4492C96.0455 20.065 95.6871 20.6266 95.2282 21.1003C94.7856 21.5663 94.2494 21.9334 93.6548 22.1776C93.0603 22.4217 92.4208 22.5373 91.7784 22.5169C91.1336 22.5365 90.4919 22.4206 89.8948 22.1766C89.2976 21.9326 88.7584 21.5659 88.3119 21.1003C87.8595 20.6224 87.5059 20.0598 87.2714 19.445C87.0369 18.8301 86.9261 18.175 86.9453 17.5172ZM88.7119 17.5172C88.6713 18.4184 88.9889 19.299 89.5952 19.967C89.8756 20.2646 90.214 20.5018 90.5894 20.6638C90.9649 20.8259 91.3695 20.9095 91.7784 20.9095C92.1873 20.9095 92.5919 20.8259 92.9674 20.6638C93.3428 20.5018 93.6812 20.2646 93.9616 19.967C94.5679 19.299 94.8855 18.4184 94.8449 17.5172C94.8837 16.6212 94.5662 15.7463 93.9616 15.084C93.6838 14.7819 93.3463 14.5408 92.9705 14.3759C92.5947 14.211 92.1888 14.1259 91.7784 14.1259C91.368 14.1259 90.9621 14.211 90.5863 14.3759C90.2105 14.5408 89.873 14.7819 89.5952 15.084C88.9906 15.7463 88.673 16.6212 88.7119 17.5172ZM106.353 22.2169H104.686V20.9086H104.603C104.305 21.3977 103.878 21.7955 103.369 22.0586C102.841 22.3582 102.244 22.5161 101.636 22.5169C101.149 22.5485 100.661 22.4772 100.203 22.3078C99.7446 22.1384 99.3274 21.8747 98.978 21.5336C98.3178 20.7526 97.9862 19.7459 98.053 18.7254V12.8341H99.8113V18.6171C99.7745 18.9302 99.8096 19.2475 99.9138 19.545C100.018 19.8425 100.189 20.1124 100.413 20.334C100.637 20.5557 100.909 20.7235 101.207 20.8245C101.506 20.9255 101.823 20.9571 102.136 20.917C102.474 20.9228 102.808 20.8507 103.113 20.7062C103.418 20.5616 103.685 20.3486 103.894 20.0837C104.37 19.5113 104.621 18.7859 104.603 18.0421V12.8341H106.369L106.353 22.2169ZM112.319 22.5169C111.719 22.5168 111.127 22.3871 110.581 22.1369C110.036 21.8867 109.552 21.5217 109.161 21.067C108.285 20.0937 107.809 18.8261 107.828 17.5172C107.799 16.215 108.263 14.9501 109.127 13.9757C109.515 13.5168 109.999 13.1485 110.545 12.8966C111.091 12.6447 111.685 12.5152 112.286 12.5174C112.943 12.5063 113.593 12.658 114.177 12.9591C114.713 13.223 115.167 13.6259 115.494 14.1257H115.569L115.527 12.8341V8.49266H117.285V22.2169H115.619V20.9086H115.544C115.217 21.4084 114.763 21.8113 114.227 22.0752C113.638 22.379 112.982 22.5308 112.319 22.5169ZM112.611 20.9086C113.013 20.9216 113.413 20.8437 113.781 20.6807C114.149 20.5176 114.475 20.2737 114.735 19.967C115.318 19.2881 115.617 18.4106 115.569 17.5172C115.609 16.6299 115.311 15.7603 114.735 15.084C114.476 14.7752 114.15 14.5287 113.782 14.3629C113.414 14.197 113.014 14.1159 112.611 14.1257C112.208 14.1195 111.808 14.2021 111.441 14.3677C111.074 14.5334 110.748 14.7779 110.486 15.084C109.91 15.7603 109.612 16.6299 109.652 17.5172C109.606 18.4053 109.905 19.277 110.486 19.9504C110.748 20.2564 111.074 20.501 111.441 20.6666C111.808 20.8322 112.208 20.9149 112.611 20.9086Z" fill="#E9FDF3" fill-opacity="0.44"/>
<path d="M9.9079 22.5168C7.83438 22.5237 5.84166 21.7133 4.36148 20.2611C2.8813 18.809 2.03287 16.8322 2 14.7589C2.03287 12.6857 2.8813 10.7088 4.36148 9.25672C5.84166 7.80462 7.83438 6.99419 9.9079 7.00103C10.8959 6.98458 11.8773 7.16552 12.7945 7.53326C13.7117 7.901 14.5463 8.44813 15.2493 9.14258L13.741 10.6342C12.7126 9.64395 11.3354 9.09903 9.9079 9.11758C9.16877 9.11532 8.43658 9.26006 7.75391 9.54339C7.07124 9.82671 6.45173 10.243 5.93142 10.7679C5.41111 11.2929 5.00039 11.9161 4.72315 12.6012C4.44592 13.2864 4.3077 14.0199 4.31654 14.7589C4.3077 15.498 4.44592 16.2315 4.72315 16.9166C5.00039 17.6018 5.41111 18.225 5.93142 18.7499C6.45173 19.2749 7.07124 19.6912 7.75391 19.9745C8.43658 20.2578 9.16877 20.4026 9.9079 20.4003C10.636 20.4302 11.3623 20.3069 12.0398 20.0385C12.7173 19.7701 13.3309 19.3625 13.841 18.842C14.521 18.1087 14.9297 17.1648 14.9993 16.1672H9.9079V14.059H17.0742C17.1523 14.4962 17.1886 14.9398 17.1825 15.3839C17.2389 17.2126 16.5746 18.9902 15.3326 20.3336C14.6336 21.0597 13.7889 21.6296 12.854 22.0059C11.919 22.3822 10.915 22.5563 9.9079 22.5168Z" fill="#EDFCF7" fill-opacity="0.62"/>
<path d="M28.2652 17.5172C28.2926 18.1837 28.1849 18.8489 27.9487 19.4728C27.7125 20.0967 27.3526 20.6664 26.8907 21.1476C26.4288 21.6289 25.8743 22.0119 25.2607 22.2735C24.647 22.5351 23.9868 22.6699 23.3197 22.6699C22.6526 22.6699 21.9923 22.5351 21.3787 22.2735C20.765 22.0119 20.2105 21.6289 19.7486 21.1476C19.2867 20.6664 18.9268 20.0967 18.6906 19.4728C18.4544 18.8489 18.3467 18.1837 18.3741 17.5172C18.3467 16.8506 18.4544 16.1854 18.6906 15.5615C18.9268 14.9377 19.2867 14.368 19.7486 13.8867C20.2105 13.4054 20.765 13.0224 21.3787 12.7608C21.9923 12.4992 22.6526 12.3644 23.3197 12.3644C23.9868 12.3644 24.647 12.4992 25.2607 12.7608C25.8743 13.0224 26.4288 13.4054 26.8907 13.8867C27.3526 14.368 27.7125 14.9377 27.9487 15.5615C28.1849 16.1854 28.2926 16.8506 28.2652 17.5172ZM26.0987 17.5172C26.1354 17.1301 26.0909 16.7396 25.968 16.3707C25.845 16.0018 25.6464 15.6626 25.3847 15.375C25.1231 15.0873 24.8043 14.8575 24.4487 14.7003C24.093 14.543 23.7085 14.4618 23.3197 14.4618C22.9308 14.4618 22.5463 14.543 22.1907 14.7003C21.835 14.8575 21.5162 15.0873 21.2546 15.375C20.9929 15.6626 20.7943 16.0018 20.6714 16.3707C20.5484 16.7396 20.5039 17.1301 20.5406 17.5172C20.5039 17.9042 20.5484 18.2948 20.6714 18.6636C20.7943 19.0325 20.9929 19.3717 21.2546 19.6593C21.5162 19.947 21.835 20.1768 22.1907 20.334C22.5463 20.4913 22.9308 20.5725 23.3197 20.5725C23.7085 20.5725 24.093 20.4913 24.4487 20.334C24.8043 20.1768 25.1231 19.947 25.3847 19.6593C25.6464 19.3717 25.845 19.0325 25.968 18.6636C26.0909 18.2948 26.1354 17.9042 26.0987 17.5172Z" fill="#EDFCF7" fill-opacity="0.62"/>
<path d="M39.3563 17.5172C39.3837 18.1837 39.276 18.8489 39.0398 19.4728C38.8036 20.0967 38.4437 20.6664 37.9818 21.1476C37.5198 21.6289 36.9654 22.0119 36.3517 22.2735C35.738 22.5351 35.0778 22.6699 34.4107 22.6699C33.7436 22.6699 33.0834 22.5351 32.4697 22.2735C31.8561 22.0119 31.3016 21.6289 30.8397 21.1476C30.3777 20.6664 30.0179 20.0967 29.7817 19.4728C29.5455 18.8489 29.4378 18.1837 29.4652 17.5172C29.4378 16.8506 29.5455 16.1854 29.7817 15.5615C30.0179 14.9377 30.3777 14.368 30.8397 13.8867C31.3016 13.4054 31.8561 13.0224 32.4697 12.7608C33.0834 12.4992 33.7436 12.3644 34.4107 12.3644C35.0778 12.3644 35.738 12.4992 36.3517 12.7608C36.9654 13.0224 37.5198 13.4054 37.9818 13.8867C38.4437 14.368 38.8036 14.9377 39.0398 15.5615C39.276 16.1854 39.3837 16.8506 39.3563 17.5172ZM37.1897 17.5172C37.2194 17.1336 37.1695 16.748 37.0431 16.3846C36.9167 16.0212 36.7166 15.6878 36.4552 15.4055C36.1939 15.1231 35.877 14.8978 35.5245 14.7437C35.1719 14.5896 34.7913 14.5101 34.4066 14.5101C34.0218 14.5101 33.6412 14.5896 33.2887 14.7437C32.9361 14.8978 32.6192 15.1231 32.3579 15.4055C32.0965 15.6878 31.8964 16.0212 31.77 16.3846C31.6436 16.748 31.5937 17.1336 31.6234 17.5172C31.5937 17.9008 31.6436 18.2864 31.77 18.6497C31.8964 19.0131 32.0965 19.3465 32.3579 19.6288C32.6192 19.9112 32.9361 20.1365 33.2887 20.2906C33.6412 20.4447 34.0218 20.5242 34.4066 20.5242C34.7913 20.5242 35.1719 20.4447 35.5245 20.2906C35.877 20.1365 36.1939 19.9112 36.4552 19.6288C36.7166 19.3465 36.9167 19.0131 37.0431 18.6497C37.1695 18.2864 37.2194 17.9008 37.1897 17.5172Z" fill="#EDFCF7" fill-opacity="0.62"/>
<path d="M50.164 12.834V21.8002C50.164 25.4833 47.9725 26.9999 45.3893 26.9999C44.4386 27.0051 43.5079 26.7274 42.7155 26.2021C41.9231 25.6769 41.3049 24.9277 40.9395 24.0501L42.8644 23.2168C43.0584 23.7277 43.3993 24.1697 43.8442 24.4871C44.2891 24.8044 44.8181 24.9829 45.3643 25C47.0309 25 48.0475 23.9751 48.0475 22.0668V21.3502H47.9975C47.6642 21.7263 47.253 22.0255 46.7926 22.2269C46.3322 22.4284 45.8334 22.5273 45.331 22.5168C44.005 22.5168 42.7333 21.99 41.7956 21.0524C40.858 20.1148 40.3312 18.8431 40.3312 17.5171C40.3312 16.1911 40.858 14.9194 41.7956 13.9817C42.7333 13.0441 44.005 12.5174 45.331 12.5174C45.8317 12.5081 46.3286 12.6059 46.7885 12.8042C47.2483 13.0025 47.6605 13.2968 47.9975 13.6673H48.0725V12.834H50.164ZM48.2225 17.5504C48.2531 17.1726 48.2073 16.7925 48.088 16.4328C47.9686 16.073 47.7781 15.741 47.5277 15.4564C47.2774 15.1718 46.9723 14.9406 46.6307 14.7763C46.2891 14.6121 45.9179 14.5183 45.5393 14.5006C45.1547 14.5144 44.7768 14.6047 44.4274 14.7661C44.0781 14.9275 43.7644 15.1568 43.5045 15.4406C43.2447 15.7245 43.044 16.0572 42.9141 16.4195C42.7842 16.7817 42.7276 17.1661 42.7478 17.5504C42.7299 17.9321 42.7883 18.3135 42.9195 18.6724C43.0508 19.0312 43.2523 19.3603 43.5122 19.6404C43.7721 19.9205 44.0852 20.1459 44.4333 20.3036C44.7813 20.4612 45.1573 20.5479 45.5393 20.5586C45.9164 20.5452 46.2869 20.4555 46.6283 20.2949C46.9698 20.1342 47.2752 19.9061 47.5259 19.6241C47.7767 19.3422 47.9678 19.0123 48.0875 18.6544C48.2072 18.2966 48.2531 17.9182 48.2225 17.5421V17.5504Z" fill="#EDFCF7" fill-opacity="0.62"/>
<path d="M54.0221 7.53433V22.2169H51.8223V7.53433H54.0221Z" fill="#EDFCF7" fill-opacity="0.62"/>
<path d="M62.6883 19.167L64.4049 20.3336C63.9466 21.0176 63.3265 21.5777 62.5997 21.9644C61.8728 22.3511 61.0617 22.5523 60.2385 22.5502C59.5835 22.5595 58.9335 22.4359 58.3278 22.1868C57.722 21.9377 57.1731 21.5682 56.7143 21.1008C56.2554 20.6334 55.8962 20.0778 55.6583 19.4675C55.4205 18.8572 55.3089 18.2051 55.3304 17.5504C55.2328 16.425 55.5528 15.3031 56.2294 14.3985C56.9059 13.4938 57.8917 12.8698 58.9988 12.6453C60.1059 12.4208 61.2569 12.6115 62.2324 13.1811C63.2079 13.7507 63.9397 14.6594 64.2882 15.7339L64.5132 16.3088L57.8469 19.067C58.0546 19.5339 58.3974 19.9279 58.8311 20.1982C59.2648 20.4685 59.7695 20.6028 60.2801 20.5836C60.769 20.5725 61.247 20.4365 61.6685 20.1886C62.09 19.9406 62.4411 19.589 62.6883 19.167ZM57.4303 17.3671L61.9134 15.5172C61.7339 15.1854 61.4621 14.9127 61.1308 14.7322C60.7995 14.5518 60.4229 14.4713 60.0468 14.5006C59.6867 14.5167 59.3332 14.6036 59.0067 14.7564C58.6802 14.9092 58.387 15.1249 58.144 15.3912C57.901 15.6574 57.7128 15.969 57.5903 16.3081C57.4679 16.6471 57.4135 17.007 57.4303 17.3671Z" fill="#EDFCF7" fill-opacity="0.62"/>
</svg>
