<svg width="120" height="32" viewBox="0 0 120 32" fill="none" xmlns="http://www.w3.org/2000/svg">
<path fill-rule="evenodd" clip-rule="evenodd" d="M4.82329 23.0262C5.82156 23.7963 7.067 24.2526 8.41702 24.2526H12.9996V24.2414L13.0013 24.2431H17.5838C20.8734 24.2431 23.5449 21.5715 23.5449 18.282C23.5449 16.2569 22.5181 14.46 20.9684 13.3857C20.5406 11.817 19.6659 10.4289 18.4775 9.37357C17.0229 8.08057 15.1017 7.2915 13.0006 7.2915C9.20108 7.2915 5.99943 9.87288 5.04552 13.3763C3.48215 14.4515 2.45605 16.2528 2.45605 18.2914C2.45605 20.2214 3.38777 21.9423 4.81388 23.0356L4.82329 23.0262ZM15.894 11.9788L15.8813 11.9786C15.0922 11.3416 14.094 10.9613 13.0101 10.9613C11.6698 10.9613 10.4626 11.5316 9.62597 12.4535C11.0631 12.7504 12.311 13.5646 13.1708 14.6786L10.5088 17.3407C10.1475 16.5421 9.34888 15.9907 8.41716 15.9907C7.15268 15.9907 6.12589 17.0175 6.12589 18.2819C6.12589 19.2136 6.67731 20.0123 7.47593 20.3735C7.76114 20.5066 8.08429 20.5828 8.41702 20.5828H12.9996V20.5845L13.0013 20.5827H17.5838C18.8483 20.5827 19.8846 19.5464 19.8846 18.282C19.8846 17.0175 18.8578 15.9907 17.5933 15.9907V15.5343C17.5933 14.1043 16.9235 12.8157 15.894 11.9788Z" fill="#EDFCF7" fill-opacity="0.62"/>
<path d="M34.3088 20.412C32.5882 20.412 31.1176 19.809 29.8676 18.5884C28.6324 17.3679 28 15.912 28 14.2061C28 12.5002 28.6176 11.0443 29.8676 9.82374C31.1029 8.60315 32.5882 8.00021 34.3088 8.00021C35.9559 8.00021 37.3676 8.57374 38.5588 9.7061L37.3676 10.8973C36.5147 10.0885 35.4853 9.69139 34.3088 9.69139C33.0735 9.69139 32.0147 10.1326 31.1471 11.0149C30.2794 11.8973 29.8529 12.9561 29.8529 14.2061C29.8529 15.4561 30.2794 16.5149 31.1471 17.3973C32.0147 18.2796 33.0588 18.7208 34.3088 18.7208C35.5735 18.7208 36.6176 18.309 37.4412 17.4855C37.9412 16.9855 38.25 16.2796 38.3676 15.3532H34.3088V13.662H40.0147C40.0735 13.9708 40.1029 14.3237 40.1029 14.7208C40.1029 16.3826 39.6176 17.7061 38.6324 18.6914C37.5294 19.8384 36.0882 20.412 34.3088 20.412ZM47.5735 19.2649C46.7941 20.0296 45.8529 20.412 44.7206 20.412C43.6029 20.412 42.6471 20.0296 41.8676 19.2649C41.0882 18.5002 40.7059 17.559 40.7059 16.412C40.7059 15.2649 41.0882 14.3237 41.8676 13.559C42.6471 12.7943 43.5882 12.412 44.7206 12.412C45.8382 12.412 46.7941 12.7943 47.5735 13.559C48.3529 14.3237 48.7353 15.2649 48.7353 16.412C48.7353 17.559 48.3529 18.5149 47.5735 19.2649ZM43.1324 18.1473C43.5735 18.6032 44.1029 18.8384 44.7206 18.8384C45.3382 18.8384 45.8676 18.6032 46.3088 18.1473C46.75 17.6914 46.9706 17.1032 46.9706 16.412C46.9706 15.7061 46.75 15.1326 46.3088 14.6767C45.8676 14.2208 45.3382 14.0002 44.7059 14.0002C44.0735 14.0002 43.5441 14.2208 43.1029 14.6767C42.6618 15.1326 42.4412 15.7061 42.4412 16.412C42.4706 17.1179 42.6912 17.6914 43.1324 18.1473ZM56.3235 19.2649C55.5441 20.0296 54.6029 20.412 53.4706 20.412C52.3529 20.412 51.3971 20.0296 50.6176 19.2649C49.8382 18.5002 49.4559 17.559 49.4559 16.412C49.4559 15.2649 49.8382 14.3237 50.6176 13.559C51.3971 12.7943 52.3382 12.412 53.4706 12.412C54.5882 12.412 55.5441 12.7943 56.3235 13.559C57.1029 14.3237 57.4853 15.2649 57.4853 16.412C57.4853 17.559 57.0882 18.5149 56.3235 19.2649ZM51.8823 18.1473C52.3235 18.6032 52.8529 18.8384 53.4706 18.8384C54.0882 18.8384 54.6176 18.6032 55.0588 18.1473C55.5 17.6914 55.7206 17.1032 55.7206 16.412C55.7206 15.7061 55.5 15.1326 55.0588 14.6767C54.6176 14.2208 54.0882 14.0002 53.4559 14.0002C52.8235 14.0002 52.2941 14.2208 51.8529 14.6767C51.4118 15.1326 51.1912 15.7061 51.1912 16.412C51.2206 17.1179 51.4412 17.6914 51.8823 18.1473ZM62.0735 24.0002C61.1912 24.0002 60.4412 23.7649 59.8382 23.2943C59.2353 22.8237 58.7941 22.2649 58.5294 21.6473L60.0588 21.0149C60.2206 21.3973 60.4706 21.7355 60.8088 22.0149C61.147 22.2943 61.5735 22.4414 62.0588 22.4414C62.7206 22.4414 63.25 22.2355 63.6323 21.8384C64.0147 21.4414 64.2059 20.8532 64.2059 20.1032V19.5296H64.1471C63.6471 20.1326 62.9559 20.4414 62.0441 20.4414C61.0294 20.4414 60.1323 20.059 59.3676 19.2796C58.6029 18.5002 58.2206 17.559 58.2206 16.4708C58.2206 15.3679 58.6029 14.412 59.3676 13.6326C60.1323 12.8532 61.0294 12.4561 62.0441 12.4561C62.5 12.4561 62.9118 12.5443 63.2794 12.7061C63.647 12.8826 63.9412 13.0885 64.1471 13.3385H64.2059V12.6914H65.8676V19.8679C65.8676 21.2649 65.5147 22.309 64.7941 23.0002C64.0882 23.6473 63.1765 24.0002 62.0735 24.0002ZM62.1912 18.8384C62.7941 18.8384 63.3088 18.6032 63.7059 18.1473C64.1176 17.6914 64.3235 17.1179 64.3235 16.4267C64.3235 15.7355 64.1176 15.1473 63.7059 14.6914C63.2941 14.2208 62.7941 14.0002 62.1912 14.0002C61.5735 14.0002 61.0441 14.2355 60.6176 14.6914C60.1765 15.162 59.9706 15.7355 59.9706 16.4267C59.9706 17.1179 60.1912 17.6914 60.6176 18.1473C61.0441 18.6032 61.5735 18.8384 62.1912 18.8384ZM68.8382 8.42668V20.1767H67.0882V8.42668H68.8382ZM73.647 20.412C72.5147 20.412 71.5735 20.0296 70.8235 19.2649C70.0735 18.5002 69.6912 17.5443 69.6912 16.412C69.6912 15.2355 70.0588 14.2796 70.7941 13.5296C71.5294 12.7796 72.4118 12.412 73.4706 12.412C73.9559 12.412 74.397 12.5002 74.8235 12.6767C75.2353 12.8532 75.5735 13.0737 75.8529 13.3532C76.1323 13.6326 76.3382 13.8973 76.5 14.162C76.6618 14.4267 76.7941 14.6914 76.897 14.9561L77.0735 15.412L71.7353 17.6179C72.1471 18.4267 72.7941 18.8237 73.6765 18.8237C74.4853 18.8237 75.1323 18.4561 75.647 17.7208L77.0147 18.6326C76.7059 19.0884 76.2794 19.5002 75.7353 19.8532C75.1323 20.2355 74.4559 20.412 73.647 20.412ZM71.4265 16.2943L75 14.809C74.897 14.559 74.7059 14.3532 74.4412 14.1914C74.1618 14.0296 73.8676 13.9561 73.5147 13.9561C73 13.9561 72.5147 14.162 72.0735 14.5885C71.6176 15.0296 71.397 15.5884 71.4265 16.2943Z" fill="#EDFCF7" fill-opacity="0.62"/>
<path d="M86.2788 20.4119C84.6906 20.4119 83.3524 19.8678 82.2641 18.7943C81.1906 17.7208 80.6465 16.3678 80.6465 14.7502C80.6465 13.1325 81.1906 11.7943 82.2641 10.7061C83.3377 9.63253 84.6759 9.08841 86.2788 9.08841C87.9112 9.08841 89.2347 9.67664 90.2641 10.8531L89.2935 11.7943C88.5583 10.8825 87.5583 10.4119 86.2788 10.4119C85.1024 10.4119 84.1024 10.809 83.2935 11.6031C82.4847 12.3972 82.073 13.4414 82.073 14.7355C82.073 16.0296 82.4847 17.0737 83.2935 17.8678C84.1024 18.6619 85.1024 19.059 86.2788 19.059C87.5877 19.059 88.6906 18.5296 89.6024 17.4855L90.573 18.4561C90.073 19.0443 89.4553 19.5296 88.7053 19.8678C87.97 20.2355 87.1465 20.4119 86.2788 20.4119Z" fill="#EDFCF7" fill-opacity="0.62"/>
<path d="M93.2057 20.1767H91.8086V9.33842H93.2057V20.1767Z" fill="#EDFCF7" fill-opacity="0.62"/>
<path d="M95.47 13.6326C96.1906 12.8826 97.1024 12.5002 98.2053 12.5002C99.3083 12.5002 100.235 12.8826 100.941 13.6326C101.661 14.3826 102.014 15.3237 102.014 16.4561C102.014 17.5884 101.661 18.5296 100.941 19.2796C100.22 20.0296 99.3083 20.412 98.2053 20.412C97.1024 20.412 96.1759 20.0296 95.47 19.2796C94.7494 18.5296 94.3965 17.5884 94.3965 16.4561C94.3965 15.3384 94.7641 14.3973 95.47 13.6326ZM96.5141 18.412C96.9994 18.8973 97.5583 19.1473 98.22 19.1473C98.8818 19.1473 99.4406 18.8973 99.9259 18.412C100.411 17.9267 100.646 17.2796 100.646 16.4708C100.646 15.662 100.411 15.0149 99.9259 14.5296C99.4406 14.0443 98.8818 13.7943 98.22 13.7943C97.5583 13.7943 96.9994 14.0443 96.5141 14.5296C96.0288 15.0149 95.7935 15.662 95.7935 16.4708C95.7935 17.2649 96.0288 17.912 96.5141 18.412Z" fill="#EDFCF7" fill-opacity="0.62"/>
<path d="M109.735 20.1767H108.396V19.1473H108.338C108.132 19.5002 107.808 19.7943 107.367 20.0443C106.926 20.2943 106.47 20.412 105.985 20.412C105.058 20.412 104.352 20.1326 103.867 19.559C103.382 19.0002 103.146 18.2355 103.146 17.2943V12.7502H104.544V17.059C104.544 18.4414 105.161 19.1326 106.382 19.1326C106.955 19.1326 107.426 18.8973 107.794 18.4414C108.161 17.9708 108.338 17.4414 108.338 16.8384V12.7502H109.735V20.1767Z" fill="#EDFCF7" fill-opacity="0.62"/>
<path d="M114.456 20.4119C113.5 20.4119 112.677 20.0296 111.971 19.2796C111.28 18.5296 110.927 17.5884 110.927 16.4708C110.927 15.3531 111.28 14.4119 111.971 13.6619C112.662 12.9119 113.5 12.5296 114.456 12.5296C115.015 12.5296 115.53 12.6472 115.971 12.8972C116.427 13.1325 116.75 13.4414 116.971 13.809H117.03L116.971 12.7796V9.33842H118.368V20.1767H117.03V19.1472H116.971C116.75 19.5149 116.412 19.809 115.971 20.059C115.53 20.2943 115.03 20.4119 114.456 20.4119ZM114.691 19.1472C115.353 19.1472 115.912 18.9119 116.368 18.4267C116.824 17.9414 117.059 17.2943 117.059 16.4708C117.059 15.6472 116.824 15.0002 116.368 14.5149C115.912 14.0296 115.353 13.7943 114.691 13.7943C114.044 13.7943 113.485 14.0443 113.03 14.5296C112.559 15.0149 112.338 15.662 112.338 16.4708C112.338 17.2796 112.574 17.9267 113.03 18.412C113.485 18.8972 114.044 19.1472 114.691 19.1472Z" fill="#EDFCF7" fill-opacity="0.62"/>
</svg>
