<svg width="120" height="32" viewBox="0 0 120 32" fill="none" xmlns="http://www.w3.org/2000/svg">
<path d="M35.951 14.2834C35.9063 14.2834 35.8624 14.2715 35.8241 14.2486C35.7857 14.2258 35.7542 14.1929 35.733 14.1536L33.7168 10.5813C33.6971 10.5526 33.6836 10.5202 33.6772 10.486C33.6707 10.4518 33.6714 10.4166 33.6792 10.3827C33.6871 10.3488 33.7019 10.3169 33.7227 10.2891C33.7435 10.2612 33.7699 10.2379 33.8002 10.2207C33.8305 10.2036 33.864 10.1929 33.8986 10.1893C33.9333 10.1858 33.9683 10.1895 34.0014 10.2001C34.0346 10.2108 34.0651 10.2282 34.0912 10.2513C34.1172 10.2744 34.1382 10.3026 34.1528 10.3342L36.169 13.9107C36.1853 13.9392 36.1956 13.9707 36.1996 14.0033C36.2035 14.0359 36.2009 14.0689 36.192 14.1005C36.183 14.1321 36.1678 14.1615 36.1473 14.1872C36.1268 14.2129 36.1014 14.2342 36.0725 14.25C36.0363 14.2731 35.9939 14.2848 35.951 14.2834ZM39.711 18.4504L36.4162 23.9408C36.4089 23.9562 36.399 23.9705 36.3869 23.9827L31.4281 31.8811C31.4056 31.9175 31.3741 31.9474 31.3367 31.9683C31.2993 31.989 31.2572 32 31.2144 32C31.1715 32 31.1294 31.989 31.092 31.9683C31.0546 31.9474 31.0231 31.9175 31.0006 31.8811L22.6381 18.5592C22.2299 17.9112 22.0092 17.1628 22.0003 16.397C21.9914 15.6313 22.1947 14.878 22.5878 14.2206L30.9964 0.124089C31.0217 0.080991 31.0593 0.0464111 31.1044 0.0247737C31.1495 0.0031362 31.2 -0.00457556 31.2495 0.00261738C31.299 0.00981032 31.3452 0.0315818 31.3823 0.065155C31.4193 0.0987283 31.4455 0.142576 31.4575 0.191095L39.7571 14.2081C40.1419 14.8506 40.3413 15.5871 40.3331 16.3358C40.325 17.0845 40.1097 17.8164 39.711 18.4504ZM32.9916 18.7352L34.5426 16.1889C34.646 16.0203 34.7032 15.8274 34.7084 15.6295C34.7135 15.4318 34.6665 15.2362 34.5719 15.0624L31.4659 9.84843V11.4524L33.3102 14.673C33.4402 14.8996 33.5075 15.1568 33.5053 15.418C33.5031 15.6792 33.4314 15.9352 33.2976 16.1596L32.8785 16.8591C32.8562 16.8967 32.8242 16.9278 32.7859 16.9492C32.7476 16.9706 32.7043 16.9813 32.6605 16.9805C32.6162 16.9818 32.5725 16.9702 32.5348 16.947C32.506 16.9306 32.4809 16.9086 32.4609 16.8823C32.4408 16.856 32.4263 16.8258 32.4181 16.7938C32.4099 16.7619 32.4082 16.7285 32.4131 16.6958C32.418 16.6632 32.4295 16.6318 32.4467 16.6035L32.8659 15.9C32.9537 15.7527 33.0008 15.5847 33.0023 15.4133C33.0037 15.2417 32.9596 15.073 32.8743 14.9242L31.4659 12.4659V14.9871C31.4644 15.9865 31.7686 16.9626 32.3377 17.7845L32.9916 18.7352ZM35.8881 23.8319L31.9228 18.0693C31.2956 17.1637 30.9607 16.0882 30.9629 14.9871V1.16688L23.0196 14.4803C22.6739 15.0577 22.4952 15.7196 22.5034 16.3923C22.5115 17.0651 22.7062 17.7224 23.0657 18.2912L31.2144 31.2738L35.8881 23.8319ZM39.3253 14.4677L31.4659 1.19201V2.59496L36.3367 11.1844C36.3531 11.213 36.3638 11.2445 36.3682 11.2773C36.3725 11.31 36.3703 11.3433 36.3617 11.3752C36.3532 11.4071 36.3384 11.437 36.3183 11.4632C36.2981 11.4893 36.2731 11.5113 36.2444 11.5278C36.2056 11.5486 36.1627 11.5601 36.1187 11.5613C36.0745 11.5613 36.0311 11.5497 35.9928 11.5277C35.9545 11.5056 35.9228 11.4739 35.9007 11.4357L31.4659 3.61262V5.6647L33.6623 9.41709C33.6796 9.44527 33.691 9.47664 33.6959 9.50932C33.7009 9.54201 33.6992 9.57535 33.691 9.60737C33.6828 9.6394 33.6682 9.66945 33.6482 9.69574C33.6281 9.72205 33.603 9.74406 33.5743 9.76048C33.5364 9.78327 33.4928 9.79489 33.4485 9.79399C33.4047 9.79488 33.3614 9.7841 33.3231 9.76276C33.2848 9.74142 33.2529 9.71028 33.2306 9.67255L31.4659 6.65724V8.87684L35.0037 14.807V14.8153C35.141 15.0678 35.2098 15.3518 35.2031 15.6391C35.1966 15.9263 35.1147 16.2069 34.966 16.4528L33.2935 19.1917L34.0438 20.2764L36.3491 16.5198C36.4917 16.2852 36.6971 15.8288 36.4456 15.4017L36.2402 15.0456C36.2237 15.0171 36.2129 14.9855 36.2086 14.9527C36.2043 14.92 36.2065 14.8868 36.215 14.8548C36.2237 14.8229 36.2384 14.793 36.2585 14.7668C36.2786 14.7407 36.3038 14.7187 36.3325 14.7023C36.3905 14.67 36.4588 14.6616 36.5229 14.6788C36.5871 14.696 36.6421 14.7375 36.6762 14.7944L36.8816 15.1461C37.1582 15.6278 37.1246 16.2225 36.7767 16.7836L34.3539 20.7286L35.1252 21.8469L38.0511 17.1271C38.2182 16.856 38.3092 16.5449 38.3144 16.2264C38.3195 15.908 38.2387 15.5942 38.0803 15.3178L36.4456 12.4785C36.4123 12.4207 36.4032 12.352 36.4205 12.2877C36.4378 12.2233 36.4801 12.1684 36.5379 12.135C36.5957 12.1017 36.6643 12.0927 36.7288 12.11C36.7933 12.1273 36.8482 12.1694 36.8816 12.2272L38.5163 15.0666C38.7195 15.4217 38.8231 15.8249 38.8164 16.2339C38.8099 16.6429 38.6932 17.0425 38.4785 17.3909L35.4354 22.2992L36.169 23.367L39.2708 18.1866C39.275 18.1866 39.275 18.1866 39.275 18.1824C39.6258 17.6283 39.8162 16.9879 39.8251 16.3322C39.834 15.6765 39.661 15.0312 39.3253 14.4677Z" fill="#EDFCF7" fill-opacity="0.62"/>
<path d="M75.7882 10.7344H75.5269C75.4727 10.7344 75.4456 10.7073 75.4456 10.6531V7.08148C75.4456 7.02727 75.4727 7.00017 75.5269 7.00017H75.7882C75.8425 7.00017 75.8696 7.02727 75.8696 7.08148V8.60883C75.8696 8.64368 75.8889 8.6611 75.9276 8.6611H77.3679C77.4066 8.6611 77.4259 8.64368 77.4259 8.60883V7.08148C77.4259 7.02727 77.453 7.00017 77.5073 7.00017H77.7686C77.8228 7.00017 77.8499 7.02727 77.8499 7.08148V10.6531C77.8499 10.7073 77.8228 10.7344 77.7686 10.7344H77.5073C77.453 10.7344 77.4259 10.7073 77.4259 10.6531V9.08504C77.4259 9.0502 77.4066 9.03277 77.3679 9.03277H75.9276C75.8889 9.03277 75.8696 9.0502 75.8696 9.08504V10.6531C75.8696 10.7073 75.8425 10.7344 75.7882 10.7344Z" fill="#EDFCF7" fill-opacity="0.62"/>
<path d="M73.8791 10.7344H73.6178C73.5636 10.7344 73.5365 10.7073 73.5365 10.6531V7.42411C73.5365 7.38927 73.5171 7.37185 73.4784 7.37185H72.6886C72.6305 7.37185 72.6015 7.34475 72.6015 7.29054V7.08148C72.6015 7.02727 72.6305 7.00017 72.6886 7.00017H74.8083C74.8664 7.00017 74.8954 7.02727 74.8954 7.08148V7.29054C74.8954 7.34475 74.8664 7.37185 74.8083 7.37185H74.0185C73.9798 7.37185 73.9604 7.38927 73.9604 7.42411V10.6531C73.9604 10.7073 73.9333 10.7344 73.8791 10.7344Z" fill="#EDFCF7" fill-opacity="0.62"/>
<path d="M72.0193 7.08148V10.6531C72.0193 10.7073 71.9922 10.7344 71.938 10.7344H71.6767C71.6225 10.7344 71.5954 10.7073 71.5954 10.6531V7.08148C71.5954 7.02727 71.6225 7.00017 71.6767 7.00017H71.938C71.9922 7.00017 72.0193 7.02727 72.0193 7.08148Z" fill="#EDFCF7" fill-opacity="0.62"/>
<path d="M67.9262 10.7344H67.479C67.4248 10.7344 67.3919 10.7073 67.3803 10.6531L66.6369 7.08148C66.6253 7.02727 66.6505 7.00017 66.7124 7.00017H67.026C67.0841 7.00017 67.1151 7.02727 67.1189 7.08148L67.7055 10.2814H67.7403L68.5243 7.07567C68.536 7.02534 68.5669 7.00017 68.6173 7.00017H68.9657C69.016 7.00017 69.047 7.02534 69.0586 7.07567L69.8542 10.2814H69.8891L70.4698 7.08728C70.4815 7.02921 70.5144 7.00017 70.5686 7.00017H70.8822C70.9441 7.00017 70.9693 7.02921 70.9577 7.08728L70.2085 10.6531C70.1969 10.7073 70.1659 10.7344 70.1156 10.7344H69.6684C69.6142 10.7344 69.5813 10.7073 69.5697 10.6531L68.8089 7.53446H68.7857L68.0191 10.6531C68.0075 10.7073 67.9765 10.7344 67.9262 10.7344Z" fill="#EDFCF7" fill-opacity="0.62"/>
<path d="M62.4266 10.7344H62.1711C62.1169 10.7344 62.0898 10.7073 62.0898 10.6531V7.08148C62.0898 7.02727 62.1169 7.00017 62.1711 7.00017H62.4092C62.4557 7.00017 62.4866 7.01566 62.5021 7.04663L64.105 9.86324H64.1282V7.08148C64.1282 7.02727 64.1553 7.00017 64.2095 7.00017H64.465C64.5192 7.00017 64.5463 7.02727 64.5463 7.08148V10.6531C64.5463 10.7073 64.5192 10.7344 64.465 10.7344H64.2502C64.2076 10.7344 64.1669 10.7092 64.1282 10.6589L62.5312 7.87129H62.5079V10.6531C62.5079 10.7073 62.4808 10.7344 62.4266 10.7344Z" fill="#EDFCF7" fill-opacity="0.62"/>
<path d="M61.142 7.08148V10.6531C61.142 10.7073 61.1149 10.7344 61.0607 10.7344H60.7994C60.7452 10.7344 60.7181 10.7073 60.7181 10.6531V7.08148C60.7181 7.02727 60.7452 7.00017 60.7994 7.00017H61.0607C61.1149 7.00017 61.142 7.02727 61.142 7.08148Z" fill="#EDFCF7" fill-opacity="0.62"/>
<path d="M59.9195 9.05595H58.7348C58.6806 9.05595 58.6534 9.02885 58.6534 8.97465V8.78301C58.6534 8.7288 58.6806 8.7017 58.7348 8.7017H59.9195C59.9737 8.7017 60.0008 8.7288 60.0008 8.78301V8.97465C60.0008 9.02885 59.9737 9.05595 59.9195 9.05595Z" fill="#EDFCF7" fill-opacity="0.62"/>
<path d="M55.8424 10.7344H55.5868C55.5326 10.7344 55.5055 10.7073 55.5055 10.6531V7.08148C55.5055 7.02727 55.5326 7.00017 55.5868 7.00017H55.8249C55.8714 7.00017 55.9024 7.01566 55.9179 7.04663L57.5207 9.86324H57.5439V7.08148C57.5439 7.02727 57.5711 7.00017 57.6253 7.00017H57.8808C57.935 7.00017 57.9621 7.02727 57.9621 7.08148V10.6531C57.9621 10.7073 57.935 10.7344 57.8808 10.7344H57.6659C57.6233 10.7344 57.5827 10.7092 57.5439 10.6589L55.9469 7.87129H55.9237V10.6531C55.9237 10.7073 55.8966 10.7344 55.8424 10.7344Z" fill="#EDFCF7" fill-opacity="0.62"/>
<path d="M53.7918 10.7344H53.1646C52.8975 10.7344 52.6865 10.6589 52.5316 10.5079C52.3806 10.3569 52.3051 10.1459 52.3051 9.87486V7.85967C52.3051 7.58866 52.3806 7.37765 52.5316 7.22666C52.6865 7.07567 52.8975 7.00017 53.1646 7.00017H53.7918C54.059 7.00017 54.2681 7.0776 54.419 7.23247C54.57 7.38346 54.6455 7.59253 54.6455 7.85967V8.09778C54.6455 8.15585 54.6184 8.18489 54.5642 8.18489H54.3029C54.2487 8.18489 54.2216 8.15585 54.2216 8.09778V7.87709C54.2216 7.54026 54.0609 7.37185 53.7396 7.37185H53.2111C52.8898 7.37185 52.7291 7.54026 52.7291 7.87709V9.85743C52.7291 10.1943 52.8898 10.3627 53.2111 10.3627H53.7396C54.0609 10.3627 54.2216 10.1943 54.2216 9.85743V9.207C54.2216 9.16828 54.2042 9.14892 54.1693 9.14892H53.5944C53.5402 9.14892 53.5131 9.12376 53.5131 9.07343V8.85855C53.5131 8.80435 53.5402 8.77725 53.5944 8.77725H54.5294C54.6068 8.77725 54.6455 8.8179 54.6455 8.8992V9.87486C54.6455 10.1459 54.57 10.3569 54.419 10.5079C54.2681 10.6589 54.059 10.7344 53.7918 10.7344Z" fill="#EDFCF7" fill-opacity="0.62"/>
<path d="M51.4158 7.08148V10.6531C51.4158 10.7073 51.3887 10.7344 51.3345 10.7344H51.0732C51.019 10.7344 50.9919 10.7073 50.9919 10.6531V7.08148C50.9919 7.02727 51.019 7.00017 51.0732 7.00017H51.3345C51.3887 7.00017 51.4158 7.02727 51.4158 7.08148Z" fill="#EDFCF7" fill-opacity="0.62"/>
<path d="M47.7007 9.87468V9.68885C47.7007 9.63464 47.7278 9.60754 47.782 9.60754H48.0433C48.0975 9.60754 48.1246 9.63464 48.1246 9.68885V9.83984C48.1246 10.1883 48.2969 10.3625 48.6415 10.3625H49.1525C49.4971 10.3625 49.6694 10.1844 49.6694 9.82822V9.63077C49.6694 9.35201 49.439 9.17005 48.9783 9.08487C48.7847 9.05003 48.5912 9.00938 48.3976 8.96292C48.204 8.91646 48.0394 8.82741 47.9039 8.69577C47.7684 8.56027 47.7007 8.37636 47.7007 8.14407V7.8595C47.7007 7.59236 47.7762 7.38329 47.9272 7.2323C48.082 7.07743 48.293 7 48.5602 7H49.2048C49.4681 7 49.6772 7.07743 49.832 7.2323C49.9869 7.38329 50.0643 7.59236 50.0643 7.8595V8.00469C50.0643 8.06276 50.0391 8.0918 49.9888 8.0918H49.7217C49.6713 8.0918 49.6462 8.06276 49.6462 8.00469V7.90015C49.6462 7.54784 49.4739 7.37168 49.1293 7.37168H48.6357C48.2911 7.37168 48.1188 7.55558 48.1188 7.92338V8.15568C48.1188 8.35313 48.2485 8.48864 48.5079 8.5622C48.6241 8.59317 48.7518 8.62221 48.8912 8.64931C49.0306 8.67254 49.17 8.70545 49.3093 8.74804C49.4526 8.78676 49.5823 8.83709 49.6984 8.89903C49.8146 8.95711 49.9075 9.04809 49.9772 9.17198C50.0508 9.292 50.0875 9.43913 50.0875 9.61335V9.87468C50.0875 10.1418 50.0101 10.3528 49.8552 10.5077C49.7004 10.6587 49.4913 10.7342 49.228 10.7342H48.5602C48.2969 10.7342 48.0878 10.6587 47.933 10.5077C47.7781 10.3528 47.7007 10.1418 47.7007 9.87468Z" fill="#EDFCF7" fill-opacity="0.62"/>
<path d="M111.07 14.8347H113.409C113.631 14.8347 113.741 14.9454 113.741 15.1667V24.668C113.741 24.8893 113.631 25 113.409 25H112.113C111.892 25 111.781 24.8893 111.781 24.668V17.1745H111.718L110.105 22.4705C110.042 22.6813 109.91 22.7867 109.71 22.7867H108.382C108.182 22.7867 108.05 22.6813 107.987 22.4705L106.343 17.1587H106.279V24.668C106.279 24.7945 106.258 24.8841 106.216 24.9368C106.174 24.9789 106.084 25 105.947 25H104.651C104.43 25 104.319 24.8893 104.319 24.668V15.1667C104.319 14.9454 104.43 14.8347 104.651 14.8347H107.007C107.154 14.8347 107.254 14.9085 107.307 15.056L108.983 20.6367H109.078L110.769 15.056C110.801 14.9085 110.901 14.8347 111.07 14.8347Z" fill="#EDFCF7" fill-opacity="0.62"/>
<path d="M100.674 14.8347H102.002C102.234 14.8347 102.35 14.9401 102.35 15.1509V22.4231C102.35 23.2452 102.118 23.8828 101.654 24.336C101.201 24.7787 100.563 25 99.7413 25H98.0023C97.1697 25 96.5268 24.7787 96.0736 24.336C95.6204 23.8934 95.3938 23.2557 95.3938 22.4231V15.1667C95.3938 14.9454 95.5044 14.8347 95.7258 14.8347H97.0696C97.2909 14.8347 97.4015 14.9454 97.4015 15.1667V22.3283C97.4015 22.6655 97.4701 22.9079 97.6071 23.0555C97.7546 23.1925 97.9918 23.261 98.3185 23.261H99.4093C99.7466 23.261 99.9837 23.1925 100.121 23.0555C100.268 22.9079 100.342 22.6655 100.342 22.3283V15.1667C100.342 14.9454 100.453 14.8347 100.674 14.8347Z" fill="#EDFCF7" fill-opacity="0.62"/>
<path d="M93.4096 25H88.24C88.0187 25 87.908 24.8893 87.908 24.668V15.1667C87.908 14.9454 88.0187 14.8347 88.24 14.8347H93.4096C93.6204 14.8347 93.7258 14.9454 93.7258 15.1667V16.2417C93.7258 16.4631 93.6204 16.5737 93.4096 16.5737H90.1055C89.979 16.5737 89.9158 16.6317 89.9158 16.7476V18.8028C89.9158 18.9187 89.979 18.9767 90.1055 18.9767H92.8088C93.0302 18.9767 93.1408 19.0874 93.1408 19.3087V20.3837C93.1408 20.6051 93.0302 20.7157 92.8088 20.7157H90.1055C89.979 20.7157 89.9158 20.7737 89.9158 20.8896V23.0871C89.9158 23.203 89.979 23.261 90.1055 23.261H93.4096C93.6204 23.261 93.7258 23.3717 93.7258 23.593V24.668C93.7258 24.8893 93.6204 25 93.4096 25Z" fill="#EDFCF7" fill-opacity="0.62"/>
<path d="M80.9383 25H79.5945C79.3732 25 79.2625 24.8893 79.2625 24.668V15.1667C79.2625 14.9454 79.3732 14.8347 79.5945 14.8347H83.3571C84.1792 14.8347 84.8221 15.0613 85.2858 15.5145C85.7496 15.9677 85.9814 16.6053 85.9814 17.4274V18.6605C85.9814 19.8515 85.5124 20.6419 84.5744 21.0319V21.0951L86.266 24.6206C86.3608 24.8735 86.2712 25 85.9972 25H84.7167C84.527 25 84.39 24.9789 84.3056 24.9368C84.2213 24.8946 84.1528 24.805 84.1001 24.668L82.5192 21.2532H81.46C81.3335 21.2532 81.2703 21.3112 81.2703 21.4271V24.668C81.2703 24.8893 81.1596 25 80.9383 25ZM81.4442 19.6407H82.9935C83.3308 19.6407 83.5784 19.5722 83.7365 19.4352C83.8946 19.2876 83.9737 19.0558 83.9737 18.7396V17.5065C83.9737 17.1797 83.8946 16.9426 83.7365 16.7951C83.5784 16.6475 83.3308 16.5737 82.9935 16.5737H81.4442C81.3283 16.5737 81.2703 16.6317 81.2703 16.7476V19.4668C81.2703 19.5827 81.3283 19.6407 81.4442 19.6407Z" fill="#EDFCF7" fill-opacity="0.62"/>
<path d="M77.199 25H72.0294C71.808 25 71.6974 24.8893 71.6974 24.668V15.1667C71.6974 14.9454 71.808 14.8347 72.0294 14.8347H77.199C77.4097 14.8347 77.5151 14.9454 77.5151 15.1667V16.2417C77.5151 16.4631 77.4097 16.5737 77.199 16.5737H73.8948C73.7684 16.5737 73.7051 16.6317 73.7051 16.7476V18.8028C73.7051 18.9187 73.7684 18.9767 73.8948 18.9767H76.5982C76.8195 18.9767 76.9302 19.0874 76.9302 19.3087V20.3837C76.9302 20.6051 76.8195 20.7157 76.5982 20.7157H73.8948C73.7684 20.7157 73.7051 20.7737 73.7051 20.8896V23.0871C73.7051 23.203 73.7684 23.261 73.8948 23.261H77.199C77.4097 23.261 77.5151 23.3717 77.5151 23.593V24.668C77.5151 24.8893 77.4097 25 77.199 25Z" fill="#EDFCF7" fill-opacity="0.62"/>
<path d="M64.2643 25H62.9206C62.6992 25 62.5886 24.8893 62.5886 24.668V15.1667C62.5886 14.9454 62.6992 14.8347 62.9206 14.8347H64.2643C64.4857 14.8347 64.5963 14.9454 64.5963 15.1667V18.8819C64.5963 18.9978 64.6596 19.0558 64.786 19.0558H67.4578C67.5737 19.0558 67.6317 18.9978 67.6317 18.8819V15.1667C67.6317 14.9454 67.7423 14.8347 67.9637 14.8347H69.3074C69.5288 14.8347 69.6394 14.9454 69.6394 15.1667V24.668C69.6394 24.8893 69.5288 25 69.3074 25H67.9637C67.7423 25 67.6317 24.8893 67.6317 24.668V20.9687C67.6317 20.8527 67.5737 20.7948 67.4578 20.7948H64.786C64.6596 20.7948 64.5963 20.8527 64.5963 20.9687V24.668C64.5963 24.8893 64.4857 25 64.2643 25Z" fill="#EDFCF7" fill-opacity="0.62"/>
<path d="M58.7253 25H57.3973C57.1655 25 57.0495 24.8893 57.0495 24.668V16.7476C57.0495 16.6317 56.9915 16.5737 56.8756 16.5737H55.0734C54.852 16.5737 54.7414 16.4631 54.7414 16.2417V15.1667C54.7414 14.9454 54.852 14.8347 55.0734 14.8347H61.0492C61.2706 14.8347 61.3812 14.9454 61.3812 15.1667V16.2417C61.3812 16.4631 61.2706 16.5737 61.0492 16.5737H59.247C59.1205 16.5737 59.0573 16.6317 59.0573 16.7476V24.668C59.0573 24.8893 58.9466 25 58.7253 25Z" fill="#EDFCF7" fill-opacity="0.62"/>
<path d="M53.5162 25H48.3466C48.1253 25 48.0146 24.8893 48.0146 24.668V15.1667C48.0146 14.9454 48.1253 14.8347 48.3466 14.8347H53.5162C53.727 14.8347 53.8324 14.9454 53.8324 15.1667V16.2417C53.8324 16.4631 53.727 16.5737 53.5162 16.5737H50.2121C50.0856 16.5737 50.0224 16.6317 50.0224 16.7476V18.8028C50.0224 18.9187 50.0856 18.9767 50.2121 18.9767H52.9155C53.1368 18.9767 53.2474 19.0874 53.2474 19.3087V20.3837C53.2474 20.6051 53.1368 20.7157 52.9155 20.7157H50.2121C50.0856 20.7157 50.0224 20.7737 50.0224 20.8896V23.0871C50.0224 23.203 50.0856 23.261 50.2121 23.261H53.5162C53.727 23.261 53.8324 23.3717 53.8324 23.593V24.668C53.8324 24.8893 53.727 25 53.5162 25Z" fill="#EDFCF7" fill-opacity="0.62"/>
</svg>
