<svg width="120" height="32" viewBox="0 0 120 32" fill="none" xmlns="http://www.w3.org/2000/svg">
<path fill-rule="evenodd" clip-rule="evenodd" d="M10.5627 27H27.4143C27.5521 26.9694 27.6894 26.9385 27.8266 26.9075C28.9766 26.646 29.7932 25.7475 29.943 24.5807C29.9477 24.5436 29.9615 24.5075 29.9752 24.4715C29.9818 24.4544 29.9883 24.4372 29.9939 24.42V7.565C29.9842 7.52204 29.9746 7.47909 29.965 7.43615C29.9438 7.34087 29.9225 7.24566 29.9008 7.15065C29.6161 5.8947 28.5294 5.00485 27.242 5.00355C21.741 4.99882 16.2399 4.99882 10.7389 5.00355C9.33564 5.00485 8.20114 6.03855 8.03316 7.44354C8.01335 7.60634 8.00129 7.77088 8.00129 7.93498C8 13.3439 8 18.7532 8 24.162C8 25.5386 8.87607 26.6322 10.2108 26.9246C10.2959 26.9434 10.3811 26.9615 10.4663 26.9795C10.4985 26.9863 10.5306 26.9932 10.5627 27ZM19.5971 14.3447C19.5855 14.3387 19.5725 14.3319 19.5581 14.3233C19.5401 14.3438 19.5222 14.3642 19.5039 14.3841C19.4649 14.4266 19.4263 14.4686 19.3923 14.5141C19.1946 14.7773 18.9944 15.0389 18.7943 15.3006C18.3067 15.9381 17.8191 16.5757 17.365 17.2362C16.8399 17.9998 15.8889 17.8388 15.4319 17.3676C14.9957 16.9174 14.5497 16.4768 14.1037 16.0362C13.9126 15.8474 13.7215 15.6585 13.5312 15.469C13.5203 15.4582 13.5097 15.4472 13.499 15.4361C13.4696 15.4055 13.4401 15.375 13.4063 15.351C13.3176 15.2877 13.2577 15.3126 13.2452 15.4229C13.2408 15.4646 13.2415 15.5068 13.2421 15.5489C13.2424 15.5642 13.2426 15.5795 13.2426 15.5948C13.2425 15.9956 13.2428 16.3964 13.2431 16.7973C13.2437 17.6789 13.2443 18.5605 13.2405 19.4423C13.2375 20.1543 12.7951 20.6853 12.1034 20.8309C11.4392 20.9709 10.7441 20.439 10.7247 19.7606C10.7139 19.3862 10.7159 19.0115 10.7179 18.637C10.7187 18.4885 10.7195 18.34 10.7195 18.1915C10.7195 17.5585 10.7195 16.9255 10.7194 16.2925C10.7193 15.0267 10.7192 13.761 10.7195 12.4954C10.7199 11.7343 11.1709 11.208 11.9255 11.1395C12.3179 11.1042 12.6668 11.2566 12.9532 11.54C13.8398 12.4166 14.7282 13.2913 15.6167 14.166C15.7646 14.3116 15.9125 14.4572 16.0603 14.6028C16.296 14.8346 16.2964 14.8341 16.4957 14.561L16.4966 14.5598C16.7074 14.271 16.9188 13.9829 17.1303 13.6947C17.6053 13.0475 18.0803 12.4003 18.5464 11.7468C18.8432 11.3307 19.2291 11.136 19.7304 11.136C20.4336 11.1365 21.1369 11.1363 21.8402 11.1361C23.071 11.1357 24.3019 11.1353 25.5326 11.1386C26.0877 11.1399 26.5464 11.332 26.7739 11.8829C27.0637 12.5841 26.6029 13.383 25.8474 13.4662C25.5187 13.5024 25.1856 13.5037 24.8536 13.505C24.7992 13.5052 24.7448 13.5054 24.6905 13.5058C24.1516 13.5098 23.6127 13.509 23.0738 13.5082C22.8534 13.5079 22.6329 13.5075 22.4125 13.5075H22.1239C22.1511 13.5484 22.1734 13.5837 22.1932 13.615C22.2284 13.6709 22.2554 13.7138 22.288 13.7522C22.4463 13.9395 22.6057 14.1259 22.7651 14.3123C22.992 14.5777 23.2188 14.8431 23.4427 15.1111C23.8709 15.6232 23.9088 16.2525 23.5048 16.7852C23.2581 17.1103 22.9941 17.4218 22.7301 17.7333C22.5865 17.9027 22.443 18.0721 22.3022 18.2436C22.2676 18.2859 22.245 18.3379 22.2224 18.3898C22.2121 18.4136 22.2017 18.4374 22.1902 18.4603C22.2156 18.4659 22.241 18.4731 22.2664 18.4803C22.3207 18.4957 22.375 18.5111 22.4293 18.5111C22.9158 18.5128 23.4023 18.5128 23.8888 18.5127C24.4911 18.5126 25.0934 18.5125 25.6958 18.5158C26.2768 18.5193 26.7915 18.9685 26.8281 19.4862C26.8837 20.2706 26.3699 20.8124 25.5541 20.8158C24.7176 20.8192 23.8808 20.8185 23.044 20.8177C22.6917 20.8174 22.3393 20.8171 21.9869 20.8171C21.8085 20.8171 21.63 20.8178 21.4515 20.8186C20.9924 20.8204 20.5332 20.8222 20.0746 20.812C19.8416 20.8068 19.5986 20.7788 19.3798 20.7034C18.6313 20.4459 18.3965 19.7119 18.8561 19.0155C19.1818 18.5218 19.5298 18.0426 19.8777 17.5634C19.9885 17.4109 20.0993 17.2583 20.2094 17.1053C20.3084 16.9675 20.4104 16.8317 20.5124 16.696C20.6514 16.511 20.7904 16.326 20.9218 16.1357C20.964 16.0746 20.9726 15.9311 20.9308 15.8803C20.5785 15.4543 20.2165 15.0362 19.8547 14.6183C19.7853 14.538 19.7158 14.4578 19.6464 14.3776C19.635 14.3644 19.6185 14.3558 19.5971 14.3447Z" fill="#EDFCF7" fill-opacity="0.62"/>
<path d="M72.8383 14.1401C72.582 14.0119 72.296 13.9429 72.0101 13.9527C70.8565 13.9527 70.0874 14.8007 70.0776 16.3684C70.0776 17.9262 70.8466 18.7742 71.9608 18.7742C72.2467 18.784 72.5327 18.7249 72.7792 18.5869C73.0257 18.4587 73.2426 18.2615 73.3806 18.015C73.4496 17.8671 73.5482 17.7488 73.6764 17.66C73.8046 17.5713 73.9525 17.5121 74.1102 17.5023H74.4553C74.5441 17.4924 74.6328 17.5121 74.7117 17.5417C74.7906 17.5713 74.8596 17.6206 74.9188 17.6896C74.968 17.7488 75.0075 17.8276 75.0272 17.9164C75.0469 18.0051 75.0469 18.0939 75.0173 18.1727C74.6328 19.2277 73.5581 20.0757 71.9707 20.0757C69.9593 20.0757 68.5 18.7249 68.5 16.3191C68.5 13.9133 69.9987 12.5625 71.9707 12.5625C73.4694 12.5625 74.6328 13.2724 75.0568 14.5443C75.0765 14.6331 75.0864 14.7119 75.0666 14.8007C75.0469 14.8796 75.0173 14.9584 74.9582 15.0275C74.899 15.0866 74.83 15.1458 74.7511 15.1754C74.6722 15.2049 74.5835 15.2247 74.4948 15.2148H74.199C74.0412 15.2148 73.8835 15.1655 73.7553 15.0768C73.6271 14.988 73.5285 14.8598 73.4693 14.7119C73.3116 14.4654 73.0947 14.2781 72.8383 14.1401Z" fill="#EDFCF7" fill-opacity="0.62"/>
<path d="M60.146 16.1121H58.2628C58.105 16.1121 57.9473 16.1713 57.8388 16.2896C57.7304 16.398 57.6613 16.5558 57.6613 16.7037C57.6613 16.8614 57.7205 17.0093 57.8388 17.1178C57.9473 17.2263 58.105 17.2953 58.2628 17.2953H58.6079C58.953 17.2953 59.2981 17.5911 59.1206 17.9263C58.8642 18.4785 58.3515 18.7743 57.5332 18.7743C56.3303 18.7743 55.6006 17.8869 55.6006 16.3685C55.6006 14.85 56.3697 13.9627 57.5332 13.9627C57.7994 13.9528 58.0656 14.0021 58.3121 14.1204C58.5487 14.2387 58.7558 14.4162 58.9037 14.6331C58.9727 14.7514 59.0713 14.8599 59.1896 14.9388C59.3079 15.0177 59.446 15.0571 59.5939 15.0571H59.9784C60.0671 15.067 60.1559 15.0472 60.2348 15.0177C60.3136 14.9881 60.3826 14.9289 60.4418 14.8698C60.501 14.8007 60.5305 14.7219 60.5503 14.643C60.57 14.5543 60.5601 14.4754 60.5404 14.3866C60.2742 13.8345 59.8502 13.3711 59.3079 13.0556C58.7755 12.74 58.1543 12.5823 57.5332 12.6119C55.5612 12.6119 54.0625 14.0021 54.0625 16.3685C54.0625 18.7348 55.4725 20.125 57.5726 20.125C59.4558 20.125 60.7869 18.9419 60.7869 17.0389V16.7431C60.7869 16.6643 60.777 16.5755 60.7376 16.4966C60.708 16.4178 60.6587 16.3487 60.5996 16.2896C60.5404 16.2304 60.4714 16.1811 60.3925 16.1515C60.3136 16.122 60.2348 16.1121 60.146 16.1121Z" fill="#EDFCF7" fill-opacity="0.62"/>
<path d="M40.6459 12.6908H41.5037C41.6713 12.7007 41.8389 12.7697 41.9573 12.8782C42.0854 12.9866 42.1742 13.1444 42.2037 13.312V19.3955C42.1939 19.5631 42.1249 19.7209 42.0066 19.8392C41.8784 19.9575 41.7206 20.0265 41.553 20.0265H41.2966C41.1192 20.0265 40.9614 19.9575 40.8431 19.8392C40.7149 19.7209 40.6459 19.5631 40.6459 19.3955V15.2938C40.6459 15.284 40.6459 15.2741 40.636 15.2642C40.6262 15.2544 40.6163 15.2544 40.6065 15.2544C40.5966 15.2544 40.5867 15.2544 40.5769 15.2642C40.567 15.2741 40.567 15.284 40.567 15.2938L38.812 19.6026C38.7528 19.7209 38.6739 19.8096 38.5655 19.8786C38.457 19.9477 38.3387 19.9871 38.2105 19.9871H38.0429C37.9147 19.9871 37.7866 19.9575 37.6781 19.8885C37.5696 19.8195 37.4908 19.7209 37.4415 19.6026L35.6864 15.2544C35.6864 15.2445 35.6864 15.2347 35.6765 15.2248C35.6667 15.2149 35.6568 15.2149 35.647 15.2149C35.6371 15.2149 35.6272 15.2149 35.6174 15.2248C35.6075 15.2347 35.6075 15.2445 35.6075 15.2544V19.3955C35.6075 19.5533 35.5385 19.711 35.4202 19.8293C35.3019 19.9477 35.1441 20.0167 34.9765 20.0265H34.7201C34.6117 20.0265 34.4934 19.997 34.3948 19.9378C34.2962 19.8786 34.2173 19.7899 34.168 19.6913C34.1286 19.6321 34.1187 19.5533 34.1286 19.4843L35.5582 13.0359C35.5977 12.819 35.8146 12.6514 35.9822 12.7796C36.0808 12.8585 36.1498 12.957 36.1991 13.0754L38.0823 17.5517C38.0823 17.5912 38.0824 17.5912 38.1218 17.5912C38.1317 17.5912 38.1415 17.5912 38.1514 17.5813C38.1612 17.5714 38.1612 17.5616 38.1612 17.5517L40.0444 13.0754C40.1036 12.957 40.1825 12.8683 40.2909 12.7993C40.3994 12.7303 40.5177 12.6908 40.6459 12.6908Z" fill="#EDFCF7" fill-opacity="0.62"/>
<path fill-rule="evenodd" clip-rule="evenodd" d="M49.3783 12.8092C49.4867 12.888 49.5755 12.9965 49.6149 13.1148L51.7052 19.1885C51.7446 19.2871 51.7446 19.3857 51.7348 19.4843C51.7249 19.5829 51.6855 19.6814 51.6263 19.7603C51.5672 19.8392 51.4883 19.9082 51.3996 19.9575C51.3108 20.0068 51.2122 20.0364 51.1136 20.0364H50.7685C50.6403 20.0364 50.5122 19.997 50.4037 19.9181C50.2952 19.8392 50.2065 19.7307 50.1671 19.6124L49.9107 18.8138C49.8614 18.6856 49.7825 18.587 49.6741 18.5081C49.5656 18.4292 49.4374 18.3898 49.3093 18.3898H47.5542C47.426 18.3898 47.2979 18.4292 47.1894 18.5081C47.0809 18.587 46.9922 18.6955 46.9528 18.8138L46.6964 19.6124C46.6471 19.7406 46.5682 19.8392 46.4598 19.9181C46.3513 19.997 46.2231 20.0364 46.095 20.0364H45.7499C45.6513 20.0265 45.5527 20.0068 45.4639 19.9575C45.3752 19.9082 45.2963 19.8392 45.2372 19.7603C45.178 19.6814 45.1386 19.5829 45.1287 19.4843C45.1188 19.3857 45.1287 19.2871 45.1583 19.1885L47.2979 13.1148C47.3472 12.9866 47.426 12.888 47.5345 12.8092C47.643 12.7303 47.7711 12.6908 47.8993 12.6908H49.0135C49.1416 12.6908 49.2698 12.7303 49.3783 12.8092ZM48.3923 17.1278H48.5205C48.6289 17.1179 48.7275 17.0883 48.7966 17.0489C48.8853 16.9996 48.9642 16.9306 49.0233 16.8517C49.0923 16.7629 49.1318 16.6742 49.1515 16.5756C49.1712 16.477 49.1712 16.3784 49.1515 16.2798L48.5106 14.3374C48.5106 14.3276 48.5106 14.3177 48.5008 14.3078C48.4909 14.298 48.481 14.298 48.4712 14.298C48.4613 14.298 48.4515 14.298 48.4416 14.3078C48.4317 14.3177 48.4317 14.3276 48.4317 14.3374L47.7909 16.2798C47.7514 16.3784 47.7514 16.477 47.7613 16.5756C47.7711 16.6742 47.8106 16.7728 47.8697 16.8517C47.9289 16.9306 48.0078 16.9996 48.0965 17.0489C48.1951 17.0982 48.2937 17.1278 48.3923 17.1278Z" fill="#EDFCF7" fill-opacity="0.62"/>
<path d="M64.3383 12.6908H64.634C64.8017 12.7007 64.9594 12.7697 65.0876 12.888C65.2059 13.0063 65.2749 13.1542 65.2848 13.3219V19.4054C65.2749 19.573 65.2059 19.7307 65.0876 19.8491C64.9594 19.9674 64.8017 20.0364 64.634 20.0364H64.3383C64.1608 20.0364 64.003 19.9674 63.8847 19.8491C63.7565 19.7307 63.6875 19.573 63.6875 19.4054V13.3219C63.6974 13.1542 63.7664 12.9965 63.8847 12.8782C64.0129 12.7599 64.1706 12.6908 64.3383 12.6908Z" fill="#EDFCF7" fill-opacity="0.62"/>
<path d="M85.6499 18.725H83.4611C83.2934 18.725 83.1357 18.656 83.0075 18.5377C82.8892 18.4193 82.8202 18.2616 82.8103 18.094V17.5911C82.8103 17.4235 82.8793 17.2657 83.0075 17.1474C83.1258 17.0291 83.2836 16.9601 83.4611 16.9601H85.3344C85.502 16.9601 85.6697 16.8911 85.788 16.7728C85.9063 16.6544 85.9753 16.4967 85.9753 16.3291C85.9753 16.1614 85.9063 16.0037 85.788 15.8854C85.6697 15.7671 85.502 15.698 85.3344 15.698H83.4512C83.2836 15.698 83.1258 15.629 82.9977 15.5107C82.8793 15.3924 82.8103 15.2346 82.8005 15.067V14.5642C82.8005 14.3965 82.8695 14.2388 82.9977 14.1205C83.116 14.0021 83.2737 13.9331 83.4512 13.9331H85.5908C85.7584 13.9331 85.926 13.8641 86.0443 13.7458C86.1627 13.6275 86.2317 13.4697 86.2317 13.3021C86.2317 13.1345 86.1627 12.9767 86.0443 12.8584C85.926 12.7401 85.7584 12.6711 85.5908 12.6711H83.0174C82.9188 12.6711 82.8202 12.7006 82.7413 12.7598C82.6624 12.819 82.6131 12.9077 82.5934 13.0063L81.2229 19.3856V19.5138C81.2426 19.6617 81.3215 19.7997 81.4496 19.8885C81.568 19.9871 81.7159 20.0265 81.8736 20.0166H85.6499C85.8176 20.0166 85.9852 19.9476 86.1035 19.8293C86.2218 19.711 86.2908 19.5532 86.2908 19.3856C86.2908 19.218 86.2218 19.0602 86.1035 18.9419C85.9852 18.8236 85.8176 18.7546 85.6499 18.7546V18.725Z" fill="#EDFCF7" fill-opacity="0.62"/>
<path fill-rule="evenodd" clip-rule="evenodd" d="M91.7872 12.6908H89.7757C89.6081 12.6908 89.4504 12.7599 89.3222 12.8782C89.2039 12.9965 89.1349 13.1542 89.125 13.3219V19.4054C89.125 19.573 89.194 19.7307 89.3222 19.8491C89.4405 19.9674 89.5983 20.0364 89.7757 20.0364H91.7872C94.0549 20.0364 95.4353 18.6462 95.4353 16.3587C95.4353 14.0811 94.0155 12.6908 91.7872 12.6908ZM91.6984 18.6856H91.3533C91.1857 18.6856 91.0279 18.6166 90.8998 18.4983C90.7815 18.38 90.7124 18.2222 90.7026 18.0546V14.6332C90.7026 14.4656 90.7716 14.3078 90.8998 14.1895C91.0181 14.0712 91.1758 14.0022 91.3533 14.0022H91.6984C93.1084 14.0022 93.838 14.722 93.838 16.3291C93.8479 17.9264 93.1182 18.6856 91.6984 18.6856Z" fill="#EDFCF7" fill-opacity="0.62"/>
<path d="M102.49 18.725H100.301C100.133 18.725 99.9753 18.656 99.8471 18.5377C99.7288 18.4193 99.6598 18.2616 99.6499 18.094V17.5911C99.6499 17.4235 99.719 17.2657 99.8471 17.1474C99.9654 17.0291 100.123 16.9601 100.301 16.9601H102.184C102.352 16.9601 102.519 16.8911 102.637 16.7728C102.756 16.6544 102.825 16.4967 102.825 16.3291C102.825 16.1614 102.756 16.0037 102.637 15.8854C102.519 15.7671 102.352 15.698 102.184 15.698H100.301C100.133 15.698 99.9753 15.629 99.8471 15.5107C99.7288 15.3924 99.6598 15.2346 99.6499 15.067V14.5642C99.6499 14.3965 99.719 14.2388 99.8471 14.1205C99.9654 14.0021 100.123 13.9331 100.301 13.9331H102.44C102.608 13.9331 102.775 13.8641 102.894 13.7458C103.012 13.6275 103.081 13.4697 103.081 13.3021C103.081 13.1345 103.012 12.9767 102.894 12.8584C102.775 12.7401 102.608 12.6711 102.44 12.6711H98.7132C98.5456 12.6711 98.3879 12.7401 98.2597 12.8584C98.1414 12.9767 98.0724 13.1345 98.0625 13.3021V19.3856C98.0625 19.5532 98.1315 19.711 98.2597 19.8293C98.378 19.9476 98.5358 20.0166 98.7132 20.0166H102.49C102.657 20.0166 102.815 19.9476 102.943 19.8293C103.061 19.711 103.13 19.5532 103.14 19.3856C103.14 19.3067 103.13 19.218 103.091 19.1391C103.061 19.0602 103.012 18.9912 102.953 18.9321C102.894 18.8729 102.825 18.8236 102.746 18.794C102.657 18.7447 102.578 18.725 102.49 18.725Z" fill="#EDFCF7" fill-opacity="0.62"/>
<path d="M111.903 12.6908H111.607C111.44 12.6908 111.282 12.7599 111.154 12.8782C111.035 12.9965 110.966 13.1542 110.956 13.3219V17.2461C110.956 17.2855 110.956 17.2855 110.917 17.2855H110.878L107.88 12.9768C107.821 12.8979 107.742 12.8289 107.653 12.7894C107.565 12.75 107.466 12.7204 107.367 12.7303H106.963C106.796 12.7303 106.638 12.7993 106.51 12.9176C106.391 13.0359 106.322 13.1937 106.312 13.3613V19.4448C106.312 19.6124 106.382 19.7702 106.51 19.8885C106.628 20.0068 106.786 20.0758 106.963 20.0758H107.259C107.427 20.0758 107.584 20.0068 107.713 19.8885C107.831 19.7702 107.9 19.6124 107.91 19.4448V15.4713C107.91 15.4614 107.91 15.4516 107.92 15.4417C107.93 15.4319 107.939 15.4319 107.949 15.4319H107.989L111.035 19.7406C111.095 19.8195 111.173 19.8885 111.262 19.9279C111.351 19.9674 111.449 19.997 111.548 19.9871H111.933C112.1 19.9871 112.258 19.9181 112.386 19.7998C112.504 19.6814 112.573 19.5237 112.583 19.3561V13.2726C112.554 13.1148 112.475 12.9669 112.357 12.8683C112.219 12.7599 112.061 12.7007 111.903 12.6908Z" fill="#EDFCF7" fill-opacity="0.62"/>
</svg>
