<svg width="120" height="32" viewBox="0 0 120 32" fill="none" xmlns="http://www.w3.org/2000/svg">
<path d="M82.9342 12.9808C85.1341 12.9808 87.6325 13.826 87.7818 16.5306H84.7069C84.6425 15.7488 83.9168 15.3896 82.9558 15.3896C82.0587 15.3896 81.6531 15.7277 81.6531 16.1291C81.6531 16.4672 81.9094 16.7841 82.7211 16.932L84.6642 17.249C86.6072 17.6082 87.8889 18.5379 87.8889 20.355C87.8889 22.7215 85.7317 23.8202 83.0413 23.8202C80.3292 23.8202 78.1299 22.7004 77.9163 19.9747L80.9912 19.9958C81.1404 20.8832 81.8878 21.2847 82.9769 21.2847C83.8952 21.2847 84.4506 21.01 84.4506 20.5663C84.4506 20.2282 84.1304 19.9535 83.4469 19.8479L81.354 19.4887C79.5603 19.1929 78.3219 18.1998 78.3219 16.4038C78.3219 14.2486 80.1795 12.9808 82.9342 12.9808ZM69.9722 13.0207C71.1019 13.0207 72.0397 13.3162 72.8076 13.8016V13.2529H76.2607V23.4896H72.8076V22.9197C72.0397 23.4052 71.1019 23.7007 69.9722 23.7007C67.1796 23.7007 64.8347 21.4 64.8347 18.3607C64.8347 15.3002 67.1796 13.0207 69.9722 13.0207ZM49.7445 9.11534L54.9227 16.795L60.0795 9.11534H62.7756V23.5014H59.1594V16.2872L55.9284 21.2165V21.2377H53.917V21.2165L50.6646 16.2449L50.686 23.5014H47.0698V9.11534H49.7445ZM93.2507 8.51758V17.1069L96.8641 13.266H100.991L97.0566 17.4445L101.333 23.5014H97.1853L94.7043 19.9559L93.2507 21.4965V23.5014H89.7865V8.51758H93.2507ZM70.6541 15.8068C69.2474 15.8068 68.2241 16.9466 68.2241 18.3607C68.2241 19.7748 69.2474 20.8934 70.6541 20.8934C71.4215 20.8934 72.1678 20.6824 72.8076 19.9437V16.7777C72.1678 16.039 71.4215 15.8068 70.6541 15.8068Z" fill="#EDFCF7" fill-opacity="0.62"/>
<path fill-rule="evenodd" clip-rule="evenodd" d="M42 16C42 22.6274 36.6274 28 30 28C23.3726 28 18 22.6274 18 16C18 9.37261 23.3726 4 30 4C36.6274 4 42 9.37261 42 16ZM37.2426 17.0354V13.0503H22.6663V21.5783C22.6663 22.3707 23.3189 23.013 24.1239 23.013H35.7849C36.5899 23.013 37.2426 22.3707 37.2426 21.5783V18.231H34.8882C33.9907 20.0251 32.1144 21.2596 29.9452 21.2596C27.3214 21.2596 25.1262 19.4534 24.573 17.0354L25.0956 17.0354H37.2426ZM29.9452 20.0733C31.4178 20.0733 32.7172 19.3433 33.4902 18.231H26.4002C27.1732 19.3433 28.4726 20.0733 29.9452 20.0733ZM24.5922 15.9196C24.7494 14.8381 25.6944 14.0068 26.8367 14.0068C27.979 14.0068 28.924 14.8381 29.0812 15.9196H27.8387C27.7021 15.5033 27.3051 15.2023 26.8367 15.2023C26.3683 15.2023 25.9714 15.5033 25.8348 15.9196H24.5922ZM30.8276 15.9196C30.9848 14.8381 31.9298 14.0068 33.0721 14.0068C34.2144 14.0068 35.1594 14.8381 35.3166 15.9196H34.0741C33.9375 15.5033 33.5405 15.2023 33.0721 15.2023C32.6037 15.2023 32.2068 15.5033 32.0702 15.9196H30.8276ZM37.2426 10.1014C37.2426 9.30907 36.5899 8.66676 35.7849 8.66676H24.1239C23.3189 8.66676 22.6663 9.30907 22.6663 10.1014V11.8548H37.2426V10.1014Z" fill="#EDFCF7" fill-opacity="0.62"/>
</svg>
