<svg width="120" height="32" viewBox="0 0 120 32" fill="none" xmlns="http://www.w3.org/2000/svg">
<path fill-rule="evenodd" clip-rule="evenodd" d="M14.0004 15.624C13.9444 9.18033 19.3947 3.94663 26.105 4.00041C32.6214 4.05419 37.9455 9.16689 37.9996 15.4223C38.0576 21.8661 32.6053 27.1017 25.895 27.0459C19.3807 26.9941 14.0564 21.8814 14.0004 15.624ZM23.7449 13.1445C23.7449 11.8577 23.2849 10.6727 22.5169 9.73539L18.6486 16.1618H22.8089C23.4008 15.2956 23.7449 14.2585 23.7449 13.1445ZM35.1195 17.7059C35.1715 17.6848 35.2014 17.6387 35.2014 17.585V16.7553C35.2014 16.6707 35.1154 16.6074 35.0294 16.6305C35.0294 16.6305 30.9193 17.537 30.8713 17.5504C30.8233 17.5638 30.8052 17.5907 30.8052 17.5907C30.3892 18.1265 29.5132 19.0158 29.0252 19.0158H26.761V17.5888H28.5652C28.8231 17.5888 29.0692 17.489 29.2472 17.3122C30.1732 16.3903 30.7092 15.2937 30.7092 14.1163C30.7092 12.1092 29.1472 10.3346 26.761 9.26483V8.30644C26.761 7.89351 26.413 7.55932 25.983 7.55932C25.553 7.55932 25.205 7.89351 25.205 8.30644V8.70402C24.537 8.51579 23.8289 8.37366 23.0888 8.29108C24.3129 9.5683 25.061 11.2757 25.061 13.1483C25.061 14.8269 24.463 16.3692 23.4589 17.5907H25.205V19.0197H22.6488C22.3028 19.0197 22.0228 18.7508 22.0228 18.4185V17.7943C22.0228 17.6848 21.9308 17.5945 21.8148 17.5945H18.4446C18.3786 17.5945 18.3226 17.6465 18.3226 17.7098C18.3206 20.2661 20.4267 22.1849 22.9448 22.1849H30.0552C31.35 22.1849 32.1009 20.9741 32.8247 19.8069C33.0535 19.4379 33.2796 19.0733 33.5194 18.7527C33.9074 18.236 34.8374 17.8212 35.1195 17.7059Z" fill="#EDFCF7" fill-opacity="0.62"/>
<path fill-rule="evenodd" clip-rule="evenodd" d="M45.1336 19.8829C45.928 20.3108 46.7999 20.5248 47.7494 20.5248C48.6988 20.5248 49.5708 20.3108 50.3652 19.8829C51.1596 19.4549 51.7845 18.8642 52.2399 18.1106C52.7049 17.3477 52.9375 16.4872 52.9375 15.529C52.9375 14.58 52.7049 13.7288 52.2399 12.9752C51.7845 12.2124 51.1596 11.617 50.3652 11.189C49.5805 10.7611 48.7085 10.5471 47.7494 10.5471C46.7999 10.5471 45.928 10.7611 45.1336 11.189C44.3391 11.617 43.7095 12.2124 43.2444 12.9752C42.7794 13.7288 42.5469 14.58 42.5469 15.529C42.5469 16.4872 42.7794 17.3477 43.2444 18.1106C43.7095 18.8642 44.3391 19.4549 45.1336 19.8829ZM49.3625 18.3897C48.8975 18.6502 48.3598 18.7804 47.7494 18.7804C47.1391 18.7804 46.5965 18.6502 46.1218 18.3897C45.6567 18.1199 45.2935 17.7385 45.0319 17.2454C44.7703 16.7523 44.6395 16.1802 44.6395 15.529C44.6395 14.8777 44.7703 14.3103 45.0319 13.8265C45.2935 13.3334 45.6567 12.9566 46.1218 12.6961C46.5965 12.4356 47.1391 12.3054 47.7494 12.3054C48.3598 12.3054 48.8975 12.4356 49.3625 12.6961C49.8275 12.9566 50.1908 13.3334 50.4524 13.8265C50.714 14.3103 50.8448 14.8777 50.8448 15.529C50.8448 16.1802 50.714 16.7523 50.4524 17.2454C50.1908 17.7385 49.8275 18.1199 49.3625 18.3897Z" fill="#EDFCF7" fill-opacity="0.62"/>
<path fill-rule="evenodd" clip-rule="evenodd" d="M56.9791 12.9334C56.5237 13.166 56.1653 13.459 55.9037 13.8125V12.6961H53.8691V24.1112H55.9037V19.3247C56.1847 19.6782 56.5479 19.9712 56.9936 20.2039C57.4489 20.4364 57.9721 20.5527 58.5631 20.5527C59.2509 20.5527 59.8709 20.3853 60.4232 20.0503C60.9851 19.7154 61.4259 19.2456 61.7457 18.6409C62.0751 18.0269 62.2397 17.3245 62.2397 16.5337C62.2397 15.743 62.0751 15.0499 61.7457 14.4545C61.4259 13.8497 60.9851 13.3846 60.4232 13.059C59.8709 12.7333 59.2509 12.5706 58.5631 12.5706C57.9721 12.5706 57.4441 12.6915 56.9791 12.9334ZM59.8564 15.3336C60.0599 15.6686 60.1616 16.0686 60.1616 16.5337C60.1616 17.0082 60.0599 17.4176 59.8564 17.7617C59.6627 18.106 59.4011 18.3711 59.0717 18.5572C58.752 18.7432 58.4032 18.8363 58.0254 18.8363C57.6573 18.8363 57.3085 18.7479 56.9791 18.5712C56.6593 18.3851 56.3978 18.1199 56.1943 17.7757C56.0005 17.4315 55.9037 17.0268 55.9037 16.5617C55.9037 16.0965 56.0005 15.6918 56.1943 15.3476C56.3978 15.0033 56.6593 14.7428 56.9791 14.5661C57.3085 14.3801 57.6573 14.287 58.0254 14.287C58.4032 14.287 58.752 14.3754 59.0717 14.5522C59.4011 14.7289 59.6627 14.9894 59.8564 15.3336Z" fill="#EDFCF7" fill-opacity="0.62"/>
<path fill-rule="evenodd" clip-rule="evenodd" d="M71.057 16.3942C71.057 16.6733 71.0376 16.9245 70.9989 17.1477H65.1133C65.1618 17.7059 65.3652 18.1432 65.7237 18.4595C66.0822 18.7758 66.523 18.934 67.0461 18.934C67.8018 18.934 68.3395 18.6223 68.6592 17.999H70.8536C70.6211 18.7432 70.1754 19.3572 69.5166 19.841C68.8578 20.3155 68.0489 20.5527 67.0897 20.5527C66.3147 20.5527 65.6171 20.3899 64.9971 20.0643C64.3868 19.7294 63.9071 19.2596 63.5584 18.6549C63.2193 18.0502 63.0498 17.3524 63.0498 16.5617C63.0498 15.7616 63.2193 15.0591 63.5584 14.4545C63.8975 13.8497 64.3722 13.3846 64.9826 13.059C65.5929 12.7333 66.2953 12.5706 67.0897 12.5706C67.8551 12.5706 68.5381 12.7287 69.1388 13.0451C69.7492 13.3614 70.2191 13.8125 70.5485 14.3987C70.8875 14.9755 71.057 15.6406 71.057 16.3942ZM68.9499 15.836C68.9402 15.3336 68.7512 14.9336 68.3831 14.6359C68.0149 14.3289 67.5645 14.1754 67.0316 14.1754C66.5278 14.1754 66.1015 14.3242 65.7528 14.6219C65.4137 14.9103 65.2054 15.315 65.1279 15.836H68.9499Z" fill="#EDFCF7" fill-opacity="0.62"/>
<path d="M78.8929 13.4636C78.302 12.8776 77.527 12.5845 76.5678 12.5845C76.064 12.5845 75.599 12.6822 75.1727 12.8776C74.7561 13.0636 74.4122 13.3241 74.141 13.6591V12.6961H72.1064V20.4271H74.141V16.1569C74.141 15.5429 74.3008 15.0731 74.6205 14.7475C74.9499 14.4126 75.3956 14.2451 75.9575 14.2451C76.5097 14.2451 76.9457 14.4126 77.2653 14.7475C77.5851 15.0731 77.745 15.5429 77.745 16.1569V20.4271H79.7795V15.8918C79.7795 14.8499 79.484 14.0404 78.8929 13.4636Z" fill="#EDFCF7" fill-opacity="0.62"/>
<path d="M84.4895 20.5248C83.7822 20.5248 83.1428 20.4085 82.5712 20.1759C82.0093 19.9434 81.5636 19.6084 81.2342 19.1712C80.9048 18.7339 80.7352 18.2176 80.7256 17.6222H82.9054C82.9345 18.0222 83.0798 18.3385 83.3414 18.5712C83.6127 18.8037 83.9808 18.92 84.4458 18.92C84.9205 18.92 85.2935 18.813 85.5648 18.599C85.8361 18.3758 85.9717 18.0874 85.9717 17.7339C85.9717 17.4454 85.8797 17.2082 85.6956 17.0222C85.5115 16.8361 85.279 16.6919 84.998 16.5895C84.7268 16.4779 84.349 16.357 83.8645 16.2267C83.2058 16.0407 82.6681 15.8592 82.2514 15.6825C81.8445 15.4964 81.4909 15.222 81.1906 14.8591C80.9 14.487 80.7546 13.994 80.7546 13.38C80.7546 12.8032 80.9048 12.3008 81.2051 11.8728C81.5055 11.4449 81.9269 11.1193 82.4695 10.896C83.012 10.6634 83.632 10.5471 84.3296 10.5471C85.3759 10.5471 86.2236 10.7937 86.8727 11.2867C87.5315 11.7705 87.8948 12.4496 87.9626 13.3241H85.7247C85.7053 12.9892 85.5552 12.7147 85.2742 12.5008C85.0029 12.2775 84.6396 12.1659 84.1842 12.1659C83.787 12.1659 83.4673 12.2636 83.2251 12.4589C82.9926 12.6543 82.8764 12.938 82.8764 13.3101C82.8764 13.5706 82.9635 13.7893 83.1379 13.966C83.322 14.1335 83.5448 14.2731 83.8064 14.3847C84.0777 14.487 84.4555 14.608 84.9399 14.7475C85.5987 14.9336 86.1364 15.1196 86.553 15.3057C86.9696 15.4918 87.328 15.7709 87.6284 16.143C87.9287 16.5151 88.0789 17.0035 88.0789 17.6082C88.0789 18.1292 87.9384 18.613 87.6575 19.0595C87.3765 19.5061 86.9648 19.8643 86.4222 20.1341C85.8797 20.3946 85.2354 20.5248 84.4895 20.5248Z" fill="#EDFCF7" fill-opacity="0.62"/>
<path fill-rule="evenodd" clip-rule="evenodd" d="M96.6876 17.1477C96.7259 16.9245 96.7458 16.6733 96.7458 16.3942C96.7458 15.6406 96.576 14.9755 96.2371 14.3987C95.9078 13.8125 95.4373 13.3614 94.8273 13.0451C94.2269 12.7287 93.5436 12.5706 92.7782 12.5706C91.9838 12.5706 91.2814 12.7333 90.6711 13.059C90.0607 13.3846 89.586 13.8497 89.2469 14.4545C88.9078 15.0591 88.7383 15.7616 88.7383 16.5617C88.7383 17.3524 88.9078 18.0502 89.2469 18.6549C89.5957 19.2596 90.0752 19.7294 90.6856 20.0643C91.3057 20.3899 92.0032 20.5527 92.7782 20.5527C93.7374 20.5527 94.5466 20.3155 95.2053 19.841C95.8639 19.3572 96.3096 18.7432 96.5425 17.999H94.3481C94.0283 18.6223 93.4904 18.934 92.7347 18.934C92.2115 18.934 91.7706 18.7758 91.4122 18.4595C91.0537 18.1432 90.8503 17.7059 90.8019 17.1477H96.6876ZM94.0714 14.6359C94.4398 14.9336 94.6288 15.3336 94.6383 15.836H90.8164C90.8939 15.315 91.1022 14.9103 91.4412 14.6219C91.79 14.3242 92.2163 14.1754 92.7201 14.1754C93.253 14.1754 93.7035 14.3289 94.0714 14.6359Z" fill="#EDFCF7" fill-opacity="0.62"/>
<path fill-rule="evenodd" clip-rule="evenodd" d="M97.417 16.5337C97.417 15.7523 97.5773 15.0591 97.897 14.4545C98.2263 13.8497 98.6673 13.3846 99.2191 13.059C99.7812 12.7333 100.406 12.5706 101.094 12.5706C101.695 12.5706 102.218 12.6869 102.664 12.9194C103.119 13.152 103.482 13.4451 103.754 13.7986V12.6961H105.802V20.4271H103.754V19.2968C103.491 19.6596 103.129 19.962 102.664 20.2039C102.208 20.4364 101.68 20.5527 101.079 20.5527C100.402 20.5527 99.7812 20.3853 99.2191 20.0503C98.6673 19.7154 98.2263 19.2456 97.897 18.6409C97.5773 18.0269 97.417 17.3245 97.417 16.5337ZM103.754 16.5617C103.754 16.0872 103.656 15.6825 103.463 15.3476C103.269 15.0033 103.007 14.7428 102.678 14.5661C102.349 14.3801 101.995 14.287 101.617 14.287C101.24 14.287 100.89 14.3754 100.571 14.5522C100.251 14.7289 99.9893 14.9894 99.786 15.3336C99.5922 15.6686 99.4958 16.0686 99.4958 16.5337C99.4958 16.9989 99.5922 17.4082 99.786 17.7617C99.9893 18.106 100.251 18.3711 100.571 18.5572C100.9 18.7432 101.249 18.8362 101.617 18.8362C101.995 18.8362 102.349 18.7479 102.678 18.5712C103.007 18.3851 103.269 18.1246 103.463 17.7897C103.656 17.4454 103.754 17.0361 103.754 16.5617Z" fill="#EDFCF7" fill-opacity="0.62"/>
</svg>
