<svg width="120" height="32" viewBox="0 0 120 32" fill="none" xmlns="http://www.w3.org/2000/svg">
<path d="M40.6098 20.5628C39.7489 20.5628 38.9583 20.3607 38.238 19.9567C37.5177 19.5526 36.9467 18.9948 36.525 18.2832C36.1034 17.5629 35.8926 16.7504 35.8926 15.8456C35.8926 14.9496 36.1034 14.1458 36.525 13.4343C36.9467 12.714 37.5177 12.1518 38.238 11.7477C38.9583 11.3436 39.7489 11.1416 40.6098 11.1416C41.4794 11.1416 42.27 11.3436 42.9815 11.7477C43.7018 12.1518 44.2684 12.714 44.6813 13.4343C45.1029 14.1458 45.3138 14.9496 45.3138 15.8456C45.3138 16.7504 45.1029 17.5629 44.6813 18.2832C44.2684 18.9948 43.7018 19.5526 42.9815 19.9567C42.2612 20.3607 41.4706 20.5628 40.6098 20.5628ZM40.6098 18.9157C41.1632 18.9157 41.6507 18.7927 42.0723 18.5468C42.494 18.292 42.8234 17.9319 43.0606 17.4663C43.2978 17.0007 43.4163 16.4605 43.4163 15.8456C43.4163 15.2307 43.2978 14.6949 43.0606 14.2381C42.8234 13.7725 42.494 13.4167 42.0723 13.1708C41.6507 12.9248 41.1632 12.8018 40.6098 12.8018C40.0563 12.8018 39.5644 12.9248 39.134 13.1708C38.7123 13.4167 38.3829 13.7725 38.1458 14.2381C37.9086 14.6949 37.79 15.2307 37.79 15.8456C37.79 16.4605 37.9086 17.0007 38.1458 17.4663C38.3829 17.9319 38.7123 18.292 39.134 18.5468C39.5644 18.7927 40.0563 18.9157 40.6098 18.9157Z" fill="#EDFCF7" fill-opacity="0.62"/>
<path d="M48.0038 14.2249C48.241 13.8911 48.566 13.6144 48.9789 13.3948C49.4005 13.1664 49.8793 13.0522 50.4151 13.0522C51.0388 13.0522 51.601 13.2059 52.1017 13.5134C52.6112 13.8208 53.0109 14.2601 53.3008 14.831C53.5994 15.3932 53.7488 16.0477 53.7488 16.7943C53.7488 17.541 53.5994 18.2042 53.3008 18.784C53.0109 19.355 52.6112 19.7986 52.1017 20.1148C51.601 20.431 51.0388 20.5892 50.4151 20.5892C49.8793 20.5892 49.4049 20.4794 48.9921 20.2597C48.588 20.0401 48.2586 19.7634 48.0038 19.4296V23.9492H46.1591V13.1708H48.0038V14.2249ZM51.8645 16.7943C51.8645 16.3551 51.7723 15.9774 51.5878 15.6612C51.4121 15.3361 51.175 15.0902 50.8763 14.9233C50.5864 14.7564 50.2702 14.6729 49.9276 14.6729C49.5938 14.6729 49.2776 14.7608 48.9789 14.9365C48.689 15.1034 48.4518 15.3493 48.2674 15.6743C48.0917 15.9994 48.0038 16.3815 48.0038 16.8207C48.0038 17.2599 48.0917 17.642 48.2674 17.967C48.4518 18.2921 48.689 18.5424 48.9789 18.7181C49.2776 18.885 49.5938 18.9685 49.9276 18.9685C50.2702 18.9685 50.5864 18.8806 50.8763 18.7049C51.175 18.5292 51.4121 18.2789 51.5878 17.9539C51.7723 17.6288 51.8645 17.2423 51.8645 16.7943Z" fill="#EDFCF7" fill-opacity="0.62"/>
<path d="M61.7434 16.6626C61.7434 16.9261 61.7259 17.1633 61.6907 17.3741H56.3542C56.3982 17.9012 56.5826 18.314 56.9077 18.6127C57.2327 18.9114 57.6324 19.0607 58.1067 19.0607C58.7919 19.0607 59.2794 18.7664 59.5693 18.1779H61.559C61.3481 18.8806 60.9441 19.4604 60.3467 19.9172C59.7494 20.3652 59.0159 20.5892 58.1463 20.5892C57.4435 20.5892 56.811 20.4354 56.2488 20.128C55.6954 19.8117 55.2606 19.3681 54.9444 18.7972C54.6369 18.2262 54.4832 17.5674 54.4832 16.8207C54.4832 16.0652 54.6369 15.402 54.9444 14.831C55.2518 14.2601 55.6823 13.8208 56.2357 13.5134C56.7891 13.2059 57.4259 13.0522 58.1463 13.0522C58.8402 13.0522 59.4595 13.2016 60.0041 13.5002C60.5575 13.7989 60.9836 14.2249 61.2823 14.7783C61.5897 15.323 61.7434 15.951 61.7434 16.6626ZM59.8328 16.1355C59.8241 15.6612 59.6528 15.2834 59.319 15.0023C58.9852 14.7125 58.5767 14.5675 58.0935 14.5675C57.6368 14.5675 57.2502 14.7081 56.934 14.9892C56.6266 15.2615 56.4377 15.6436 56.3674 16.1355H59.8328Z" fill="#EDFCF7" fill-opacity="0.62"/>
<path d="M66.7397 13.0654C67.6095 13.0654 68.3122 13.3421 68.8481 13.8955C69.3839 14.4401 69.6517 15.2044 69.6517 16.1882V20.4706H67.8071V16.4386C67.8071 15.8588 67.662 15.4152 67.3722 15.1077C67.0823 14.7915 66.6871 14.6334 66.1863 14.6334C65.6769 14.6334 65.2729 14.7915 64.9742 15.1077C64.6843 15.4152 64.5392 15.8588 64.5392 16.4386V20.4706H62.6947V13.1708H64.5392V14.08C64.7853 13.7637 65.0972 13.5178 65.4749 13.3421C65.8614 13.1576 66.2829 13.0654 66.7397 13.0654Z" fill="#EDFCF7" fill-opacity="0.62"/>
<path d="M73.9227 20.5628C73.2814 20.5628 72.7017 20.453 72.1834 20.2334C71.6739 20.0138 71.2698 19.6975 70.9712 19.2847C70.6725 18.8718 70.5188 18.3843 70.51 17.8221H72.4865C72.5128 18.1998 72.6446 18.4985 72.8818 18.7181C73.1277 18.9377 73.4615 19.0475 73.8832 19.0475C74.3136 19.0475 74.6518 18.9465 74.8978 18.7444C75.1437 18.5336 75.2667 18.2613 75.2667 17.9275C75.2667 17.6552 75.1832 17.4312 75.0163 17.2555C74.8494 17.0798 74.6386 16.9436 74.3839 16.847C74.1379 16.7416 73.7953 16.6274 73.3561 16.5044C72.7588 16.3287 72.2712 16.1574 71.8935 15.9905C71.5246 15.8149 71.204 15.5557 70.9316 15.2131C70.6681 14.8618 70.5363 14.3962 70.5363 13.8164C70.5363 13.2718 70.6725 12.7974 70.9448 12.3934C71.2171 11.9893 71.5992 11.6818 72.0912 11.471C72.5831 11.2514 73.1453 11.1416 73.7778 11.1416C74.7265 11.1416 75.4951 11.3744 76.0836 11.84C76.681 12.2967 77.0104 12.938 77.0719 13.7637H75.0427C75.0251 13.4475 74.889 13.1883 74.6342 12.9863C74.3883 12.7755 74.0589 12.6701 73.646 12.6701C73.2858 12.6701 72.996 12.7623 72.7763 12.9468C72.5655 13.1312 72.4601 13.3992 72.4601 13.7505C72.4601 13.9965 72.5392 14.2029 72.6973 14.3698C72.8642 14.528 73.0662 14.6597 73.3034 14.7651C73.5494 14.8618 73.892 14.976 74.3312 15.1077C74.9285 15.2834 75.416 15.4591 75.7938 15.6348C76.1715 15.8105 76.4965 16.074 76.7688 16.4254C77.0411 16.7767 77.1773 17.2379 77.1773 17.8089C77.1773 18.3008 77.0499 18.7576 76.7952 19.1792C76.5404 19.6009 76.1671 19.9391 75.6752 20.1938C75.1832 20.4398 74.5991 20.5628 73.9227 20.5628Z" fill="#EDFCF7" fill-opacity="0.62"/>
<path d="M85.0353 16.6626C85.0353 16.9261 85.0177 17.1633 84.9826 17.3741H79.6461C79.6901 17.9012 79.8745 18.314 80.1996 18.6127C80.5246 18.9114 80.9243 19.0607 81.3986 19.0607C82.0838 19.0607 82.5713 18.7664 82.8612 18.1779H84.8508C84.64 18.8806 84.2359 19.4604 83.6386 19.9172C83.0413 20.3652 82.3078 20.5892 81.4381 20.5892C80.7354 20.5892 80.1029 20.4354 79.5407 20.128C78.9873 19.8117 78.5525 19.3681 78.2363 18.7972C77.9288 18.2262 77.7751 17.5674 77.7751 16.8207C77.7751 16.0652 77.9288 15.402 78.2363 14.831C78.5437 14.2601 78.9741 13.8208 79.5276 13.5134C80.081 13.2059 80.7178 13.0522 81.4381 13.0522C82.1321 13.0522 82.7514 13.2016 83.296 13.5002C83.8494 13.7989 84.2755 14.2249 84.5741 14.7783C84.8816 15.323 85.0353 15.951 85.0353 16.6626ZM83.1247 16.1355C83.1159 15.6612 82.9447 15.2834 82.6109 15.0023C82.277 14.7125 81.8686 14.5675 81.3854 14.5675C80.9287 14.5675 80.5421 14.7081 80.2259 14.9892C79.9185 15.2615 79.7296 15.6436 79.6593 16.1355H83.1247Z" fill="#EDFCF7" fill-opacity="0.62"/>
<path d="M85.644 16.7943C85.644 16.0565 85.7889 15.402 86.0788 14.831C86.3775 14.2601 86.7771 13.8208 87.2778 13.5134C87.7873 13.2059 88.3539 13.0522 88.9776 13.0522C89.5222 13.0522 89.9966 13.162 90.4007 13.3816C90.8135 13.6012 91.1429 13.8779 91.3889 14.2117V13.1708H93.2468V20.4706H91.3889V19.4033C91.1517 19.7459 90.8223 20.0314 90.4007 20.2597C89.9878 20.4794 89.5091 20.5892 88.9644 20.5892C88.3495 20.5892 87.7873 20.431 87.2778 20.1148C86.7771 19.7986 86.3775 19.355 86.0788 18.784C85.7889 18.2042 85.644 17.541 85.644 16.7943ZM91.3889 16.8207C91.3889 16.3727 91.3011 15.9906 91.1254 15.6743C90.9497 15.3493 90.7125 15.1034 90.4138 14.9365C90.1152 14.7608 89.7945 14.6729 89.452 14.6729C89.1094 14.6729 88.7931 14.7564 88.5033 14.9233C88.2134 15.0902 87.9762 15.3361 87.7917 15.6612C87.616 15.9774 87.5282 16.3551 87.5282 16.7943C87.5282 17.2336 87.616 17.6201 87.7917 17.9539C87.9762 18.2789 88.2134 18.5292 88.5033 18.7049C88.8019 18.8806 89.1182 18.9685 89.452 18.9685C89.7945 18.9685 90.1152 18.885 90.4138 18.7181C90.7125 18.5424 90.9497 18.2965 91.1254 17.9802C91.3011 17.6552 91.3889 17.2687 91.3889 16.8207Z" fill="#EDFCF7" fill-opacity="0.62"/>
<path d="M31.8937 15.0762L26.0321 4.92376C25.702 4.35214 25.0922 4 24.4322 4H12.7091C12.0491 4 11.4391 4.35214 11.1092 4.92376L5.24754 15.0762C4.91749 15.6479 4.91749 16.3521 5.24754 16.9238L11.1091 27.0762C11.4391 27.6478 12.049 28 12.709 28H24.4321C25.0922 28 25.702 27.6478 26.0321 27.0762L31.8936 16.9238C32.2236 16.3521 32.2238 15.6479 31.8937 15.0762ZM14.8533 9.46902C15.6662 10.502 16.1511 11.8051 16.1511 13.2216C16.1511 14.4483 15.7865 15.5893 15.1611 16.5442H10.7634L14.8533 9.46902ZM28.2647 18.1093V18.1122C28.2647 18.1707 28.2329 18.2224 28.1783 18.2452C27.8802 18.3729 26.8972 18.8278 26.4873 19.3986C25.4324 20.8675 24.6261 23.1784 22.8247 23.1784H15.3077C12.6463 23.1784 10.4182 21.0656 10.421 18.2519C10.421 18.1815 10.4796 18.1239 10.55 18.1239H14.113C14.2348 18.1239 14.3336 18.2227 14.3336 18.3446V19.0323C14.3336 19.398 14.63 19.6943 14.9955 19.6943L17.698 19.6935V18.1216H15.8511C16.912 16.776 17.5456 15.0777 17.5456 13.2312C17.5456 11.1684 16.7553 9.29028 15.4613 7.88246C16.244 7.97308 16.9922 8.12893 17.698 8.33705V7.89983C17.698 7.44562 18.0662 7.07751 18.5204 7.07751C18.9746 7.07751 19.3428 7.44571 19.3428 7.89983V8.95467C21.8666 10.1321 23.5174 12.0858 23.5174 14.2971C23.5174 15.5936 22.9497 16.8016 21.9714 17.8166C21.7831 18.0119 21.5223 18.1217 21.2511 18.1217H19.3428V19.6933L21.7358 19.6927C22.2526 19.6927 23.1783 18.7145 23.6178 18.1242C23.6178 18.1242 23.6365 18.0949 23.687 18.0803C23.7375 18.0657 28.0824 17.0679 28.0824 17.0679C28.1728 17.0426 28.2647 17.1117 28.2647 17.2062V18.1096V18.1093Z" fill="#EDFCF7" fill-opacity="0.62"/>
<path d="M102.351 13.9746C102.351 14.7389 102.087 15.3757 101.56 15.8852C101.042 16.3859 100.247 16.6363 99.1753 16.6363H97.4097V20.4706H96.2106V11.2866H99.1753C100.212 11.2866 100.998 11.537 101.534 12.0377C102.079 12.5384 102.351 13.184 102.351 13.9746ZM99.1753 15.648C99.8429 15.648 100.335 15.5031 100.651 15.2132C100.967 14.9233 101.125 14.5105 101.125 13.9746C101.125 12.8414 100.475 12.2749 99.1753 12.2749H97.4097V15.648H99.1753Z" fill="#EDFCF7" fill-opacity="0.62"/>
<path d="M104.513 14.4226C104.724 14.0098 105.023 13.6891 105.409 13.4608C105.805 13.2324 106.283 13.1182 106.845 13.1182V14.3568H106.529C105.185 14.3568 104.513 15.0859 104.513 16.544V20.4706H103.314V13.2499H104.513V14.4226Z" fill="#EDFCF7" fill-opacity="0.62"/>
<path d="M110.852 20.5892C110.175 20.5892 109.56 20.4355 109.007 20.1281C108.462 19.8206 108.032 19.3858 107.716 18.8236C107.408 18.2526 107.254 17.5938 107.254 16.8471C107.254 16.1092 107.413 15.4592 107.729 14.897C108.054 14.326 108.493 13.8912 109.046 13.5925C109.6 13.2851 110.219 13.1313 110.904 13.1313C111.59 13.1313 112.209 13.2851 112.762 13.5925C113.316 13.8912 113.75 14.3216 114.067 14.8838C114.392 15.446 114.554 16.1004 114.554 16.8471C114.554 17.5938 114.387 18.2526 114.054 18.8236C113.728 19.3858 113.285 19.8206 112.723 20.1281C112.16 20.4355 111.537 20.5892 110.852 20.5892ZM110.852 19.5351C111.282 19.5351 111.686 19.4341 112.064 19.2321C112.442 19.03 112.745 18.727 112.973 18.3229C113.21 17.9188 113.329 17.4269 113.329 16.8471C113.329 16.2673 113.215 15.7754 112.986 15.3713C112.758 14.9673 112.459 14.6686 112.09 14.4753C111.721 14.2733 111.322 14.1723 110.891 14.1723C110.452 14.1723 110.048 14.2733 109.679 14.4753C109.319 14.6686 109.029 14.9673 108.809 15.3713C108.59 15.7754 108.48 16.2673 108.48 16.8471C108.48 17.4357 108.585 17.932 108.796 18.3361C109.016 18.7401 109.306 19.0432 109.666 19.2452C110.026 19.4385 110.421 19.5351 110.852 19.5351Z" fill="#EDFCF7" fill-opacity="0.62"/>
</svg>
