<svg width="120" height="32" viewBox="0 0 120 32" fill="none" xmlns="http://www.w3.org/2000/svg">
<path d="M100.876 14.7782V12.9032C102.808 12.9032 104.64 12.7828 106.446 12.9413C107.874 13.0665 108.75 14.1992 108.779 15.6531C108.825 17.9322 108.791 20.2133 108.791 22.5673H106.915C106.915 20.7889 106.915 19.0377 106.915 17.2859C106.915 16.894 106.926 16.5015 106.909 16.111C106.87 15.2136 106.442 14.7455 105.486 14.7619C103.945 14.7884 102.403 14.7659 100.861 14.7639L100.876 14.7782Z" fill="#EDFCF7" fill-opacity="0.62"/>
<path d="M95.7396 20.6481V22.57H87.909V14.7782H89.8418L89.8295 14.7625V20.6603H95.7552L95.7396 20.6481Z" fill="#EDFCF7" fill-opacity="0.62"/>
<path d="M118.01 20.6481V22.5571C116.083 22.5571 114.193 22.6673 112.325 22.5169C111.154 22.4224 110.215 21.2617 110.156 20.0542C110.072 18.3377 110.135 16.6144 110.135 14.7782H112.112L112.1 14.7625C112.093 16.2865 112.091 17.8097 112.075 19.3337C112.065 20.2569 112.478 20.7079 113.434 20.6896C114.964 20.6596 116.495 20.6685 118.026 20.661L118.01 20.6481Z" fill="#EDFCF7" fill-opacity="0.62"/>
<path d="M100.861 14.7639L100.862 17.6961H105.825V19.6943H100.947V22.5653H98.9895V14.7782C99.6494 14.7782 100.263 14.7782 100.876 14.7782L100.861 14.7639Z" fill="#EDFCF7" fill-opacity="0.62"/>
<path d="M89.8418 14.7782V12.9066C91.6651 12.9066 93.4611 12.7916 95.2341 12.9427C96.6948 13.0672 97.6316 14.1938 97.6942 15.6599C97.7636 17.2825 97.7098 18.9098 97.7098 20.6488C97.0179 20.6488 96.3791 20.6481 95.7396 20.6481L95.7552 20.6603C95.7525 19.1643 95.7579 17.6689 95.7443 16.1729C95.7341 15.0884 95.4382 14.7884 94.3381 14.7748C92.8352 14.7557 91.3331 14.7653 89.8295 14.7625L89.8418 14.7782Z" fill="#EDFCF7" fill-opacity="0.62"/>
<path d="M112.112 14.7782V12.8624C113.937 12.8624 115.734 12.7494 117.51 12.8984C118.915 13.0161 119.905 14.2258 119.965 15.6613C120.033 17.2832 119.98 18.9105 119.98 20.6481C119.288 20.6481 118.65 20.6481 118.01 20.6481L118.026 20.661C118.023 19.165 118.029 17.6682 118.015 16.1722C118.005 15.0877 117.709 14.7877 116.609 14.7741C115.106 14.7551 113.603 14.7653 112.1 14.7625L112.112 14.7782Z" fill="#EDFCF7" fill-opacity="0.62"/>
<path d="M73.4557 20.6202C73.4863 21.2645 73.4557 22.6081 73.4557 22.6081C73.4557 22.6081 69.8319 22.6925 68.0481 22.5809C66.6956 22.4965 65.6431 21.2468 65.5894 19.8351C65.5363 18.4336 65.5383 17.026 65.5996 15.6252C65.6683 14.0686 66.882 12.8699 68.4481 12.829C70.4116 12.778 72.377 12.8168 74.4024 12.8168V14.7721C73.124 14.7721 70.0912 14.7796 68.5151 14.7837C67.9666 14.7851 67.5231 15.2284 67.5214 15.7769C67.5177 16.9033 67.5157 18.7101 67.5344 19.6711C67.5474 20.3317 67.9658 20.678 68.6236 20.6767C70.2279 20.6726 71.8508 20.6358 73.4557 20.6202Z" fill="#EDFCF7" fill-opacity="0.62"/>
<path d="M33.9914 14.7476C34.035 14.138 33.9914 12.8712 33.9914 12.8712C33.9914 12.8712 37.7768 12.6875 39.5409 12.9134C42.3017 13.2672 42.4336 16.4464 41.6186 18.2166C41.539 18.3894 41.4091 18.5397 41.3023 18.7003C41.4016 18.6949 41.5009 18.7057 41.6002 18.7003C41.788 19.982 41.9765 21.2488 42.1751 22.604H40.0845C40.0845 22.0775 40.1008 21.5665 40.0811 21.0563C40.0416 20.031 39.7273 19.7174 38.7102 19.7058C37.5353 19.6922 36.3597 19.7024 35.1357 19.7024V17.7662H38.4699C39.0674 17.7662 39.6798 17.5202 39.9225 16.9742C40.1877 16.3779 40.1401 15.8308 39.7751 15.2934C39.4968 14.8836 38.989 14.7204 38.4935 14.7204H33.9914V14.7476Z" fill="#EDFCF7" fill-opacity="0.62"/>
<path d="M78.5204 14.7312L78.6201 19.5986C78.6312 20.1423 79.0752 20.5773 79.6191 20.5773H86.5129V22.6197C84.1175 22.6197 81.7581 22.6687 79.4021 22.602C77.8693 22.5591 76.7665 21.3543 76.689 19.6779C76.6155 18.086 76.6733 16.4777 76.6733 14.7312H78.5204Z" fill="#EDFCF7" fill-opacity="0.62"/>
<path d="M45.2931 14.8442C45.2577 14.202 45.3305 13.559 45.2931 12.8767C47.13 12.8767 48.8396 12.7807 50.5888 12.9066C52.0277 13.01 53.0454 14.0339 53.1067 15.4538C53.2094 17.8227 53.1346 20.1991 53.1346 22.6088H51.2072C51.2072 21.2087 51.2072 19.7875 51.2072 18.3669C51.2072 17.5839 51.1861 16.7995 51.2126 16.0171C51.2398 15.1905 50.8072 14.7898 50.0384 14.7823C48.4668 14.7666 46.8646 14.8047 45.2931 14.8211V14.8462V14.8442Z" fill="#EDFCF7" fill-opacity="0.62"/>
<path d="M28.9155 20.6474V22.5632C27.0378 22.5632 25.1478 22.6782 23.281 22.5231C22.0305 22.419 21.1073 21.2148 21.057 19.9181C20.9924 18.2329 21.0413 16.5436 21.0413 14.7904H23.0218V14.7564C23.0129 16.3178 22.9966 17.8791 22.985 19.4412C22.9789 20.2861 23.3939 20.6998 24.243 20.693C25.8118 20.6814 27.3807 20.6739 28.9495 20.6651L28.9155 20.6474Z" fill="#EDFCF7" fill-opacity="0.62"/>
<path d="M23.0218 14.7904V12.8569C24.7968 12.8569 26.6044 12.7522 28.3841 12.8903C29.8128 13.0005 30.7796 14.1312 30.8531 15.6109C30.9354 17.2655 30.8721 18.9268 30.8721 20.6481C30.202 20.6481 29.5584 20.6474 28.9155 20.6474L28.9495 20.6651C28.9447 19.1663 28.9481 17.6676 28.9339 16.1688C28.9236 15.0782 28.6379 14.7884 27.531 14.7741C26.0254 14.7551 24.5274 14.7612 23.0218 14.7564V14.7904Z" fill="#EDFCF7" fill-opacity="0.62"/>
<path d="M45.2931 14.8197V17.7145H50.1513V19.6691H45.2931V22.604H43.3446V14.8421C44.0025 14.8421 44.6202 14.8428 45.2931 14.8442V14.8197Z" fill="#EDFCF7" fill-opacity="0.62"/>
<path d="M62.4517 20.6855C62.3864 21.3094 62.3218 21.9332 62.2524 22.602C60.925 22.5775 60.1508 21.7536 59.6412 20.7066C58.9167 19.2194 58.3575 17.6526 57.6322 16.1661C57.3778 15.6449 57.2791 14.785 56.3212 14.936L56.3382 14.9571V12.8807C57.6152 12.8345 58.4071 13.4862 58.8956 14.4496C59.5542 15.7483 60.0562 17.1253 60.6869 18.439C61.1094 19.3201 61.2604 20.4481 62.483 20.7161L62.4517 20.6855Z" fill="#EDFCF7" fill-opacity="0.62"/>
<path d="M78.5204 14.7312V12.8665H86.4952V14.7224C83.8542 14.7224 78.5204 14.7312 78.5204 14.7312Z" fill="#EDFCF7" fill-opacity="0.62"/>
<path d="M33.9914 14.7204V22.604H32.1818V14.7496C32.7995 14.7496 33.9914 14.7489 33.9914 14.7489V14.7204Z" fill="#EDFCF7" fill-opacity="0.62"/>
<path d="M56.3382 14.9571L56.3212 14.936C56.3212 17.475 56.3212 20.014 56.3212 22.5959H54.4456V14.6952C55.1184 14.7877 55.7287 14.8721 56.3389 14.9558L56.3382 14.9571Z" fill="#EDFCF7" fill-opacity="0.62"/>
<path d="M73.4557 20.6202V18.7227H69.5537V16.7811H75.3909V20.6202C75.3909 20.6202 74.1238 20.6209 73.4557 20.6202Z" fill="#EDFCF7" fill-opacity="0.62"/>
<path d="M62.483 20.7161C62.4422 19.3922 62.3864 18.0676 62.3646 16.743C62.3442 15.4748 62.3605 14.2067 62.3605 12.8733H64.2423V20.6828C63.664 20.6828 63.0572 20.6828 62.451 20.6835L62.483 20.7161Z" fill="#EDFCF7" fill-opacity="0.62"/>
<path d="M79.6756 18.6527V16.7797H85.5244V18.6527H79.6756Z" fill="#EDFCF7" fill-opacity="0.62"/>
<g opacity="0.5">
<path d="M2.76147 7.3178H4.14118V6H2.76147V7.3178Z" fill="#EDFCF7" fill-opacity="0.62"/>
<path d="M8.42978 7.3178V6H9.75235V7.3178H8.42978Z" fill="#EDFCF7" fill-opacity="0.62"/>
<path d="M4.14125 8.78392H5.60884V11.359H7.04366V9.97654H8.4084V7.31781H7.04366V8.78392H5.60884L5.6094 7.31781L4.14118 7.3178L4.14125 8.78392Z" fill="#EDFCF7" fill-opacity="0.62"/>
</g>
<path d="M9.02142 22.1996V23.6983H5.60889V22.1996H9.02142Z" fill="#EDFCF7" fill-opacity="0.62"/>
<path d="M9.02142 22.1996L9.0221 20.8491H10.3515V22.1996L9.02142 22.1996Z" fill="#EDFCF7" fill-opacity="0.62"/>
<path opacity="0.75" fill-rule="evenodd" clip-rule="evenodd" d="M7.04426 11.359V9.97656H10.9881V11.359L13.784 11.359V12.8074H15.1712V15.4335H16.5769V22.1994H15.1707V23.6988H13.7835V25.1418H11.2459V26.5031H5.60864V25.1887H2.76078V23.6995H1.38923V22.2001H0V14.083H1.12509V12.8074H2.76129V11.359L7.04426 11.359ZM9.0205 22.1994V23.6988H5.60796V22.1994H9.0205ZM9.0205 22.1994L9.02118 20.8496H10.3505V22.1994H9.0205ZM2.76124 15.7852H1.43052V18.495H2.76124V15.7852ZM9.6258 15.7968H8.2318V18.495H9.6258V15.7968Z" fill="#EDFCF7" fill-opacity="0.62"/>
<path opacity="0.5" d="M16.5769 18.29H15.1707V16.9674H12.6331V19.65H7.04346V16.9756H5.60864V19.7125H0V14.0835H5.60864V15.434H7.04346V14.0835H12.6331V15.434H16.5769V18.2907V18.29Z" fill="#EDFCF7" fill-opacity="0.62"/>
<path d="M2.76147 15.7852H4.10445V18.4949H2.76147V15.7852Z" fill="#EDFCF7" fill-opacity="0.62"/>
<path d="M9.62522 15.7913H10.9138V18.4949H9.62522V15.7913Z" fill="#EDFCF7" fill-opacity="0.62"/>
</svg>
