<svg width="12" height="12" viewBox="0 0 12 12" fill="none" xmlns="http://www.w3.org/2000/svg">
<path d="M10.0246 5.88086L4.77456 11.5059C4.71892 11.5652 4.64548 11.6049 4.56533 11.6189C4.48517 11.6328 4.40264 11.6204 4.33019 11.5833C4.25775 11.5463 4.19932 11.4867 4.16372 11.4135C4.12811 11.3404 4.11728 11.2576 4.13284 11.1777L4.82002 7.74039L2.11862 6.72601C2.0606 6.70431 2.00887 6.66858 1.96803 6.622C1.92719 6.57542 1.89853 6.51946 1.8846 6.4591C1.87067 6.39875 1.87191 6.33588 1.88821 6.27612C1.90451 6.21636 1.93535 6.16157 1.97799 6.11664L7.22799 0.491637C7.28363 0.432263 7.35707 0.392596 7.43722 0.37862C7.51738 0.364645 7.59991 0.37712 7.67236 0.414163C7.7448 0.451206 7.80323 0.510807 7.83883 0.583972C7.87444 0.657138 7.88527 0.739897 7.86971 0.819762L7.18065 4.26086L9.88206 5.27382C9.93964 5.29567 9.99097 5.33137 10.0315 5.37776C10.072 5.42415 10.1005 5.47981 10.1144 5.53981C10.1283 5.59982 10.1272 5.66232 10.1112 5.7218C10.0952 5.78128 10.0648 5.83591 10.0227 5.88086H10.0246Z" fill="black" fill-opacity="0.75"/>
</svg>
