<svg width="320" height="450" viewBox="0 0 320 450" fill="none" xmlns="http://www.w3.org/2000/svg">
<g clip-path="url(#clip0_3007_22)">
<g clip-path="url(#clip1_3007_22)">
<rect x="20" y="12" width="280" height="308" rx="12" fill="#111111"/>
<rect x="20" y="12" width="280" height="308" rx="12" fill="url(#paint0_linear_3007_22)"/>
<g clip-path="url(#clip2_3007_22)">
<g style="mix-blend-mode:color-dodge">
<path opacity="0.54" d="M172.698 118.051H157.303C155.336 118.051 153.741 119.647 153.741 121.616V137.025C153.741 138.994 155.336 140.59 157.303 140.59H172.698C174.665 140.59 176.26 138.994 176.26 137.025V121.616C176.26 119.647 174.665 118.051 172.698 118.051Z" fill="#757575"/>
<path opacity="0.27" d="M143.013 118.051H127.618C125.651 118.051 124.056 119.647 124.056 121.616V137.025C124.056 138.994 125.651 140.59 127.618 140.59H143.013C144.981 140.59 146.575 138.994 146.575 137.025V121.616C146.575 119.647 144.981 118.051 143.013 118.051Z" fill="#757575"/>
<path opacity="0.08" d="M113.327 118.051H97.9315C95.9643 118.051 94.3696 119.647 94.3696 121.616V137.025C94.3696 138.994 95.9643 140.59 97.9315 140.59H113.327C115.294 140.59 116.889 138.994 116.889 137.025V121.616C116.889 119.647 115.294 118.051 113.327 118.051Z" fill="#757575"/>
<path opacity="0.59" d="M68.2468 118.051H83.6419C85.6061 118.051 87.2039 119.65 87.2039 121.616V137.025C87.2039 138.991 85.6061 140.59 83.6419 140.59H68.2468C66.2826 140.59 64.6848 138.991 64.6848 137.025V121.616C64.6848 119.65 66.2826 118.051 68.2468 118.051Z" fill="#757575"/>
<path opacity="0.25" d="M172.698 89.291H157.303C155.336 89.291 153.741 90.8872 153.741 92.8562V108.265C153.741 110.234 155.336 111.83 157.303 111.83H172.698C174.665 111.83 176.26 110.234 176.26 108.265V92.8562C176.26 90.8872 174.665 89.291 172.698 89.291Z" fill="#757575"/>
<path opacity="0.36" d="M143.013 89.291H127.618C125.651 89.291 124.056 90.8872 124.056 92.8562V108.265C124.056 110.234 125.651 111.83 127.618 111.83H143.013C144.981 111.83 146.575 110.234 146.575 108.265V92.8562C146.575 90.8872 144.981 89.291 143.013 89.291Z" fill="#757575"/>
<path opacity="0.77" d="M232.068 60.5218H216.673C214.705 60.5218 213.111 62.118 213.111 64.0869V79.4958C213.111 81.4647 214.705 83.0609 216.673 83.0609H232.068C234.035 83.0609 235.63 81.4647 235.63 79.4958V64.0869C235.63 62.118 234.035 60.5218 232.068 60.5218Z" fill="#757575"/>
<path opacity="0.6" d="M202.383 60.5218H186.988C185.021 60.5218 183.426 62.118 183.426 64.0869V79.4958C183.426 81.4647 185.021 83.0609 186.988 83.0609H202.383C204.35 83.0609 205.945 81.4647 205.945 79.4958V64.0869C205.945 62.118 204.35 60.5218 202.383 60.5218Z" fill="#757575"/>
<path opacity="0.47" d="M172.698 60.5218H157.303C155.336 60.5218 153.741 62.118 153.741 64.0869V79.4958C153.741 81.4647 155.336 83.0609 157.303 83.0609H172.698C174.665 83.0609 176.26 81.4647 176.26 79.4958V64.0869C176.26 62.118 174.665 60.5218 172.698 60.5218Z" fill="#757575"/>
<path opacity="0.24" d="M53.9571 60.5218H38.562C36.5947 60.5218 35 62.118 35 64.0869V79.4958C35 81.4647 36.5947 83.0609 38.562 83.0609H53.9571C55.9244 83.0609 57.5191 81.4647 57.5191 79.4958V64.0869C57.5191 62.118 55.9244 60.5218 53.9571 60.5218Z" fill="#757575"/>
<path opacity="0.96" d="M232.068 31.7618L216.673 31.7618C214.705 31.7618 213.111 33.358 213.111 35.327V50.7358C213.111 52.7047 214.705 54.3009 216.673 54.3009H232.068C234.035 54.3009 235.63 52.7047 235.63 50.7358V35.327C235.63 33.358 234.035 31.7618 232.068 31.7618Z" fill="#757575"/>
<path opacity="0.99" d="M202.383 31.7618L186.988 31.7618C185.021 31.7618 183.426 33.358 183.426 35.327V50.7358C183.426 52.7047 185.021 54.3009 186.988 54.3009H202.383C204.35 54.3009 205.945 52.7047 205.945 50.7358V35.327C205.945 33.358 204.35 31.7618 202.383 31.7618Z" fill="#757575"/>
<path opacity="0.06" d="M172.698 31.7618L157.303 31.7618C155.336 31.7618 153.741 33.358 153.741 35.327V50.7358C153.741 52.7047 155.336 54.3009 157.303 54.3009H172.698C174.665 54.3009 176.26 52.7047 176.26 50.7358V35.327C176.26 33.358 174.665 31.7618 172.698 31.7618Z" fill="#757575"/>
<path opacity="0.68" d="M83.6419 31.7618L68.2468 31.7618C66.2795 31.7618 64.6848 33.358 64.6848 35.327V50.7358C64.6848 52.7047 66.2795 54.3009 68.2468 54.3009H83.6419C85.6091 54.3009 87.2039 52.7047 87.2039 50.7358V35.327C87.2039 33.358 85.6091 31.7618 83.6419 31.7618Z" fill="#757575"/>
<path opacity="0.88" d="M53.9571 31.7618L38.562 31.7618C36.5947 31.7618 35 33.358 35 35.327V50.7358C35 52.7047 36.5947 54.3009 38.562 54.3009H53.9571C55.9244 54.3009 57.5191 52.7047 57.5191 50.7358V35.327C57.5191 33.358 55.9244 31.7618 53.9571 31.7618Z" fill="#757575"/>
<path opacity="0.24" d="M291.437 3L276.042 3C274.075 3 272.48 4.59616 272.48 6.56513V21.974C272.48 23.9429 274.075 25.5391 276.042 25.5391L291.437 25.5391C293.404 25.5391 294.999 23.9429 294.999 21.974V6.56513C294.999 4.59616 293.404 3 291.437 3Z" fill="#757575"/>
<path opacity="0.71" d="M261.752 3L246.357 3C244.39 3 242.795 4.59616 242.795 6.56513V21.974C242.795 23.9429 244.39 25.5391 246.357 25.5391L261.752 25.5391C263.72 25.5391 265.314 23.9429 265.314 21.974V6.56513C265.314 4.59616 263.72 3 261.752 3Z" fill="#757575"/>
<path opacity="0.13" d="M232.068 3L216.673 3C214.705 3 213.111 4.59616 213.111 6.56513V21.974C213.111 23.9429 214.705 25.5391 216.673 25.5391L232.068 25.5391C234.035 25.5391 235.63 23.9429 235.63 21.974V6.56513C235.63 4.59616 234.035 3 232.068 3Z" fill="#757575"/>
<path opacity="0.22" d="M202.383 3L186.988 3C185.021 3 183.426 4.59616 183.426 6.56513V21.974C183.426 23.9429 185.021 25.5391 186.988 25.5391L202.383 25.5391C204.35 25.5391 205.945 23.9429 205.945 21.974V6.56513C205.945 4.59616 204.35 3 202.383 3Z" fill="#757575"/>
<path opacity="0.81" d="M172.698 3L157.303 3C155.336 3 153.741 4.59616 153.741 6.56513V21.974C153.741 23.9429 155.336 25.5391 157.303 25.5391L172.698 25.5391C174.665 25.5391 176.26 23.9429 176.26 21.974V6.56513C176.26 4.59616 174.665 3 172.698 3Z" fill="#757575"/>
<path opacity="0.78" d="M113.327 3L97.9315 3C95.9643 3 94.3696 4.59616 94.3696 6.56513V21.974C94.3696 23.9429 95.9643 25.5391 97.9315 25.5391L113.327 25.5391C115.294 25.5391 116.889 23.9429 116.889 21.974V6.56513C116.889 4.59616 115.294 3 113.327 3Z" fill="#757575"/>
<path opacity="0.58" d="M83.6419 3L68.2468 3C66.2795 3 64.6848 4.59616 64.6848 6.56513V21.974C64.6848 23.9429 66.2795 25.5391 68.2468 25.5391L83.6419 25.5391C85.6091 25.5391 87.2039 23.9429 87.2039 21.974V6.56513C87.2039 4.59616 85.6091 3 83.6419 3Z" fill="#757575"/>
<path opacity="0.7" d="M53.9571 3L38.562 3C36.5947 3 35 4.59616 35 6.56513V21.974C35 23.9429 36.5947 25.5391 38.562 25.5391L53.9571 25.5391C55.9244 25.5391 57.5191 23.9429 57.5191 21.974V6.56513C57.5191 4.59616 55.9244 3 53.9571 3Z" fill="#757575"/>
</g>
</g>
<g clip-path="url(#clip3_3007_22)">
<g style="mix-blend-mode:color-dodge">
<path opacity="0.54" d="M172.698 182.754H157.303C155.336 182.754 153.741 181.072 153.741 178.997V162.758C153.741 160.683 155.336 159.001 157.303 159.001H172.698C174.665 159.001 176.26 160.683 176.26 162.758V178.997C176.26 181.072 174.665 182.754 172.698 182.754Z" fill="#555555"/>
<path opacity="0.27" d="M143.013 182.754H127.618C125.651 182.754 124.056 181.072 124.056 178.997V162.758C124.056 160.683 125.651 159.001 127.618 159.001H143.013C144.981 159.001 146.575 160.683 146.575 162.758V178.997C146.575 181.072 144.981 182.754 143.013 182.754Z" fill="#555555"/>
<path opacity="0.08" d="M113.327 182.754H97.9315C95.9643 182.754 94.3696 181.072 94.3696 178.997V162.758C94.3696 160.683 95.9643 159.001 97.9315 159.001H113.327C115.294 159.001 116.889 160.683 116.889 162.758V178.997C116.889 181.072 115.294 182.754 113.327 182.754Z" fill="#555555"/>
<path opacity="0.59" d="M68.2468 182.754H83.6419C85.6061 182.754 87.2039 181.069 87.2039 178.997V162.758C87.2039 160.686 85.6061 159.001 83.6419 159.001H68.2468C66.2826 159.001 64.6848 160.686 64.6848 162.758V178.997C64.6848 181.069 66.2826 182.754 68.2468 182.754Z" fill="#555555"/>
<path opacity="0.25" d="M172.698 213.062H157.303C155.336 213.062 153.741 211.38 153.741 209.305V193.067C153.741 190.992 155.336 189.31 157.303 189.31H172.698C174.665 189.31 176.26 190.992 176.26 193.067V209.305C176.26 211.38 174.665 213.062 172.698 213.062Z" fill="#555555"/>
<path opacity="0.36" d="M143.013 213.062H127.618C125.651 213.062 124.056 211.38 124.056 209.305V193.067C124.056 190.992 125.651 189.31 127.618 189.31H143.013C144.981 189.31 146.575 190.992 146.575 193.067V209.305C146.575 211.38 144.981 213.062 143.013 213.062Z" fill="#555555"/>
<path opacity="0.77" d="M232.068 243.381H216.673C214.705 243.381 213.111 241.699 213.111 239.624V223.385C213.111 221.31 214.705 219.628 216.673 219.628H232.068C234.035 219.628 235.63 221.31 235.63 223.385V239.624C235.63 241.699 234.035 243.381 232.068 243.381Z" fill="#555555"/>
<path opacity="0.6" d="M202.383 243.381H186.988C185.021 243.381 183.426 241.699 183.426 239.624V223.385C183.426 221.31 185.021 219.628 186.988 219.628H202.383C204.35 219.628 205.945 221.31 205.945 223.385V239.624C205.945 241.699 204.35 243.381 202.383 243.381Z" fill="#555555"/>
<path opacity="0.47" d="M172.698 243.381H157.303C155.336 243.381 153.741 241.699 153.741 239.624V223.385C153.741 221.31 155.336 219.628 157.303 219.628H172.698C174.665 219.628 176.26 221.31 176.26 223.385V239.624C176.26 241.699 174.665 243.381 172.698 243.381Z" fill="#555555"/>
<path opacity="0.24" d="M53.9571 243.381H38.562C36.5947 243.381 35 241.699 35 239.624V223.385C35 221.31 36.5947 219.628 38.562 219.628H53.9571C55.9244 219.628 57.5191 221.31 57.5191 223.385V239.624C57.5191 241.699 55.9244 243.381 53.9571 243.381Z" fill="#555555"/>
<path opacity="0.96" d="M232.068 273.689H216.673C214.705 273.689 213.111 272.007 213.111 269.932V253.694C213.111 251.619 214.705 249.937 216.673 249.937H232.068C234.035 249.937 235.63 251.619 235.63 253.694V269.932C235.63 272.007 234.035 273.689 232.068 273.689Z" fill="#555555"/>
<path opacity="0.99" d="M202.383 273.689H186.988C185.021 273.689 183.426 272.007 183.426 269.932V253.694C183.426 251.619 185.021 249.937 186.988 249.937H202.383C204.35 249.937 205.945 251.619 205.945 253.694V269.932C205.945 272.007 204.35 273.689 202.383 273.689Z" fill="#555555"/>
<path opacity="0.06" d="M172.698 273.689H157.303C155.336 273.689 153.741 272.007 153.741 269.932V253.694C153.741 251.619 155.336 249.937 157.303 249.937H172.698C174.665 249.937 176.26 251.619 176.26 253.694V269.932C176.26 272.007 174.665 273.689 172.698 273.689Z" fill="#555555"/>
<path opacity="0.68" d="M83.6419 273.689H68.2468C66.2795 273.689 64.6848 272.007 64.6848 269.932V253.694C64.6848 251.619 66.2795 249.937 68.2468 249.937H83.6419C85.6091 249.937 87.2039 251.619 87.2039 253.694V269.932C87.2039 272.007 85.6091 273.689 83.6419 273.689Z" fill="#555555"/>
<path opacity="0.88" d="M53.9571 273.689H38.562C36.5947 273.689 35 272.007 35 269.932V253.694C35 251.619 36.5947 249.937 38.562 249.937H53.9571C55.9244 249.937 57.5191 251.619 57.5191 253.694V269.932C57.5191 272.007 55.9244 273.689 53.9571 273.689Z" fill="#555555"/>
<path opacity="0.24" d="M291.437 304H276.042C274.075 304 272.48 302.318 272.48 300.243V284.004C272.48 281.929 274.075 280.247 276.042 280.247H291.437C293.404 280.247 294.999 281.929 294.999 284.004V300.243C294.999 302.318 293.404 304 291.437 304Z" fill="#555555"/>
<path opacity="0.71" d="M261.752 304H246.357C244.39 304 242.795 302.318 242.795 300.243V284.004C242.795 281.929 244.39 280.247 246.357 280.247H261.752C263.72 280.247 265.314 281.929 265.314 284.004V300.243C265.314 302.318 263.72 304 261.752 304Z" fill="#555555"/>
<path opacity="0.13" d="M232.068 304H216.673C214.705 304 213.111 302.318 213.111 300.243V284.004C213.111 281.929 214.705 280.247 216.673 280.247H232.068C234.035 280.247 235.63 281.929 235.63 284.004V300.243C235.63 302.318 234.035 304 232.068 304Z" fill="#555555"/>
<path opacity="0.22" d="M202.383 304H186.988C185.021 304 183.426 302.318 183.426 300.243V284.004C183.426 281.929 185.021 280.247 186.988 280.247H202.383C204.35 280.247 205.945 281.929 205.945 284.004V300.243C205.945 302.318 204.35 304 202.383 304Z" fill="#555555"/>
<path opacity="0.81" d="M172.698 304H157.303C155.336 304 153.741 302.318 153.741 300.243V284.004C153.741 281.929 155.336 280.247 157.303 280.247H172.698C174.665 280.247 176.26 281.929 176.26 284.004V300.243C176.26 302.318 174.665 304 172.698 304Z" fill="#555555"/>
<path opacity="0.78" d="M113.327 304H97.9315C95.9643 304 94.3696 302.318 94.3696 300.243V284.004C94.3696 281.929 95.9643 280.247 97.9315 280.247H113.327C115.294 280.247 116.889 281.929 116.889 284.004V300.243C116.889 302.318 115.294 304 113.327 304Z" fill="#555555"/>
<path opacity="0.58" d="M83.6419 304H68.2468C66.2795 304 64.6848 302.318 64.6848 300.243V284.004C64.6848 281.929 66.2795 280.247 68.2468 280.247H83.6419C85.6091 280.247 87.2039 281.929 87.2039 284.004V300.243C87.2039 302.318 85.6091 304 83.6419 304Z" fill="#555555"/>
<path opacity="0.7" d="M53.9571 304H38.562C36.5947 304 35 302.318 35 300.243V284.004C35 281.929 36.5947 280.247 38.562 280.247H53.9571C55.9244 280.247 57.5191 281.929 57.5191 284.004V300.243C57.5191 302.318 55.9244 304 53.9571 304Z" fill="#555555"/>
</g>
</g>
<g filter="url(#filter0_dddddd_3007_22)">
<path d="M46.25 73H40V41.75H65V48H46.25V54.25H58.75V60.5H46.25V73ZM77.5 73H71.25V41.75H90V48H77.5V54.25H90V60.5H77.5V73ZM96.25 54.25H90V48H96.25V54.25ZM96.25 73H90V60.5H96.25V73ZM127.5 66.75V73H102.5V41.75H127.5V48H108.75V54.25H121.25V60.5H108.75V66.75H127.5ZM158.75 66.75V73H133.75V41.75H158.75V48H140V54.25H152.5V60.5H140V66.75H158.75ZM183.75 73H177.5V41.75H183.75V48H190V54.25H183.75V73ZM208.75 73H202.5V54.25H196.25V48H202.5V41.75H208.75V73ZM190 60.5V54.25H196.25V60.5H190ZM221.25 73H215V41.75H221.25V73ZM233.75 73H227.5V41.75H233.75V48H240V54.25H233.75V73ZM252.5 73H246.25V60.5H240V54.25H246.25V41.75H252.5V73ZM271.25 73H265V48H258.75V41.75H277.5V48H271.25V73Z" fill="white"/>
</g>
</g>
<rect x="20.5" y="12.5" width="279" height="307" rx="11.5" stroke="#48E59B"/>
<path d="M35.2496 106.653L0.215681 65.3574L-24.5 93.4482L18.6925 124.66L23.4916 118.418L89.72 172.439L41.0086 101.371L35.2496 106.653Z" fill="#54FFAF"/>
<g filter="url(#filter1_b_3007_22)">
<path d="M298.393 315.122L337.25 331.565L322.112 356.478L288.855 331.622L292.38 326.602L236.803 289.923L300.98 309.61L298.393 315.122Z" fill="url(#paint1_linear_3007_22)"/>
</g>
<path d="M296.258 96.1053L198.965 177.097L343 78.873L322.225 54.0585L288.64 87.1445L296.258 96.1053Z" fill="#54FFAF"/>
<g filter="url(#filter2_b_3007_22)">
<path d="M165.899 86.6617L152.269 84.3091L161.052 17.9999L226.632 17.9999L208.032 64.553L223.448 71.5639L191.738 130.781L202.099 136.657L129.043 244.413L169.38 127.887L158.008 121.785L165.899 86.6617Z" fill="url(#paint2_linear_3007_22)"/>
</g>
<g filter="url(#filter3_b_3007_22)">
<path d="M-12 320.516L103 300L27.1156 324L29.4626 332.903L-8.47959 348L-12 320.516Z" fill="url(#paint3_linear_3007_22)"/>
</g>
<g filter="url(#filter4_dd_3007_22)">
<path d="M46.25 72H40V40.75H65V47H46.25V53.25H58.75V59.5H46.25V72ZM77.5 72H71.25V40.75H90V47H77.5V53.25H90V59.5H77.5V72ZM96.25 53.25H90V47H96.25V53.25ZM96.25 72H90V59.5H96.25V72ZM127.5 65.75V72H102.5V40.75H127.5V47H108.75V53.25H121.25V59.5H108.75V65.75H127.5ZM158.75 65.75V72H133.75V40.75H158.75V47H140V53.25H152.5V59.5H140V65.75H158.75ZM183.75 72H177.5V40.75H183.75V47H190V53.25H183.75V72ZM208.75 72H202.5V53.25H196.25V47H202.5V40.75H208.75V72ZM190 59.5V53.25H196.25V59.5H190ZM221.25 72H215V40.75H221.25V72ZM233.75 72H227.5V40.75H233.75V47H240V53.25H233.75V72ZM252.5 72H246.25V59.5H240V53.25H246.25V40.75H252.5V72ZM271.25 72H265V47H258.75V40.75H277.5V47H271.25V72Z" fill="white"/>
</g>
</g>
<defs>
<filter id="filter0_dddddd_3007_22" x="-882.32" y="-880.57" width="2082.14" height="1875.89" filterUnits="userSpaceOnUse" color-interpolation-filters="sRGB">
<feFlood flood-opacity="0" result="BackgroundImageFix"/>
<feColorMatrix in="SourceAlpha" type="matrix" values="0 0 0 0 0 0 0 0 0 0 0 0 0 0 0 0 0 0 127 0" result="hardAlpha"/>
<feOffset/>
<feGaussianBlur stdDeviation="10.98"/>
<feColorMatrix type="matrix" values="0 0 0 0 0 0 0 0 0 0.760784 0 0 0 0 0.403922 0 0 0 1 0"/>
<feBlend mode="normal" in2="BackgroundImageFix" result="effect1_dropShadow_3007_22"/>
<feColorMatrix in="SourceAlpha" type="matrix" values="0 0 0 0 0 0 0 0 0 0 0 0 0 0 0 0 0 0 127 0" result="hardAlpha"/>
<feOffset/>
<feGaussianBlur stdDeviation="21.96"/>
<feColorMatrix type="matrix" values="0 0 0 0 0 0 0 0 0 0.760784 0 0 0 0 0.403922 0 0 0 1 0"/>
<feBlend mode="normal" in2="effect1_dropShadow_3007_22" result="effect2_dropShadow_3007_22"/>
<feColorMatrix in="SourceAlpha" type="matrix" values="0 0 0 0 0 0 0 0 0 0 0 0 0 0 0 0 0 0 127 0" result="hardAlpha"/>
<feOffset/>
<feGaussianBlur stdDeviation="76.86"/>
<feColorMatrix type="matrix" values="0 0 0 0 0 0 0 0 0 0.760784 0 0 0 0 0.403922 0 0 0 1 0"/>
<feBlend mode="normal" in2="effect2_dropShadow_3007_22" result="effect3_dropShadow_3007_22"/>
<feColorMatrix in="SourceAlpha" type="matrix" values="0 0 0 0 0 0 0 0 0 0 0 0 0 0 0 0 0 0 127 0" result="hardAlpha"/>
<feOffset/>
<feGaussianBlur stdDeviation="153.72"/>
<feColorMatrix type="matrix" values="0 0 0 0 0 0 0 0 0 0.760784 0 0 0 0 0.403922 0 0 0 1 0"/>
<feBlend mode="normal" in2="effect3_dropShadow_3007_22" result="effect4_dropShadow_3007_22"/>
<feColorMatrix in="SourceAlpha" type="matrix" values="0 0 0 0 0 0 0 0 0 0 0 0 0 0 0 0 0 0 127 0" result="hardAlpha"/>
<feOffset/>
<feGaussianBlur stdDeviation="263.52"/>
<feColorMatrix type="matrix" values="0 0 0 0 0 0 0 0 0 0.760784 0 0 0 0 0.403922 0 0 0 1 0"/>
<feBlend mode="normal" in2="effect4_dropShadow_3007_22" result="effect5_dropShadow_3007_22"/>
<feColorMatrix in="SourceAlpha" type="matrix" values="0 0 0 0 0 0 0 0 0 0 0 0 0 0 0 0 0 0 127 0" result="hardAlpha"/>
<feOffset/>
<feGaussianBlur stdDeviation="461.16"/>
<feColorMatrix type="matrix" values="0 0 0 0 0 0 0 0 0 0.760784 0 0 0 0 0.403922 0 0 0 1 0"/>
<feBlend mode="normal" in2="effect5_dropShadow_3007_22" result="effect6_dropShadow_3007_22"/>
<feBlend mode="normal" in="SourceGraphic" in2="effect6_dropShadow_3007_22" result="shape"/>
</filter>
<filter id="filter1_b_3007_22" x="211.803" y="264.923" width="150.447" height="116.556" filterUnits="userSpaceOnUse" color-interpolation-filters="sRGB">
<feFlood flood-opacity="0" result="BackgroundImageFix"/>
<feGaussianBlur in="BackgroundImageFix" stdDeviation="12.5"/>
<feComposite in2="SourceAlpha" operator="in" result="effect1_backgroundBlur_3007_22"/>
<feBlend mode="normal" in="SourceGraphic" in2="effect1_backgroundBlur_3007_22" result="shape"/>
</filter>
<filter id="filter2_b_3007_22" x="79.043" y="-32.0001" width="197.589" height="326.413" filterUnits="userSpaceOnUse" color-interpolation-filters="sRGB">
<feFlood flood-opacity="0" result="BackgroundImageFix"/>
<feGaussianBlur in="BackgroundImageFix" stdDeviation="25"/>
<feComposite in2="SourceAlpha" operator="in" result="effect1_backgroundBlur_3007_22"/>
<feBlend mode="normal" in="SourceGraphic" in2="effect1_backgroundBlur_3007_22" result="shape"/>
</filter>
<filter id="filter3_b_3007_22" x="-37" y="275" width="165" height="98" filterUnits="userSpaceOnUse" color-interpolation-filters="sRGB">
<feFlood flood-opacity="0" result="BackgroundImageFix"/>
<feGaussianBlur in="BackgroundImageFix" stdDeviation="12.5"/>
<feComposite in2="SourceAlpha" operator="in" result="effect1_backgroundBlur_3007_22"/>
<feBlend mode="normal" in="SourceGraphic" in2="effect1_backgroundBlur_3007_22" result="shape"/>
</filter>
<filter id="filter4_dd_3007_22" x="32" y="32.75" width="253.5" height="47.25" filterUnits="userSpaceOnUse" color-interpolation-filters="sRGB">
<feFlood flood-opacity="0" result="BackgroundImageFix"/>
<feColorMatrix in="SourceAlpha" type="matrix" values="0 0 0 0 0 0 0 0 0 0 0 0 0 0 0 0 0 0 127 0" result="hardAlpha"/>
<feOffset/>
<feGaussianBlur stdDeviation="2"/>
<feComposite in2="hardAlpha" operator="out"/>
<feColorMatrix type="matrix" values="0 0 0 0 0.282353 0 0 0 0 0.898039 0 0 0 0 0.607843 0 0 0 0.5 0"/>
<feBlend mode="normal" in2="BackgroundImageFix" result="effect1_dropShadow_3007_22"/>
<feColorMatrix in="SourceAlpha" type="matrix" values="0 0 0 0 0 0 0 0 0 0 0 0 0 0 0 0 0 0 127 0" result="hardAlpha"/>
<feOffset/>
<feGaussianBlur stdDeviation="4"/>
<feComposite in2="hardAlpha" operator="out"/>
<feColorMatrix type="matrix" values="0 0 0 0 0.305811 0 0 0 0 1 0 0 0 0 0.672802 0 0 0 0.5 0"/>
<feBlend mode="normal" in2="effect1_dropShadow_3007_22" result="effect2_dropShadow_3007_22"/>
<feBlend mode="normal" in="SourceGraphic" in2="effect2_dropShadow_3007_22" result="shape"/>
</filter>
<linearGradient id="paint0_linear_3007_22" x1="20" y1="166" x2="300" y2="166" gradientUnits="userSpaceOnUse">
<stop stop-color="#48E59B" stop-opacity="0.08"/>
<stop offset="1" stop-color="#00DBA0" stop-opacity="0.1"/>
</linearGradient>
<linearGradient id="paint1_linear_3007_22" x1="329.714" y1="307.477" x2="298.532" y2="267.438" gradientUnits="userSpaceOnUse">
<stop stop-color="#48E59B" stop-opacity="0.4"/>
<stop offset="1" stop-color="#48E59B" stop-opacity="0.04"/>
</linearGradient>
<linearGradient id="paint2_linear_3007_22" x1="177.838" y1="17.9999" x2="177.838" y2="244.413" gradientUnits="userSpaceOnUse">
<stop stop-color="#48E59B" stop-opacity="0.24"/>
<stop offset="1" stop-color="#48E59B" stop-opacity="0.04"/>
</linearGradient>
<linearGradient id="paint3_linear_3007_22" x1="45.5" y1="300" x2="4.5" y2="334.5" gradientUnits="userSpaceOnUse">
<stop stop-color="#48E59B" stop-opacity="0.04"/>
<stop offset="1" stop-color="#48E59B" stop-opacity="0.12"/>
</linearGradient>
<clipPath id="clip0_3007_22">
<rect width="320" height="450" fill="white"/>
</clipPath>
<clipPath id="clip1_3007_22">
<rect x="20" y="12" width="280" height="308" rx="12" fill="white"/>
</clipPath>
<clipPath id="clip2_3007_22">
<rect width="260" height="138" fill="white" transform="translate(35 3)"/>
</clipPath>
<clipPath id="clip3_3007_22">
<rect width="260" height="145" fill="white" transform="matrix(1 0 0 -1 35 304)"/>
</clipPath>
</defs>
</svg>
