<svg width="280" height="60" viewBox="0 0 280 60" fill="none" xmlns="http://www.w3.org/2000/svg">
<path d="M12 0.5H268C274.351 0.5 279.5 5.64873 279.5 12V48C279.5 54.3513 274.351 59.5 268 59.5H12C5.64873 59.5 0.5 54.3513 0.5 48V12C0.5 5.64873 5.64873 0.5 12 0.5Z" fill="#111111"/>
<path d="M12 0.5H268C274.351 0.5 279.5 5.64873 279.5 12V48C279.5 54.3513 274.351 59.5 268 59.5H12C5.64873 59.5 0.5 54.3513 0.5 48V12C0.5 5.64873 5.64873 0.5 12 0.5Z" fill="url(#paint0_linear_3007_128)"/>
<path d="M12 0.5H268C274.351 0.5 279.5 5.64873 279.5 12V48C279.5 54.3513 274.351 59.5 268 59.5H12C5.64873 59.5 0.5 54.3513 0.5 48V12C0.5 5.64873 5.64873 0.5 12 0.5Z" stroke="#48E59B"/>
<defs>
<linearGradient id="paint0_linear_3007_128" x1="0" y1="30" x2="280" y2="30" gradientUnits="userSpaceOnUse">
<stop stop-color="#48E59B" stop-opacity="0.08"/>
<stop offset="0.51" stop-color="#23E09E" stop-opacity="0"/>
<stop offset="1" stop-color="#00DBA0" stop-opacity="0.1"/>
</linearGradient>
</defs>
</svg>
