<svg width="120" height="32" viewBox="0 0 120 32" fill="none" xmlns="http://www.w3.org/2000/svg">
<path fill-rule="evenodd" clip-rule="evenodd" d="M75.3958 18.629H75.1247L71.5972 8.39972H67.4655V8.82265L72.4415 23.1077H77.9287L82.9062 8.82265V8.39972H78.9543L75.3942 18.629H75.3958Z" fill="#EDFCF7" fill-opacity="0.62"/>
<path d="M66.3656 8.39972H62.2572V23.1061H66.3656V8.39972Z" fill="#EDFCF7" fill-opacity="0.62"/>
<path fill-rule="evenodd" clip-rule="evenodd" d="M95.1108 8.39813H95.1139L91.5538 18.6305H91.2827L87.7552 8.39967H83.6235V8.8257L89.0287 24.3455H83.9101V27.7521H88.9125C91.0488 27.7521 92.7126 27.0317 93.5197 24.7327C93.6282 24.426 99.0627 8.8226 99.0627 8.8226V8.39658H95.1108V8.39813Z" fill="#EDFCF7" fill-opacity="0.62"/>
<path fill-rule="evenodd" clip-rule="evenodd" d="M41.3199 8C39.4516 8 37.7057 8.9512 36.6166 10.739H36.3641V8.41518H32.4477V27.7475H36.6088V21.2347H36.8644C36.8923 21.2734 36.9202 21.3137 36.9481 21.3462C37.6499 22.1998 39.2889 23.5012 41.3277 23.5012C45.038 23.5012 47.5755 20.2943 47.5755 15.7521C47.5755 11.2099 44.9125 8 41.3199 8ZM40.0775 20.3129C38.141 20.3129 36.804 18.804 36.804 15.7537C36.804 12.7033 38.141 11.1944 40.0775 11.1944C42.0139 11.1944 43.416 12.7359 43.416 15.7537C43.416 18.7715 42.0465 20.3129 40.0775 20.3129Z" fill="#EDFCF7" fill-opacity="0.62"/>
<path fill-rule="evenodd" clip-rule="evenodd" d="M57.8962 8.39813C55.9675 8.39813 54.7297 8.72036 54.0062 10.739H53.7583V8.39968H47.8017V11.7769H49.1309C49.5693 11.7769 49.7847 11.9318 49.8404 12.2912V15.0984H49.8559V23.1077H54.017V15.306C54.017 13.2858 54.5655 12.048 56.5856 12.048H60.945V8.39813H57.8978H57.8962Z" fill="#EDFCF7" fill-opacity="0.62"/>
<path d="M17.7459 23.4965C22.0232 23.4965 25.4919 20.0279 25.4919 15.7506C25.4919 11.4733 22.0232 8.00464 17.7459 8.00464C13.4686 8.00464 9.99999 11.4733 9.99999 15.7506C9.99999 20.0279 13.4686 23.4965 17.7459 23.4965Z" fill="#EDFCF7" fill-opacity="0.62"/>
<path d="M17.7459 28C20.6692 28 23.0395 27.5012 23.0395 26.8892C23.0395 26.2773 20.6708 25.7785 17.7459 25.7785C14.8211 25.7785 12.4523 26.2773 12.4523 26.8892C12.4523 27.5012 14.8211 28 17.7459 28Z" fill="#EDFCF7" fill-opacity="0.62"/>
</svg>
