<svg width="120" height="32" viewBox="0 0 120 32" fill="none" xmlns="http://www.w3.org/2000/svg">
<path fill-rule="evenodd" clip-rule="evenodd" d="M3 16C3 23.1798 8.82022 29 16 29C23.1798 29 29.0004 23.1798 29.0004 16C29.0004 8.82022 23.1798 3 16 3C8.82022 3 3 8.82022 3 16Z" fill="#EDFCF7" fill-opacity="0.2"/>
<path fill-rule="evenodd" clip-rule="evenodd" d="M10.2656 12.9375L10.5865 11.946C10.6517 11.7444 10.8109 11.5875 11.0132 11.5256L12.0096 11.2192C12.1475 11.1771 12.1486 10.9825 12.0118 10.9382L11.02 10.6173C10.8187 10.552 10.6618 10.3929 10.5996 10.1905L10.2936 9.19419C10.2514 9.05665 10.0569 9.05515 10.0125 9.19237L9.6916 10.1838C9.6264 10.3851 9.46722 10.542 9.26484 10.6042L8.26854 10.9103C8.13064 10.9527 8.12915 11.1469 8.26631 11.1912L9.25812 11.5122C9.45939 11.5774 9.61633 11.7369 9.67854 11.9393L9.98455 12.9352C10.0267 13.0731 10.2212 13.0746 10.2656 12.9375Z" fill="#EDFCF7" fill-opacity="0.62"/>
<path fill-rule="evenodd" clip-rule="evenodd" d="M26.0131 12.3602C25.5719 11.2467 24.7516 10.3095 23.6506 9.61791C22.5563 8.93393 21.0363 8.58486 19.5302 8.88243C18.7861 9.02634 18.0653 9.30337 17.4326 9.67231C16.8029 10.0398 16.2386 10.4821 15.7501 10.9568C15.5062 11.1948 15.2848 11.4432 15.0649 11.693L14.4949 12.4197L13.6145 13.5895C12.4922 15.0946 11.2836 16.8585 9.3002 17.3812C7.35307 17.8943 6.50856 17.4399 5.32018 17.2522C5.53747 17.8132 5.80664 18.3579 6.17153 18.8372C6.52963 19.3262 6.9526 19.7855 7.47847 20.1792C7.74422 20.3683 8.02479 20.5549 8.33641 20.7131C8.6466 20.8661 8.98113 21.0006 9.33819 21.102C10.0484 21.2966 10.848 21.3648 11.6222 21.2601C12.3968 21.1568 13.1372 20.9113 13.7843 20.5853C14.4362 20.2624 15.0041 19.8691 15.5112 19.454C16.5192 18.617 17.3033 17.692 17.9656 16.757C18.2987 16.2896 18.6011 15.8133 18.8808 15.3369L19.2099 14.7698C19.3105 14.604 19.4123 14.4372 19.5157 14.2818C19.9328 13.6577 20.3407 13.1572 20.8362 12.7815C21.3249 12.3961 22.0052 12.1114 22.9145 12.0453C23.8199 11.9784 24.8652 12.102 26.0131 12.3602Z" fill="#EDFCF7" fill-opacity="0.62"/>
<path d="M5.32032 17.2526C5.53758 17.8135 5.80671 18.3581 6.17153 18.8373C6.52962 19.3263 6.95259 19.7856 7.47846 20.1792C7.74421 20.3683 8.02479 20.5549 8.3364 20.7132C8.64659 20.8661 8.98112 21.0007 9.33818 21.102C10.0484 21.2967 10.848 21.3649 11.6222 21.2602C12.3968 21.1568 13.1372 20.9114 13.7843 20.5853C14.4362 20.2624 15.0041 19.8692 15.5112 19.4541C16.5192 18.617 17.3033 17.6921 17.9656 16.7571C18.2987 16.2897 18.6011 15.8134 18.8808 15.337L19.2099 14.7699C19.3105 14.604 19.4123 14.4372 19.5157 14.2819C19.9328 13.6577 20.3407 13.1572 20.8362 12.7816C21.3249 12.3962 22.0052 12.1115 22.9145 12.0453C23.8198 11.9784 24.8649 12.102 26.0127 12.3601C26.0126 12.36 26.0128 12.3603 26.0127 12.3601C25.7199 12.4481 25.4825 12.5622 25.2574 12.7076C25.0356 12.8423 24.8353 12.9919 24.6499 13.1448C24.2783 13.4579 23.9637 13.7837 23.6651 14.1244C23.1025 14.7614 22.6144 15.4501 22.1238 16.1421C22.0972 16.1797 22.0705 16.2173 22.0439 16.2549C21.9125 16.4283 21.7864 16.6145 21.6599 16.8013C21.5323 16.9898 21.4043 17.1789 21.2702 17.3556L20.8864 17.9242C20.7475 18.1224 20.6459 18.2643 20.454 18.5179C19.7587 19.4355 18.934 20.3183 17.9147 21.0932C16.898 21.8603 15.6401 22.5236 14.2067 22.7995C12.7771 23.087 11.2482 22.8965 10.0316 22.3656C8.7971 21.8463 7.83615 21.0566 7.06659 20.1902C6.30596 19.3085 5.71374 18.344 5.32032 17.2526C5.3204 17.2526 5.32024 17.2525 5.32032 17.2526Z" fill="#EDFCF7" fill-opacity="0.4"/>
<path fill-rule="evenodd" clip-rule="evenodd" d="M21.1146 21.6111C21.1146 22.4288 21.7779 23.0921 22.5956 23.0921C23.4134 23.0921 24.0759 22.4288 24.0759 21.6111C24.0759 20.7933 23.4134 20.1301 22.5956 20.1301C21.7779 20.1301 21.1146 20.7933 21.1146 21.6111Z" fill="#EDFCF7" fill-opacity="0.4"/>
<path d="M36.4378 20.7038C36.8706 21.223 37.4168 21.6225 38.0731 21.9023C38.735 22.1822 39.4748 22.3208 40.2902 22.3208C40.8873 22.3208 41.4491 22.2435 41.9749 22.0879C42.5006 21.9377 42.9647 21.7169 43.3656 21.4244L43.3666 21.4236C43.7698 21.124 44.0841 20.7526 44.308 20.3104C44.5386 19.8653 44.6522 19.3601 44.6522 18.7981C44.6522 18.2388 44.5502 17.7649 44.3373 17.3838C44.13 17.0076 43.8663 16.7042 43.545 16.477C43.233 16.2511 42.9089 16.0753 42.5727 15.9506C42.2515 15.8295 41.9655 15.7341 41.715 15.6648L39.5659 15.0451C39.2946 14.9683 39.0148 14.8709 38.7267 14.7526C38.455 14.6338 38.2277 14.4768 38.0428 14.2823C37.8715 14.0972 37.781 13.8523 37.781 13.5348C37.781 13.2152 37.8804 12.9369 38.0799 12.6946L38.0807 12.6936C38.2841 12.4418 38.5599 12.2426 38.9134 12.0982C39.2658 11.9542 39.6634 11.8835 40.1084 11.8885C40.5724 11.8936 40.9957 11.9842 41.3799 12.1589L41.3812 12.1594C41.7646 12.3288 42.0817 12.5718 42.3345 12.889L42.3359 12.8908C42.5916 13.2006 42.7578 13.5731 42.8326 14.0123C42.8387 14.0476 42.8584 14.0789 42.8876 14.0994C42.9167 14.12 42.9529 14.1282 42.9881 14.122L44.4705 13.8632C44.5061 13.8569 44.5377 13.8366 44.5581 13.8069C44.5785 13.777 44.5861 13.7403 44.5791 13.7048C44.4393 13.0009 44.1643 12.3921 43.7519 11.882C43.3457 11.373 42.8313 10.9835 42.2112 10.7138C41.5957 10.4386 40.9 10.2999 40.1264 10.2945C39.3633 10.2892 38.6729 10.4147 38.0575 10.6737C37.4413 10.9332 36.9477 11.3111 36.5817 11.8083C36.2173 12.3052 36.038 12.9041 36.038 13.5976C36.038 14.0302 36.1083 14.4129 36.2533 14.742C36.3961 15.0605 36.5897 15.3376 36.8329 15.5697L36.8337 15.5705C37.0736 15.794 37.3457 15.9816 37.6496 16.1335L37.6505 16.134C37.9498 16.2783 38.2605 16.3989 38.5809 16.495L41.4617 17.3506C41.6586 17.4062 41.8478 17.4768 42.0291 17.5624C42.2064 17.6462 42.3628 17.749 42.4991 17.8706L42.5029 17.8739C42.6385 17.9862 42.7439 18.124 42.8194 18.2891L42.8214 18.2933C42.8988 18.4483 42.9405 18.641 42.9405 18.8765C42.9405 19.2558 42.8295 19.5785 42.6095 19.8512C42.3858 20.1283 42.0795 20.3457 41.6848 20.5006C41.2947 20.6506 40.854 20.7268 40.3608 20.7268C39.6005 20.7268 38.9454 20.5346 38.39 20.1545C37.8426 19.7711 37.4816 19.2422 37.3062 18.5607C37.2889 18.4937 37.2237 18.4508 37.1553 18.4616L35.7121 18.689C35.6764 18.6947 35.6444 18.7144 35.6236 18.7439C35.6026 18.7734 35.5944 18.8101 35.6009 18.8456C35.7302 19.5564 36.0087 20.1769 36.4372 20.703L36.4378 20.7038Z" fill="#EDFCF7" fill-opacity="0.62"/>
<path fill-rule="evenodd" clip-rule="evenodd" d="M66.4147 10.6777C66.3554 10.6777 66.3074 10.7258 66.3074 10.7851V21.9389C66.3074 21.9982 66.3554 22.0462 66.4148 22.0462H67.9479V17.9454H70.1876C70.4398 18.2471 70.6855 18.5627 70.9247 18.8923L70.926 18.8935L70.9266 18.8948C71.3186 19.4088 71.6806 19.9449 72.0134 20.5033C72.3144 20.9975 72.5783 21.4868 72.8025 21.9688L72.8389 22.0463H74.6531C74.7311 22.0463 74.7824 21.9662 74.7506 21.8954C74.5419 21.4382 74.3157 20.9905 74.0648 20.5544C73.7229 19.9448 73.3492 19.3413 72.9416 18.7439C72.7089 18.4025 72.471 18.0708 72.2279 17.749C72.9052 17.5421 73.4402 17.1679 73.8276 16.6249C74.2923 15.9677 74.5231 15.1943 74.5231 14.3115C74.5231 13.7049 74.4178 13.1498 74.2046 12.6482C73.9901 12.1393 73.6677 11.7173 73.238 11.3844C72.8116 11.0497 72.2864 10.8367 71.667 10.7412C71.5227 10.7146 71.3738 10.6987 71.2198 10.6933C71.0703 10.6829 70.939 10.6777 70.8278 10.6777L69.4154 10.6775C68.4148 10.6775 67.4149 10.6774 66.4147 10.6777ZM72.8519 14.3115C72.8519 14.6045 72.8032 14.8929 72.705 15.177C72.6095 15.45 72.4561 15.6892 72.2448 15.8959C72.0446 16.0917 71.7801 16.2306 71.4453 16.3082C71.3394 16.3323 71.225 16.3494 71.1021 16.3593C70.9819 16.3693 70.8746 16.3742 70.7817 16.3742H67.9479V12.2488H70.7817C70.8746 12.2488 70.9812 12.2537 71.1015 12.2637L71.1047 12.264L71.1073 12.2641C71.2269 12.2689 71.3374 12.2855 71.4401 12.3135L71.4434 12.3144L71.4466 12.3151C71.7801 12.3876 72.044 12.5259 72.2435 12.726L72.2448 12.7271C72.4561 12.9334 72.6088 13.1751 72.705 13.4534C72.8032 13.7321 72.8519 14.0184 72.8519 14.3115Z" fill="#EDFCF7" fill-opacity="0.62"/>
<path d="M85.109 10.9419L85.068 10.9868C84.7392 11.3473 84.3686 11.7501 83.9552 12.1951L83.9539 12.1962C83.5405 12.631 83.1057 13.0815 82.65 13.5478C82.2048 14.0036 81.7595 14.4541 81.3149 14.8993C80.9126 15.301 80.5323 15.677 80.1735 16.0271C80.5954 16.3311 81.038 16.6956 81.5008 17.12C82.0124 17.5888 82.5129 18.0892 83.0023 18.6214C83.4918 19.1535 83.95 19.6965 84.3758 20.2502C84.8132 20.8047 85.1766 21.3341 85.4665 21.8385L85.4892 21.8786C85.5308 21.9503 85.4788 22.0395 85.3963 22.0395H83.4658L83.4261 21.9775C83.1115 21.4849 82.7495 20.9916 82.34 20.4977L82.3387 20.4967C81.9292 19.9923 81.493 19.5142 81.0309 19.0624L81.0296 19.0613L81.0283 19.0602C80.5765 18.5975 80.1137 18.1719 79.6412 17.7833L79.6399 17.7824C79.2499 17.4543 78.8683 17.1681 78.4946 16.9235V22.0395H76.7923C76.7331 22.0395 76.685 21.9914 76.685 21.9321V10.8696C76.685 10.8103 76.7331 10.7623 76.7923 10.7623H78.4946V15.4456C78.802 15.1531 79.1336 14.8334 79.4891 14.4865C79.9337 14.0423 80.3724 13.598 80.806 13.1538C81.2395 12.7094 81.6471 12.2863 82.028 11.8843C82.4186 11.4723 82.7456 11.1139 83.0089 10.8088L83.0485 10.7623H85.0297C85.1226 10.7623 85.172 10.873 85.109 10.9419Z" fill="#EDFCF7" fill-opacity="0.62"/>
<path d="M94.8181 21.9739L94.8571 22.0395H96.2467C96.3065 22.0395 96.354 21.9914 96.354 21.9321V10.8696C96.354 10.8103 96.3065 10.7623 96.2467 10.7623H94.5769V18.5723C94.287 18.1107 93.9503 17.6025 93.5668 17.0479C93.0787 16.3261 92.5535 15.5939 91.9912 14.8513C91.4394 14.0981 90.8771 13.3713 90.3038 12.671C89.7409 11.9594 89.2092 11.3372 88.7087 10.8045L88.6691 10.7623H87.3606C87.3015 10.7623 87.2534 10.8103 87.2534 10.8696V21.9321C87.2534 21.9914 87.3015 22.0395 87.3606 22.0395H89.0311V13.6728C89.2593 13.9425 89.5023 14.2414 89.7604 14.5696C90.1088 15.0129 90.4676 15.4882 90.8374 15.9954C91.2073 16.4917 91.5778 17.0103 91.9477 17.5491L91.9483 17.5505C92.3292 18.0896 92.6932 18.6232 93.0423 19.1516L93.0429 19.1526C93.3913 19.67 93.7131 20.1713 94.0088 20.6566L94.0095 20.6583C94.3163 21.1448 94.586 21.5833 94.8181 21.9739Z" fill="#EDFCF7" fill-opacity="0.62"/>
<path d="M98.8688 10.8696C98.8688 10.8103 98.9169 10.7623 98.9761 10.7623H105.75C105.809 10.7623 105.857 10.8103 105.857 10.8696V12.3492H100.678V15.3532H105.285V16.9084H100.678V20.4526H106.254V21.9321C106.254 21.9914 106.206 22.0395 106.147 22.0395H98.9761C98.9169 22.0395 98.8688 21.9914 98.8688 21.9321V10.8696Z" fill="#EDFCF7" fill-opacity="0.62"/>
<path d="M116.617 10.8696V12.365H113.154V22.0395H111.344V12.365H107.881V10.8696C107.881 10.8103 107.929 10.7623 107.989 10.7623H116.51C116.569 10.7623 116.617 10.8103 116.617 10.8696Z" fill="#EDFCF7" fill-opacity="0.62"/>
<path fill-rule="evenodd" clip-rule="evenodd" d="M62.2824 20.5507C62.1238 20.0854 61.9599 19.6148 61.7907 19.1389L61.4107 18.0533C61.2141 18.1529 61.0145 18.2604 60.8118 18.3758L60.8105 18.3765C60.2475 18.6888 59.6881 19.0412 59.1322 19.434L59.1309 19.4348L59.1297 19.4357C58.5653 19.8153 58.0232 20.227 57.5032 20.6711L57.5021 20.672C56.9841 21.1051 56.5157 21.5467 56.0966 21.9967L56.0567 22.0394L56.0227 22.0395H54.2853C54.2107 22.0395 54.1589 21.9655 54.1844 21.8955C54.5808 20.8062 54.981 19.7183 55.3893 18.6334C55.7602 17.6373 56.1205 16.6941 56.4703 15.8037L56.4708 15.8025C56.8313 14.912 57.1864 14.0638 57.5364 13.2579C57.8876 12.4385 58.257 11.6272 58.642 10.8232C58.6599 10.7859 58.6975 10.7623 58.7388 10.7623H60.1864C60.2277 10.7623 60.2653 10.7859 60.2831 10.8232C60.6681 11.6272 61.0377 12.4385 61.3889 13.2579C61.7389 14.0641 62.0889 14.9125 62.4388 15.8031C62.7993 16.6938 63.165 17.6373 63.5359 18.6335C63.9442 19.7184 64.3444 20.8062 64.7408 21.8955C64.7663 21.9655 64.7145 22.0395 64.64 22.0395H62.825L62.7922 21.9527C62.6118 21.4751 62.4417 21.0072 62.2824 20.5507ZM60.33 15.2013C60.0394 14.4328 59.7364 13.6935 59.4211 12.9836C59.0963 13.6938 58.7838 14.4333 58.4838 15.2022C58.1575 16.0548 57.8312 16.9388 57.5048 17.8544L57.2582 18.5588C57.8407 18.1234 58.4279 17.7201 59.0199 17.3488C59.6382 16.961 60.2164 16.6442 60.7543 16.3993L60.7687 16.3928L60.7893 16.3836C60.6364 15.9836 60.4835 15.5901 60.3307 15.2031L60.33 15.2013Z" fill="#EDFCF7" fill-opacity="0.62"/>
<path d="M54.627 12.365V10.8696C54.627 10.8103 54.5789 10.7623 54.5196 10.7623H45.9989C45.9396 10.7623 45.8915 10.8103 45.8915 10.8696V12.365H49.3546V21.9321C49.3546 21.9914 49.4026 22.0395 49.4619 22.0395H51.0566C51.1159 22.0395 51.1639 21.9914 51.1639 21.9321V12.365H54.627Z" fill="#EDFCF7" fill-opacity="0.62"/>
</svg>
