<svg width="120" height="32" viewBox="0 0 120 32" fill="none" xmlns="http://www.w3.org/2000/svg">
<path d="M34.6612 4.19901C34.6761 4.13261 34.6909 4.06625 34.7026 4H34.7015C34.6674 4.01432 34.6283 4.02562 34.5891 4.03694C34.5041 4.06148 34.419 4.08607 34.385 4.14152C33.8993 4.93348 33.4258 5.7327 32.9525 6.53151L32.7299 6.9071C32.1781 7.83711 31.6268 8.76833 31.0775 9.69624L30.5229 10.6331C30.5465 10.6591 30.5653 10.6826 30.5817 10.7032C30.6103 10.7392 30.6319 10.7664 30.6601 10.7822L30.8806 10.9069C32.0538 11.5709 33.2274 12.235 34.4077 12.8877C34.4644 12.9194 34.5458 12.9068 34.6272 12.8942C34.665 12.8884 34.7029 12.8826 34.7382 12.8812C34.7226 12.8233 34.7026 12.7655 34.6825 12.7078C34.6402 12.5856 34.5978 12.4635 34.5978 12.341C34.5892 9.76991 34.5892 7.1977 34.5967 4.62658C34.5975 4.48434 34.6294 4.34157 34.6612 4.19901Z" fill="#EDFCF7" fill-opacity="0.62"/>
<path d="M29.1646 12.9291L27.1254 16.3727C27.1486 16.4013 27.1655 16.4245 27.179 16.4432C27.2007 16.4731 27.2139 16.4913 27.2312 16.5012L27.4442 16.6212C29.7662 17.9295 32.0893 19.2384 34.4185 20.5362C34.4449 20.5506 34.4764 20.5559 34.5109 20.5558C34.5595 20.5559 34.6142 20.5452 34.6688 20.5345C34.7121 20.5261 34.7553 20.5177 34.7954 20.5146C34.7743 20.3976 34.7485 20.2807 34.7227 20.1637C34.6656 19.9045 34.6084 19.6451 34.601 19.3846C34.585 18.8129 34.5872 18.2408 34.5894 17.6688C34.5909 17.2756 34.5924 16.8823 34.588 16.4894C34.5865 16.3596 34.5543 16.2305 34.5221 16.1011C34.5077 16.0432 34.4933 15.9852 34.4816 15.9271L34.4826 15.9277C34.4943 15.9853 34.5087 16.043 34.5232 16.1008C34.5556 16.2305 34.5881 16.3605 34.5896 16.4905C34.5934 16.8721 34.5919 17.2535 34.5903 17.6348C34.5879 18.2186 34.5856 18.8022 34.6025 19.3857C34.61 19.6456 34.6669 19.9039 34.7239 20.1625C34.7498 20.2801 34.7757 20.3978 34.797 20.5157C34.8379 20.5001 34.8807 20.4858 34.9226 20.4715C35.0168 20.4393 35.1114 20.4069 35.1966 20.3591C35.9813 19.9151 36.765 19.4692 37.5488 19.0233L37.5497 19.0228C38.2321 18.6346 38.9146 18.2463 39.5978 17.8592C40.1626 17.5386 40.729 17.221 41.3054 16.8977L41.3078 16.8963C41.5871 16.7396 41.8688 16.5817 42.1538 16.4214L41.4294 15.2074C40.974 14.4443 40.5286 13.6979 40.0817 12.9482C40.0269 12.971 39.9777 12.9896 39.9343 13.0064C39.8522 13.0382 39.7872 13.0633 39.7264 13.0973C39.2776 13.3489 38.8292 13.6016 38.3808 13.8543C37.5009 14.3502 36.6201 14.8466 35.7358 15.3346C35.4571 15.4888 35.165 15.6189 34.8731 15.749C34.7418 15.8075 34.6105 15.8659 34.4805 15.9266C33.3347 15.2807 32.1884 14.6342 31.0355 13.9839L29.1646 12.9291Z" fill="#EDFCF7" fill-opacity="0.62"/>
<path d="M34.5252 27.9999C34.5128 28 34.5004 28 34.4881 27.9998C34.0375 27.9931 33.6566 27.7812 33.3274 27.4556C30.7077 24.8682 27.605 23.1441 24.0422 22.2366C23.9869 22.2226 23.9329 22.2018 23.8583 22.173C23.8178 22.1574 23.7709 22.1393 23.7148 22.1189L23.8884 21.8262C24.5135 20.7723 25.1294 19.7338 25.7653 18.6608C25.7652 18.6609 25.7653 18.6607 25.7653 18.6608L26.8048 19.2441C27.6542 19.721 28.4884 20.1893 29.3215 20.6594C30.355 21.2423 31.3886 21.8263 32.4221 22.4104C33.1106 22.7994 33.799 23.1885 34.4875 23.5773C34.5452 23.5557 34.6037 23.5369 34.6625 23.5176C34.7883 23.4764 34.914 23.4351 35.0271 23.372C36.8189 22.3681 38.6094 21.3616 40.4 20.3549L40.401 20.3544C41.3618 19.8142 42.3227 19.274 43.2839 18.7342C43.3017 18.724 43.3221 18.7191 43.3611 18.7097C43.3883 18.7031 43.4245 18.6944 43.4751 18.6802C44.1341 19.7918 44.8059 20.924 45.5167 22.1242C45.343 22.1747 45.1743 22.2215 45.0095 22.2671L45.0083 22.2674C44.6767 22.3593 44.3608 22.4467 44.0508 22.552C40.9654 23.5956 38.1836 25.1383 35.8761 27.4836C35.6984 27.6642 35.4275 27.753 35.1566 27.8418C35.0323 27.8825 34.908 27.9233 34.7928 27.9729L34.7933 27.9741C34.7013 27.9907 34.6119 27.9991 34.5252 27.9999Z" fill="#EDFCF7" fill-opacity="0.62"/>
<path fill-rule="evenodd" clip-rule="evenodd" d="M34.7049 4.00137C34.9193 4.35048 35.1344 4.69915 35.3494 5.04776L35.3501 5.0489C35.8762 5.90205 36.4025 6.75538 36.9197 7.61362C37.3261 8.2875 37.7221 8.96732 38.1301 9.6678C38.3252 10.0027 38.523 10.3423 38.726 10.6882C38.5603 10.7846 38.3966 10.8813 38.2338 10.9775C37.8712 11.1916 37.5133 11.4031 37.1488 11.6021C36.6 11.9017 36.0462 12.1932 35.4926 12.4845C35.2418 12.6165 34.991 12.7485 34.7408 12.8812L34.7046 4.0026L34.7049 4.00137ZM34.7041 4.00017L34.7049 4.00137L34.7046 4.0026L34.7041 4.00017Z" fill="#EDFCF7" fill-opacity="0.62"/>
<path d="M34.7049 4.00137C34.6939 4.06318 34.6792 4.12508 34.6653 4.18703C34.6792 4.12504 34.6929 4.06309 34.7038 4.00124L34.7049 4.00137Z" fill="#EDFCF7" fill-opacity="0.62"/>
<path d="M76.9146 9.38571C77.3557 9.62821 77.7758 9.85918 78.1637 10.1349C78.3787 10.2873 78.571 10.6362 78.5732 10.8976C78.5939 13.9721 78.5925 17.0465 78.5911 20.1359V20.1371C78.5908 20.9108 78.5905 21.6854 78.5905 22.4612H76.3672V9.08057C76.5524 9.18656 76.7356 9.28729 76.9146 9.38571Z" fill="#EDFCF7" fill-opacity="0.62"/>
<path fill-rule="evenodd" clip-rule="evenodd" d="M82.5322 18.4772H89.7875C89.7875 18.3503 89.7906 18.2271 89.7936 18.1066V18.1055C89.7998 17.8534 89.8058 17.612 89.7832 17.3742C89.606 15.4923 88.9027 13.9226 87.0738 13.1005C85.2254 12.2708 83.001 12.7656 81.5567 14.2143C80.0691 15.7051 79.9481 18.3454 80.6924 19.9021C81.7198 22.0497 83.8577 23.035 86.3651 22.6374C87.5545 22.4484 88.5592 21.8866 89.3435 20.9241C89.0641 20.6858 88.7916 20.4532 88.524 20.2249L88.0255 19.7995C86.8631 20.7966 85.5905 21.2914 84.1008 20.6626C83.1739 20.2716 82.6521 19.5402 82.5322 18.4772ZM85.0082 14.5114C86.3683 14.4703 87.5297 15.6295 87.4918 17.0134H82.6002C82.4792 15.7807 83.6665 14.5513 85.0082 14.5114Z" fill="#EDFCF7" fill-opacity="0.62"/>
<path fill-rule="evenodd" clip-rule="evenodd" d="M70.136 18.4826H62.8386C62.9315 19.4926 63.4522 20.1786 64.2851 20.6226C65.4713 21.2546 66.867 20.9586 68.3579 19.8059C68.5987 20.014 68.8396 20.2224 69.0884 20.4376L69.6607 20.9327C68.8872 21.8445 67.9398 22.4267 66.7925 22.6234C64.6254 22.995 62.7154 22.4559 61.4029 20.628C60.1119 18.8304 60.288 15.9838 61.7756 14.3201C63.2631 12.6543 65.8299 12.2049 67.7842 13.3068C69.1594 14.0825 69.8001 15.3583 70.0248 16.8664C70.0761 17.2118 70.0916 17.5626 70.1081 17.9358C70.1159 18.1125 70.1239 18.2941 70.136 18.4826ZM67.8145 17.0144C67.7248 15.5193 66.6823 14.4865 65.3125 14.5124C63.9934 14.5384 62.9164 15.6349 62.8699 17.0144H67.8145Z" fill="#EDFCF7" fill-opacity="0.62"/>
<path d="M71.7804 9.09094C71.9565 9.18932 72.1303 9.2798 72.3001 9.36814C72.6872 9.56955 73.053 9.75985 73.3749 10.0075C73.6579 10.2247 73.9756 10.6233 73.9799 10.9431C74.0126 13.994 74.0103 17.0456 74.008 20.111C74.0075 20.8935 74.0069 21.6768 74.0069 22.4613H71.7804V9.09094Z" fill="#EDFCF7" fill-opacity="0.62"/>
<path d="M51.248 9.69092V11.8591H61.8048V9.69092H51.248Z" fill="#EDFCF7" fill-opacity="0.62"/>
<path d="M93.5796 14.9263V22.4515H91.3477V12.7438C91.5047 12.7438 91.6637 12.7396 91.824 12.7354C92.2028 12.7254 92.5879 12.7153 92.966 12.76C93.3538 12.8065 93.5677 13.1295 93.5763 13.5346C93.5822 13.8011 93.5776 14.0681 93.5731 14.3352V14.3363L93.573 14.3393C93.5709 14.4661 93.5687 14.5929 93.5677 14.7197C93.6779 14.6039 93.7951 14.4923 93.9123 14.3806C94.1727 14.1326 94.4333 13.8843 94.6186 13.5889C95.2128 12.6436 96.0522 12.5701 97.0277 12.7613V14.9263H93.5796Z" fill="#EDFCF7" fill-opacity="0.62"/>
<path d="M55.4414 22.4721H57.6809C57.6809 21.9002 57.6813 21.3311 57.6817 20.7642L57.6817 20.7549C57.6832 18.699 57.6846 16.6718 57.6668 14.6453C57.6647 14.385 57.5426 14.0241 57.3503 13.8837C56.9283 13.5761 56.4747 13.3116 56.0063 13.0384C55.8202 12.9298 55.6312 12.8196 55.4414 12.7051V22.4721Z" fill="#EDFCF7" fill-opacity="0.62"/>
</svg>
