<svg width="120" height="32" viewBox="0 0 120 32" fill="none" xmlns="http://www.w3.org/2000/svg">
<path d="M36.4392 7.8399C38.6583 7.8399 40.6706 8.72576 42.1416 10.1632C40.3869 7.87512 37.6253 6.3999 34.5192 6.3999C29.2172 6.3999 24.9192 10.6979 24.9192 15.9999C24.9192 21.3019 29.2172 25.5999 34.5192 25.5999C37.6253 25.5999 40.3869 24.1247 42.1416 21.8366C40.6706 23.2741 38.6583 24.1599 36.4392 24.1599C31.9325 24.1599 28.2792 20.5066 28.2792 15.9999C28.2792 11.4932 31.9325 7.8399 36.4392 7.8399Z" fill="#EDFCF7" fill-opacity="0.62"/>
<path d="M65.9092 20.0027V21.9999H74.2888V19.9687H69.5636C69.6769 19.8951 69.8724 19.7534 70.15 19.5438C70.4333 19.3285 70.759 19.0594 71.1273 18.7364C71.4956 18.4078 71.8695 18.0452 72.2491 17.6486C72.6344 17.2464 72.9913 16.8243 73.3199 16.3823C73.6542 15.9347 73.9233 15.4843 74.1273 15.0311C74.3313 14.5721 74.4333 14.1274 74.4333 13.6968C74.4333 12.9999 74.3228 12.4163 74.1018 11.9461C73.8865 11.4758 73.5834 11.0991 73.1925 10.8158C72.8072 10.5268 72.3539 10.32 71.8327 10.1954C71.3114 10.0651 70.7449 9.9999 70.133 9.9999C69.4474 9.9999 68.8044 10.1217 68.2038 10.3653C67.6089 10.6033 67.1018 10.9489 66.6826 11.4022C66.2633 11.8554 65.9772 12.3937 65.8242 13.0169L68.2378 14.0537C68.3058 13.7648 68.4219 13.473 68.5862 13.1784C68.7562 12.8781 68.9687 12.626 69.2236 12.422C69.4843 12.218 69.7845 12.116 70.1245 12.116C70.3398 12.116 70.5324 12.1472 70.7024 12.2095C70.878 12.2719 71.0282 12.3682 71.1528 12.4985C71.2831 12.6231 71.3823 12.7874 71.4503 12.9914C71.5182 13.1954 71.5522 13.439 71.5522 13.7223C71.5522 14.0169 71.4701 14.3342 71.3058 14.6741C71.1415 15.0141 70.9205 15.3625 70.6429 15.7194C70.3653 16.0707 70.0508 16.4277 69.6996 16.7903C69.3539 17.1472 68.9942 17.49 68.6202 17.8186C68.252 18.1472 67.8922 18.456 67.5409 18.7449C67.1896 19.0282 66.8724 19.2775 66.5891 19.4928C66.3058 19.7081 66.0792 19.8781 65.9092 20.0027Z" fill="#EDFCF7" fill-opacity="0.62"/>
<path d="M56.1575 16.1359L53.7184 21.9999H56.7694L58.6476 17.1302H58.894L60.7977 21.9999H63.8487L61.3841 16.1359L63.8487 10.1019H60.7977L58.894 15.1075H58.6391L56.7694 10.1019H53.7184L56.1575 16.1359Z" fill="#EDFCF7" fill-opacity="0.62"/>
<path d="M80.6155 21.9999V18.167L77.1056 10.1019H79.9866L82.0093 15.6005L84.032 10.1019H86.913L83.4201 18.167V21.9999H80.6155Z" fill="#EDFCF7" fill-opacity="0.62"/>
<path d="M89.1519 20.0027V21.9999H97.5315V19.9687H92.8063C92.9196 19.8951 93.1151 19.7534 93.3927 19.5438C93.676 19.3285 94.0018 19.0594 94.37 18.7364C94.7383 18.4078 95.1123 18.0452 95.4919 17.6486C95.8771 17.2464 96.2341 16.8243 96.5627 16.3823C96.897 15.9347 97.1661 15.4843 97.37 15.0311C97.574 14.5721 97.676 14.1274 97.676 13.6968C97.676 12.9999 97.5655 12.4163 97.3446 11.9461C97.1293 11.4758 96.8261 11.0991 96.4352 10.8158C96.0499 10.5268 95.5967 10.32 95.0754 10.1954C94.5542 10.0651 93.9876 9.9999 93.3757 9.9999C92.6902 9.9999 92.0471 10.1217 91.4465 10.3653C90.8516 10.6033 90.3446 10.9489 89.9253 11.4022C89.506 11.8554 89.2199 12.3937 89.0669 13.0169L91.4805 14.0537C91.5485 13.7648 91.6647 13.473 91.829 13.1784C91.9989 12.8781 92.2114 12.626 92.4664 12.422C92.727 12.218 93.0273 12.116 93.3672 12.116C93.5825 12.116 93.7752 12.1472 93.9451 12.2095C94.1208 12.2719 94.2709 12.3682 94.3955 12.4985C94.5259 12.6231 94.625 12.7874 94.693 12.9914C94.761 13.1954 94.795 13.439 94.795 13.7223C94.795 14.0169 94.7128 14.3342 94.5485 14.6741C94.3842 15.0141 94.1633 15.3625 93.8856 15.7194C93.608 16.0707 93.2936 16.4277 92.9423 16.7903C92.5967 17.1472 92.2369 17.49 91.863 17.8186C91.4947 18.1472 91.1349 18.456 90.7837 18.7449C90.4324 19.0282 90.1151 19.2775 89.8318 19.4928C89.5485 19.7081 89.3219 19.8781 89.1519 20.0027Z" fill="#EDFCF7" fill-opacity="0.62"/>
<path d="M30.3412 20.6693C31.518 21.8192 33.1278 22.5279 34.9032 22.5279C38.5085 22.5279 41.4312 19.6052 41.4312 15.9999C41.4312 12.3946 38.5085 9.4719 34.9032 9.4719C33.1278 9.4719 31.518 10.1806 30.3412 11.3305C31.745 9.50007 33.9542 8.3199 36.4392 8.3199C40.6807 8.3199 44.1192 11.7584 44.1192 15.9999C44.1192 20.2414 40.6807 23.6799 36.4392 23.6799C33.9542 23.6799 31.745 22.4997 30.3412 20.6693Z" fill="#EDFCF7" fill-opacity="0.62"/>
<path fill-rule="evenodd" clip-rule="evenodd" d="M34.5192 21.7599C37.7003 21.7599 40.2792 19.181 40.2792 15.9999C40.2792 12.8188 37.7003 10.2399 34.5192 10.2399C31.338 10.2399 28.7592 12.8188 28.7592 15.9999C28.7592 19.181 31.338 21.7599 34.5192 21.7599ZM34.5192 19.8399C36.6399 19.8399 38.3592 18.1207 38.3592 15.9999C38.3592 13.8791 36.6399 12.1599 34.5192 12.1599C32.3984 12.1599 30.6792 13.8791 30.6792 15.9999C30.6792 18.1207 32.3984 19.8399 34.5192 19.8399Z" fill="#EDFCF7" fill-opacity="0.62"/>
</svg>
