<svg width="1920" height="1145" viewBox="0 0 1920 1145" fill="none" xmlns="http://www.w3.org/2000/svg">
    <g filter="url(#filter0_f_308_13161)">
        <ellipse cx="960" cy="550" rx="400" ry="120" fill="url(#paint0_linear_308_13161)" fill-opacity="0.9"/>
    </g>
    <g style="mix-blend-mode:color-dodge" filter="url(#filter1_f_308_13161)">
        <ellipse cx="960" cy="550" rx="350" ry="150" fill="url(#paint1_linear_308_13161)"/>
    </g>
    <mask id="mask0_308_13161" style="mask-type:alpha" maskUnits="userSpaceOnUse" x="0" y="0" width="1920" height="731">
        <rect width="1920" height="731" fill="url(#paint2_radial_308_13161)"/>
    </mask>
    <g mask="url(#mask0_308_13161)">
        <line x1="0.5" y1="2.18557e-08" x2="0.499965" y2="800" stroke="white" stroke-opacity="0.069" stroke-dasharray="4 4"/>
        <line x1="80.5" y1="2.18557e-08" x2="80.5" y2="800" stroke="white" stroke-opacity="0.069" stroke-dasharray="4 4"/>
        <line x1="160.5" y1="2.18557e-08" x2="160.5" y2="800" stroke="white" stroke-opacity="0.069" stroke-dasharray="4 4"/>
        <line x1="240.5" y1="2.18557e-08" x2="240.5" y2="800" stroke="white" stroke-opacity="0.069" stroke-dasharray="4 4"/>
        <line x1="320.5" y1="2.18557e-08" x2="320.5" y2="800" stroke="white" stroke-opacity="0.069" stroke-dasharray="4 4"/>
        <line x1="400.5" y1="2.18557e-08" x2="400.5" y2="800" stroke="white" stroke-opacity="0.069" stroke-dasharray="4 4"/>
        <line x1="480.5" y1="2.18557e-08" x2="480.5" y2="800" stroke="white" stroke-opacity="0.069" stroke-dasharray="4 4"/>
        <line x1="560.5" y1="2.18557e-08" x2="560.5" y2="800" stroke="white" stroke-opacity="0.069" stroke-dasharray="4 4"/>
        <line x1="640.5" y1="2.18557e-08" x2="640.5" y2="800" stroke="white" stroke-opacity="0.069" stroke-dasharray="4 4"/>
        <line x1="720.5" y1="2.18557e-08" x2="720.5" y2="800" stroke="white" stroke-opacity="0.069" stroke-dasharray="4 4"/>
        <line x1="800.5" y1="2.18557e-08" x2="800.5" y2="800" stroke="white" stroke-opacity="0.069" stroke-dasharray="4 4"/>
        <line x1="880.5" y1="2.18557e-08" x2="880.5" y2="800" stroke="white" stroke-opacity="0.069" stroke-dasharray="4 4"/>
        <line x1="960.5" y1="2.18557e-08" x2="960.5" y2="800" stroke="white" stroke-opacity="0.069" stroke-dasharray="4 4"/>
        <line x1="1040.5" y1="2.18557e-08" x2="1040.5" y2="800" stroke="white" stroke-opacity="0.069" stroke-dasharray="4 4"/>
        <line x1="1120.5" y1="2.18557e-08" x2="1120.5" y2="800" stroke="white" stroke-opacity="0.069" stroke-dasharray="4 4"/>
        <line x1="1200.5" y1="2.18557e-08" x2="1200.5" y2="800" stroke="white" stroke-opacity="0.069" stroke-dasharray="4 4"/>
        <line x1="1280.5" y1="2.18557e-08" x2="1280.5" y2="800" stroke="white" stroke-opacity="0.069" stroke-dasharray="4 4"/>
        <line x1="1360.5" y1="2.18557e-08" x2="1360.5" y2="800" stroke="white" stroke-opacity="0.069" stroke-dasharray="4 4"/>
        <line x1="1440.5" y1="2.18557e-08" x2="1440.5" y2="800" stroke="white" stroke-opacity="0.069" stroke-dasharray="4 4"/>
        <line x1="1520.5" y1="2.18557e-08" x2="1520.5" y2="800" stroke="white" stroke-opacity="0.069" stroke-dasharray="4 4"/>
        <line x1="1600.5" y1="2.18557e-08" x2="1600.5" y2="800" stroke="white" stroke-opacity="0.069" stroke-dasharray="4 4"/>
        <line x1="1680.5" y1="2.18557e-08" x2="1680.5" y2="800" stroke="white" stroke-opacity="0.069" stroke-dasharray="4 4"/>
        <line x1="1760.5" y1="2.18557e-08" x2="1760.5" y2="800" stroke="white" stroke-opacity="0.069" stroke-dasharray="4 4"/>
        <line x1="1840.5" y1="2.18557e-08" x2="1840.5" y2="800" stroke="white" stroke-opacity="0.069" stroke-dasharray="4 4"/>
        <line x1="-0.498047" y1="719.499" x2="1920.5" y2="719.499" stroke="white" stroke-opacity="0.069" stroke-dasharray="4 4"/>
        <line x1="-0.498047" y1="639.499" x2="1920.5" y2="639.499" stroke="white" stroke-opacity="0.069" stroke-dasharray="4 4"/>
        <line x1="-0.498047" y1="559.499" x2="1920.5" y2="559.499" stroke="white" stroke-opacity="0.069" stroke-dasharray="4 4"/>
        <line x1="-0.498047" y1="479.499" x2="1920.5" y2="479.499" stroke="white" stroke-opacity="0.069" stroke-dasharray="4 4"/>
        <line x1="-0.498047" y1="399.499" x2="1920.5" y2="399.499" stroke="white" stroke-opacity="0.069" stroke-dasharray="4 4"/>
        <line x1="-0.498047" y1="319.499" x2="1920.5" y2="319.499" stroke="white" stroke-opacity="0.069" stroke-dasharray="4 4"/>
        <line x1="-0.498047" y1="239.499" x2="1920.5" y2="239.499" stroke="white" stroke-opacity="0.069" stroke-dasharray="4 4"/>
        <line x1="-0.498047" y1="159.499" x2="1920.5" y2="159.499" stroke="white" stroke-opacity="0.069" stroke-dasharray="4 4"/>
        <line x1="-0.498047" y1="79.499" x2="1920.5" y2="79.4991" stroke="white" stroke-opacity="0.069" stroke-dasharray="4 4"/>
    </g>
    <defs>
        <filter id="filter0_f_308_13161" x="360" y="230" width="1200" height="640" filterUnits="userSpaceOnUse" color-interpolation-filters="sRGB">
            <feFlood flood-opacity="0" result="BackgroundImageFix"/>
            <feBlend mode="normal" in="SourceGraphic" in2="BackgroundImageFix" result="shape"/>
            <feGaussianBlur stdDeviation="100" result="effect1_foregroundBlur_308_13161"/>
        </filter>
        <filter id="filter1_f_308_13161" x="410" y="200" width="1100" height="700" filterUnits="userSpaceOnUse" color-interpolation-filters="sRGB">
            <feFlood flood-opacity="0" result="BackgroundImageFix"/>
            <feBlend mode="normal" in="SourceGraphic" in2="BackgroundImageFix" result="shape"/>
            <feGaussianBlur stdDeviation="100" result="effect1_foregroundBlur_308_13161"/>
        </filter>
        <linearGradient id="paint0_linear_308_13161" x1="574" y1="670" x2="1377.77" y2="560.922" gradientUnits="userSpaceOnUse">
            <stop stop-color="#F76300" stop-opacity="0.969"/>
            <stop offset="1" stop-color="#0091FF"/>
        </linearGradient>
        <linearGradient id="paint1_linear_308_13161" x1="622.25" y1="700" x2="1332.09" y2="632.568" gradientUnits="userSpaceOnUse">
            <stop stop-color="#F76300" stop-opacity="0.969"/>
            <stop offset="1" stop-color="#0091FF"/>
        </linearGradient>
        <radialGradient id="paint2_radial_308_13161" cx="0" cy="0" r="1" gradientUnits="userSpaceOnUse" gradientTransform="translate(960 170.5) rotate(90) scale(870.5 960)">
            <stop stop-color="#D9D9D9"/>
            <stop offset="1" stop-color="#737373" stop-opacity="0"/>
        </radialGradient>
    </defs>
</svg>
